<?xml version="1.0" encoding="utf-8"?>
<!-- Generator: Adobe Illustrator 27.8.0, SVG Export Plug-In . SVG Version: 6.00 Build 0)  -->
<svg version="1.1" xmlns="http://www.w3.org/2000/svg" xmlns:xlink="http://www.w3.org/1999/xlink" x="0px" y="0px"
	 viewBox="0 0 200 70" style="enable-background:new 0 0 200 70;" xml:space="preserve">
<style type="text/css">
	.st0{stroke:#000000;stroke-width:0.2;stroke-linecap:round;stroke-linejoin:round;stroke-miterlimit:10;}
	.st1{display:none;}
	.st2{display:inline;}
	.st3{stroke:#000000;stroke-width:0.5;stroke-linecap:round;stroke-linejoin:round;stroke-miterlimit:10;}
</style>
<g id="Camada_1">
	<g>
		<polygon points="153.3,32.2 153.3,32.2 153.3,32.2 		"/>
		<path d="M154.1,38.2c-0.7,0.3-1.2,0.8-2,1c-1.2,0.8-2.3,0.6-3.4,0c0-0.1,0-0.1,0-0.2c-0.3-1.1,0.4-1.6,1.2-2
			c0.5-0.2,1.2-0.3,1.4-0.9l0,0c1.3-0.3,2.1-1.1,2.6-2.3c0-0.1,0-0.2,0.1-0.2c0.2-0.2,0.2-0.4,0-0.6l0,0c-0.1-0.3-0.4-0.5-0.6-0.7
			c-0.6-0.3-1.3-0.3-1.9,0l0,0c-0.1,0.1-0.2,0.1-0.3,0.2c-0.7,0-1.3,0.6-1.9,0.8c0,0,0,0.1,0,0.1c-0.1,0.1-0.2,0.1-0.3,0.2
			c0,0.1-0.1,0.1-0.1,0.2c-0.6,0.3-1.1,0.7-1.5,1.3c-0.1,0-0.2,0.1-0.3,0.1c-0.3,0.2-0.6,0.4-0.8,0.7l0,0c-0.6,0.6-0.3,1.4-0.4,2.1
			c0.1,0.1,0.2,0.3,0.3,0.4c0,0,0,0,0,0c-0.1,0.6,0.1,1.1,0.5,1.4c0,0,0,0,0,0c0.1,0.1,0.1,0.2,0.3,0.3c0.2,0.4,0.7,0.5,0.9,0.8
			c0.1,0,0.2,0,0.3,0.1c1.8,0.6,3.5,0.6,5.1-0.7c0.2-0.2,0.5-0.3,0.7-0.4c0-0.2,0.1-0.3,0.3-0.4c0-0.2,0.1-0.5,0.4-0.6
			c0-0.1,0-0.2,0-0.3C154.7,38.1,154.5,38,154.1,38.2z"/>
		<path d="M142.9,32.5c-0.1-0.1-0.2-0.3-0.4-0.3l0,0c-0.5-0.4-1-0.4-1.6,0c-0.4,0.3-0.8,0.6-1.3,1c-0.4,0.3-0.5,0.7-0.4,1.1
			c0.1,0.5,0.4,0.8,0.9,0.8c0.3,0,0.6-0.1,0.9-0.1c-0.2,1-0.2,1-0.9,1c-1.9-0.1-3.1,0.9-3.1,0.9c0,0-0.5,0.2-1,1.3
			c-0.3,1.1,0.3,1.9,0.6,2.8c0.2,0,0.3,0.5,1,0.6c1.1,0.2,2.1,0.2,3.1,0c0.3-0.3,0.6-0.5,1-0.6c0-0.2,0.1-0.3,0.3-0.3c0,0,0,0,0,0
			c0,0-0.1-0.1-0.1-0.1c-0.1-0.6-0.2-1.1-1-0.6c-0.7,0.4-1.4,0.6-2.2,0.3c-0.8-0.3-1.3-0.8-1.1-1.7c0.2-0.8,0.9-1.1,1.6-1
			c0.9,0,1.7,0.4,2.5,0c0.2-0.1,0.4-0.2,0.6-0.4c0,0,0,0,0,0l0,0c0.2-0.2,0.2-0.5,0.3-0.7c0.4-0.3,0.1-0.7,0.3-1c0-0.1,0-0.2,0-0.3
			C143.7,34.2,143.6,33.3,142.9,32.5L142.9,32.5z"/>
		<path class="st0" d="M117.1,48.8L117.1,48.8c-0.4-0.4-0.3-0.9-0.3-1.3c-0.1-0.1-0.1-0.2,0-0.3c0-0.1-0.1-0.1-0.1-0.2
			c-0.3-0.7-0.3-1.4-0.3-2.1c0,0,0,0,0,0l0,0c0,0,0,0,0,0c0,0,0,0,0,0l0,0c-0.3-0.2-0.3-0.6-0.3-0.9c0-1.7-0.1-3.4-0.1-5
			c0.1-2.3,0-4.5,0.3-6.8c0.2-1.8,0.1-3.6,0.2-5.3c0-0.5,0-1.1,0.2-1.6c0,0,0,0,0,0c-0.1-0.1-0.1-0.1,0-0.2c-0.2-0.4-0.2-0.8,0-1.2
			l0-0.1c-0.2-0.6-0.2-1.2,0-1.8l0-0.1c-0.1-0.2-0.1-0.3,0-0.5c-0.1-0.7-0.1-1.5,0-2.2c0-2.9,0-5.8,0-8.7c0-0.3,0-0.5,0-0.8
			c0.1-1,0.2-1.9,0.3-2.9l0,0c0-0.4-0.2-0.6-0.6-0.7l0,0c-0.6,0-1,0.3-1.2,0.9c-0.5,1.6-0.8,3.2-1.1,4.9c-0.4,2.3-0.7,4.7-1.3,7
			c-0.3,1.3-0.6,2.6-1.3,3.8c0,0,0,0,0,0l0,0c-1,1.2-0.8,2.8-1.8,4c-1.1,1.3-1,1.4-2.1,0.2c-0.1-0.1-0.1-0.1,0-0.2
			c-0.2-0.3,0-0.8-0.3-1.1l0,0c-0.4-0.5,0.1-1.1-0.3-1.6c-0.1-0.2-0.1-0.4-0.1-0.6c-0.2-0.7,0.4-1.5-0.3-2.1c-0.1-0.2-0.1-0.3,0-0.5
			c0-0.2-0.1-0.2-0.3-0.2c0-0.3-0.3-0.5-0.4-0.8c-0.3,0-0.6,0-0.9-0.1c-0.4,0.4-0.9,0.8-0.7,1.5c0,0,0,0,0,0c-0.1,0-0.2,0-0.2,0.1
			l0,0c-0.4,0.7-0.5,1.5-0.7,2.3l0,0c-0.6,1.6-1,3.2-1.3,4.9l0,0c-0.7,2-1.1,4.2-1.6,6.3c0,0.7-0.3,1.3-0.5,1.9c-1,3-2.1,5.9-3,8.9
			c-0.3,0.9-0.5,1.9-1.3,2.5c-0.4,0.3-0.5,0.8-0.5,1.3c0,0.3,0.3,0.6,0.6,0.6c0.6,0,1.2-0.2,1.4-0.8c0.5-1.2,1.2-2.3,1.5-3.6
			c0.7-2.5,1.6-4.9,2.5-7.4c1.2-3.3,2-6.7,2.8-10.2c0.3-1.1,0.6-2.2,0.8-3.3c0.2-0.1,0.4-0.1,0.5,0.1c0.1,0.5,0.2,0.9,0.3,1.4
			c0.2,1,0.5,2,1,2.9c1,1.7,3.2,1.7,4.1,0c0.4-0.8,0.9-1.6,1.2-2.5c0.4-1.1,0.8-2.1,1.3-3.2c0.2-0.7,0.4-1.4,0.6-2.2
			c0.4-1.6,0.7-3.1,1.1-4.7c0-0.5,0-1.1,0-1.6c0.5,0.5,0.3,1,0.3,1.6c0,4.4,0.1,8.8-0.2,13.1c-0.1,2.9-0.2,5.8-0.2,8.8
			c0,0.7-0.1,1.4-0.1,2.1c0,0.3-0.1,0.6,0,1c0.2,2.8,0.3,5.6,1,8.4c0.2,0.7,0.3,1.4,0.9,1.8c0.2,0,0.4,0,0.6,0
			c0.1-0.2,0.2-0.2,0.4-0.3c0-0.2,0.1-0.3,0.3-0.4c0-0.4-0.1-0.7-0.3-1C117.2,49.9,117.1,49.4,117.1,48.8z"/>
		<path d="M166.4,34.2c-0.2-0.6-0.7-0.7-1.3-0.8c-1.5-0.4-1.7-0.8-0.6-2c0.3-0.4,0.8-0.6,1.2-0.8c0.7-0.3,1.2-0.9,1.3-1.7l0-0.1
			c0-0.6-0.6-0.6-1-0.8l0,0c-1.2-0.4-1.4,1-2.2,1.3l0,0c-0.6,0.4-1.2,0.7-1.6,1.3l0,0c-1,0.7-2.1,1.3-1.6,2.9l0,0
			c0.3,0.7,0.9,1.1,1.6,1.3c0.4,0.6,1.9,0,1.6,1.4c0,0.2,0,0.3-0.1,0.5c-0.1,0.1-0.2,0.1-0.2,0.2c0,0,0,0.1,0,0.1
			c-0.1,0.1-0.1,0.1-0.2,0.2c0,0,0,0,0,0c0,0-0.1,0-0.1,0c0,0.1,0,0.1,0,0.2c-0.1,0.1-0.1,0.2-0.1,0.3c0,0-0.1,0.1-0.1,0.1
			c0,0-0.1,0-0.1,0c0,0.2-0.1,0.3-0.3,0.4c0,0.1-0.1,0.2-0.1,0.3c0,0-0.1,0.1-0.1,0.1c0,0,0,0.1,0,0.1c-0.4,0.1-0.6,0.4-0.7,0.7
			c-0.3,0.1-0.2,0.4-0.4,0.6l0,0c-0.3,0.5-0.5,1.1-0.5,1.7c-0.1,0.5-0.1,1,0.5,1.2c0.5,0.2,0.7-0.3,1-0.7l0,0
			c0.2-0.2,0.2-0.5,0.3-0.7c0-0.1,0-0.2,0.1-0.2c0.2-0.3,0.4-0.7,0.6-1l0,0c0.2-0.1,0.2-0.3,0.1-0.5c0.1-0.1,0.1-0.2,0.2-0.3
			c0,0,0,0,0,0c0.2-0.2,0.4-0.4,0.7-0.5c0-0.2,0.1-0.3,0.1-0.5c0.1-0.1,0.2-0.1,0.2-0.2c0,0,0.1-0.1,0.1-0.1
			c0.1-0.1,0.2-0.2,0.2-0.2c0,0,0.1-0.1,0.1-0.1c0.1-0.1,0.2-0.2,0.2-0.3c0-0.1,0.1-0.1,0.1-0.2c0.1,0,0.1,0,0.2,0
			c0-0.1,0-0.2,0.1-0.4c0-0.1,0.1-0.1,0.1-0.2c0.1-0.1,0.1-0.2,0.2-0.3c0.2-0.2,0.3-0.4,0.5-0.6C166.6,35.4,167,34.8,166.4,34.2
			L166.4,34.2z"/>
		<path d="M134.5,33c-0.7,0.4-1.3,0.9-1.8,1.5c-0.2,0.2-0.4,0.1-0.5-0.1c-0.1-0.1-0.2-0.2-0.3-0.3c0,0,0,0,0,0l0,0
			c-0.1-0.2-0.3-0.4-0.4-0.5c-0.3,0.2-0.8,0.1-0.9,0.6h0l0,0c-0.1,0.1-0.2,0.2-0.3,0.3c-0.1,1.4-0.2,2.9-0.3,4.3c0,0.1,0,0.1,0,0.2
			c0.1,0.7,0.8,1.1,1.4,0.8c0.7-0.3,1.1-0.9,1.1-1.6c0.5-0.4,0.6-1,1-1.4c0.3-0.4,0.5-0.9,1-1.2c0-0.2,0.1-0.3,0.3-0.4
			c0-0.2,0.1-0.3,0.3-0.4c0.2-0.4,0.6-0.7,1-1c0-0.2,0-0.4,0.1-0.6C135.6,32.7,135.1,32.7,134.5,33z"/>
		<path d="M130.2,34.5c0.1-0.1,0.2-0.2,0.3-0.3C130.3,34.2,130.2,34.3,130.2,34.5z"/>
		<path d="M125,36.3c-0.3-0.4-0.9-0.6-1.2-1c-0.4-0.4,0.1-1.1-0.2-1.7c-0.6-0.1-1,0.2-1.4,0.6c-0.8,0.8-1.2,1.8-1.4,2.8
			c-0.4,1.4-0.3,2.9,0.1,4.3c0.1,0,0.2,0,0.2,0.1c0,0,0,0,0,0c0,0,0,0,0,0c0.1,0.7,0.7,1,1.1,1.6c0.9,0.3,1.7,0.2,2.4-0.3
			c0-0.2,0.2-0.3,0.3-0.3c0-0.2,0.1-0.3,0.3-0.3c0-0.3,0.1-0.6,0.1-0.9l0,0c0,0,0,0,0,0c0.1,0,0.2,0,0.2-0.1c0.2-1.5,0.1-3-0.3-4.5
			C125.2,36.4,125.1,36.4,125,36.3z M123.5,40.6c-0.1,0.2-0.4,0.3-0.5,0.1c-0.2-0.2-0.4-0.5-0.6-0.8c-0.1-1-0.2-1.9,0-2.9
			c0-0.1,0.2-0.3,0.3-0.3c0.1,0,0.3,0.1,0.4,0.2c0.2,0.2,0.3,0.5,0.5,0.8c0,0,0,0,0,0c0,0,0,0,0,0c0,0.7,0.1,1.4,0,2.1
			C123.7,40.1,123.6,40.4,123.5,40.6z"/>
		<path d="M82.2,27.3L82.2,27.3c-0.1-0.9-0.7-1.5-1.6-1.6l0,0c-0.5-0.3-1.1-0.3-1.6,0l0,0c-0.5,0.2-1.1,0.3-1.3,1
			c-1,0.8-1.4,1.8-1.7,3c0,0.5-0.1,1,0,1.5c0.2,1.7,1.7,2.6,3.3,2c0.6-0.2,1-0.7,1.5-1c0.3-0.6,0.7-1.3,1-1.9l0,0
			c0.3-0.3,0.1-0.7,0.3-1l0,0C82.7,28.6,82.7,28,82.2,27.3z M79.3,31c-0.2,0.2-0.6,0.3-0.9,0.2C78.1,31,78,30.8,78,30.5
			c0-0.2,0-0.5,0.1-0.6c0.3-0.7,0.7-1.3,1.1-2c0.1-0.2,0.3-0.3,0.6-0.2c0.3,0.1,0.4,0.3,0.5,0.6c0,0.1,0,0.2,0,0.4
			C80.3,29.5,80,30.3,79.3,31z"/>
		<path class="st0" d="M55.4,39.9c-0.2,5.2,0,10.4,0,15.6c0,0.8,0.1,1.6,0.5,2.3l0,0c0.3,0.4-0.1,1,0.4,1.3l0,0
			c0.1,0.3-0.1,0.7,0.3,1l0,0c0.2,0.5,0.5,0.9,1.1,1c0.1-0.1,0.2-0.1,0.3-0.2c0.6-0.4,0.7-0.5,0.4-1c-0.3-0.5-0.6-1-0.5-1.7
			c0-1.4-0.5-2.7-0.5-4.2c0-6.3,0.3-12.6,0-19c0-0.7-0.5-23.2-0.7-26.5c-0.1-1-0.1-3.2-0.2-3.2c0,0,0,0,0,0c0.1-0.5,0.1-1,0.2-1.4
			c0.1-0.5,0.1-1.1,0.5-1.5c0-0.4,0-0.8-0.1-1.2c-0.4-0.1-0.8,0-1,0.4c-0.3,0.5-0.6,1-0.8,1.5c0,1.3-0.4,3.9-0.4,8.8
			c0.3,2.8,0.3,5.6,0.4,8.4C55.4,26.9,55.7,33.4,55.4,39.9z"/>
		<path d="M60.3,37.6c0.1,0.4,0.2,0.7,0.2,1.1c0.3,0.4,0.5,0.8,0.8,1.2c0.5,0.6,1,0.6,1.6,0.2c0.3-0.2,0.5-0.5,0.7-0.9
			c0.3-0.6,0.4-1.2,0.4-1.9c0-0.9,0-1.8,0-2.7c-0.3-0.2-0.5-0.4-0.9-0.3c-0.3,0.1-0.4,0.4-0.5,0.6c-0.2,0.7-0.4,1.3-0.6,2.2
			c-0.4-0.9-0.5-1.6-0.6-2.4c-0.1-0.5-0.2-1.1-0.3-1.6c-0.1-0.3-0.3-0.4-0.6-0.4c-0.3,0-0.5,0.2-0.6,0.5c-0.2,0.5-0.3,1-0.2,1.6
			C59.9,35.7,60.1,36.6,60.3,37.6z"/>
		<path class="st0" d="M48.4,51.2c0.1,0.3,0.3,0.5,0.6,0.5c0.3,0,0.6-0.1,0.7-0.5c0.1,0,0.2-0.1,0.2-0.1c0-0.4,0.1-0.7,0.3-1
			c0-0.4,0-0.9,0.3-1.3c-0.1-0.7,0.4-1.3,0.4-1.9c0.3-0.2,0.4-0.6,0.3-0.9l0,0c0.7-1.3,1.4-2.6,2.1-3.9c0.3-0.5,0.5-1.1,1-1.4
			c0.2-0.5,0.4-1,0.6-1.5c0-0.1,0-0.2-0.1-0.3c-0.1-0.1-0.2-0.1-0.3,0c-0.3,0.2-0.5,0.4-0.8,0.6c-0.5,0.7-1,1.4-1.6,2
			c-0.8,0.8-1.4,1.7-1.7,2.8c0,0,0,0,0,0c0,0,0,0,0,0l-0.1,0.1l0,0.1c-0.2,0.1-0.3,0.2-0.2,0.4c-0.1,0.1-0.1,0.2-0.1,0.3
			c0,0,0,0,0,0c0,0,0,0,0,0c-0.4-0.2-0.3-0.6-0.3-1c0-2.6,0.4-5.2,0.5-7.8c0.1-1.1,0.2-2.1,0.1-3.2c0.1-0.8,0.3-1.6,0.3-2.4
			C51,25.4,51,20,50.5,14.7c-0.1-0.7-0.2-1.4,0.1-2.1c-0.1-0.2,0-0.4,0.1-0.6c-0.1-0.3,0.2-0.8-0.2-1.1c-0.2-0.1-0.6,0.3-0.7,0.9
			c-0.1,0.3-0.1,0.5-0.1,0.8c-0.1,2.4-0.1,4.8,0.1,7.2v0l0,0c0,0.3-0.1,0.6-0.1,1c0,2.6,0,5.2,0,7.7c0,1.4,0,2.9,0,4.3L49.6,33
			l0,0.1c0,0,0,0,0,0c0,0,0,0,0,0c-0.1,0.2-0.1,0.4-0.2,0.6c-0.2,2.9-0.5,5.7-0.7,8.6c-0.1,1.2,0,2.4-0.1,3.6c-0.1,0.3-0.1,0.6,0,1
			c-0.4,1.3-0.1,2.7-0.3,4C48.4,50.9,48.4,51.1,48.4,51.2z"/>
		<path d="M34.4,64.4C34.4,64.4,34.4,64.4,34.4,64.4C34.4,64.4,34.4,64.4,34.4,64.4L34.4,64.4z"/>
		<path d="M72.5,36.4C72.5,36.4,72.5,36.4,72.5,36.4C72.5,36.4,72.5,36.4,72.5,36.4c0.1-0.1,0-0.2,0-0.3c0.1-0.9,0-1.8-0.2-2.7
			c-0.1-0.7-0.2-1.4-0.2-2.1c0-0.5,0.2-1-0.3-1.4c-0.1-0.1-0.2-0.2-0.3-0.3c-0.6-0.3-1-0.3-1.4-0.1C70,29.6,70,29.7,70,29.9
			c0,0.1-0.1,0.2-0.1,0.3c-0.4,0.2-0.4,0.6-0.5,1c-0.2,0.4-0.3,0.8-0.5,1.2c-0.2,0.5-0.5,0.6-0.7,0.4c-0.3-0.3,0-0.5,0.1-0.7
			c0.5-0.9,0.1-1.3-0.8-1.3c0,0-0.1,0-0.1,0c-0.1,0-0.2,0.1-0.3,0.1c-0.1,0-0.8,0.6-0.8,0.6c0,0,0,0-0.1,0c0,0,0,0,0,0c0,0,0,0,0,0
			l0,0c-0.6,0.9-0.7,1.3-0.1,1.9c0,0.1,0.1,0.2,0.3,0.3c0,0,0,0,0,0c0,0,0,0,0,0c0.5,0.3,0.6,1,1.2,1.1c0,0,0,0,0,0v0c0,0,0,0,0,0
			c0,0,0,0,0,0c0.9,0.5,1.1,0.5,2-0.4c0,0,0,0,0,0l0,0c0.4-0.2,0.6-0.5,0.7-0.9c0.2,0,0.3,0,0.5,0c0,0.6,0,1.1,0.3,1.6l0,0.1
			l0.1,0.1c0,0.1,0,0.2,0,0.3c0,0.5-0.1,1,0.3,1.4c0,0,0,0,0,0l0,0.1c0,0,0.1,0.1,0.1,0.1c0,0,0,0,0,0h0c0,0.3-0.1,0.7,0,1
			c0.2,2.4-0.3,4.7-0.8,6.9c-0.8,3.5-2,6.9-3.6,10.1c-1.1,2.1-2.4,4.1-4.2,5.8c-1.3,1.2-2.7,2.2-4.4,2.7c-0.2,0.1-0.5,0.1-0.7,0.4
			c-0.2,0.1-0.5,0.1-0.6,0.3c-0.6,0.2-1.2,0.2-1.7,0.6l0,0c-1,0.1-1.8,0.5-2.6,1l0,0c-0.3,0.2-0.7,0-1,0.3l0,0
			c-0.6,0.4-1.3,0.4-1.9,0.3l0,0c-3.4,0.3-6.8,0.2-10.1-1c-0.3-0.3-0.7,0-1-0.3l0,0c-0.2-0.2-0.5-0.1-0.7-0.3l0,0
			c-0.3-0.2-0.6-0.4-1-0.6c-0.3-0.3-0.6-0.5-1-0.7c-0.1-0.1-0.2-0.3-0.3-0.3c-0.1-0.1-0.2-0.3-0.3-0.3c-0.1-0.2-0.2-0.3-0.3-0.3
			c-0.1-0.1-0.2-0.3-0.3-0.3l0,0c-0.2-0.2-0.1-0.5-0.4-0.6l0,0c-0.2-0.5-0.2-0.9,0-1.4l0,0c0.4-0.9,1.6-0.7,1.9-1.6
			c0.4-0.4,0.2-0.7-0.3-0.7c-0.7-0.1-1.4-0.1-1.9,0.5c0,0,0,0,0,0c-0.1,0.1-0.2,0.2-0.3,0.3c-1,0.9-1.2,2.1-0.9,3.4
			c0.1,0.3,0.2,0.5,0.2,0.8c0,0,0,0,0,0c0.3,0.4,0.6,0.9,1,1.2c0.9,1,2,1.7,3.3,2.3l0,0c0.5,0.4,1.1,0.5,1.6,0.7
			c0.2,0.4,0.7,0.1,1,0.3c0.6,0.5,1.3,0.4,2,0.6l0,0c0.7,0.6,1.6,0,2.3,0.4c0,0,0,0,0,0c1.6,0.2,3.2,0,4.8,0c0,0,0,0,0,0
			c0.6-0.4,1.4,0.2,2-0.3l0,0c0.8-0.2,1.6-0.1,2.3-0.7l0,0c1.2-0.4,2.5-0.6,3.6-1.3l0,0c0.2-0.1,0.5-0.1,0.7-0.3
			c1.3-0.2,2.2-1,3.3-1.6l0,0c0.3-0.2,0.7-0.4,1-0.7c0.3-0.2,0.8-0.3,1-0.7l0,0c0.2-0.1,0.3-0.2,0.4-0.3l0,0
			c0.1-0.1,0.2-0.2,0.3-0.3c0.1-0.1,0.2-0.2,0.3-0.3l0,0c0.1-0.1,0.2-0.2,0.3-0.3c0.1-0.1,0.3-0.2,0.3-0.3l0,0
			c0.8-1,1.8-1.7,2.3-2.9c0.2-0.1,0.2-0.4,0.4-0.6l0,0c0.2-0.2,0.1-0.5,0.3-0.6l0,0c0.1-0.1,0.2-0.2,0.3-0.4
			c0.2-0.1,0.2-0.4,0.3-0.6l0,0c0.5-0.4,0.4-1.1,0.7-1.6l0,0c0.4-0.3,0.4-0.9,0.6-1.3l0,0c0.6-0.4,0.4-1.1,0.7-1.6l0,0
			c0.2-0.2,0.2-0.5,0.3-0.8c-0.1-0.1,0-0.1,0.1-0.2c0.2-0.2,0.2-0.5,0.3-0.8c0.1-0.4,0.2-0.8,0.3-1.3c0.7-2.5,1.3-5,1.6-7.6
			C72.8,39.6,73,38,72.5,36.4C72.5,36.4,72.5,36.4,72.5,36.4z M66.9,32.8C66.9,32.8,66.9,32.8,66.9,32.8
			C66.9,32.8,66.9,32.8,66.9,32.8C66.9,32.8,66.9,32.8,66.9,32.8z M71.8,30C71.8,30,71.8,30,71.8,30C71.8,30,71.8,29.9,71.8,30
			C71.8,29.9,71.8,30,71.8,30z"/>
	</g>
</g>
<g id="Camada_2" class="st1">
	<g class="st2">
		<path class="st3" d="M113.5,44.1c-0.2-1.3-0.1-2.6,0-3.9c0.3-2.6,0.7-5.2,1-7.8c0.6-4.2,1.2-8.4,1.7-12.7c0.1-0.9,0.3-1.8,0.1-2.7
			l0,0c0.2-1.3,0.4-2.6,0.3-4c0-0.1,0-0.2,0-0.3c0.2-1.2,0.3-2.5,0.5-3.7c0.1-0.4-0.1-0.8-0.4-1.1c-0.1-0.3-0.3-0.3-0.6-0.2
			c-0.2,0.1-0.4,0.3-0.4,0.6c-0.2,0.8-0.3,1.6-0.5,2.5c-0.3,0.3-0.3,0.7-0.4,1c-0.1,0.4-0.1,0.8-0.4,1c-0.2,1.4-0.6,2.7-1,4.1
			c-0.7,2.2-1.7,4.2-2.6,6.2c-0.4,0.9-0.8,1.8-1.5,2.6c-0.2,0.2-0.4,0.5-0.6,0.7c-0.4,0.3-0.8,0.2-0.9-0.3c-0.1-0.4-0.2-0.9-0.1-1.3
			c0.1-1.5,0.2-2.9,0.3-4.3c0.2-2.2,0.5-4.4,0.8-6.6c0,0,0,0,0,0c0,0,0,0,0,0c0.1-0.4,0.2-0.9,0.4-1.3c0.2-0.5,0-0.9-0.3-1.2
			c-0.4-0.4-0.8-0.3-1.1,0.1c-0.2,0.4-0.3,0.8-0.4,1.3c0,0,0,0,0,0c0,0,0,0,0,0c-0.1,0.2-0.3,0.3-0.3,0.5c-0.6,1.5-1.2,2.9-1.9,4.4
			c-1,2.3-2,4.6-3.1,6.8c-1.3,2.9-2.6,5.7-3.9,8.6c-0.3,0.8-0.7,1.5-0.9,2.4c0,0,0,0,0,0c0,0.1-0.1,0.2-0.1,0.3v0
			c-0.3,0.2-0.4,0.5-0.4,0.8l0,0c-0.1,0-0.2,0-0.2,0c0,0.2-0.1,0.3-0.1,0.5c-0.2,0.3-0.4,0.5-0.6,0.8c-0.3,0.4-0.4,0.8-0.3,1.2
			c0.3,0.2,0.6,0.5,1.1,0.4c0.7-0.7,1.1-1.6,1.3-2.5c0.1,0,0.2,0,0.2,0c0-0.3,0.1-0.6,0.1-0.8c0,0,0,0,0,0c0.1-0.2,0.1-0.4,0.2-0.5
			c0,0,0,0,0,0c0,0,0,0,0,0c0.1-0.1,0.2-0.2,0.2-0.4c0.6-1.7,1.4-3.3,2.2-4.9c0.1-0.4,0.2-0.9,0.4-1.3c1.5-3.3,2.9-6.5,4.4-9.8
			c0.1-0.2,0.1-0.5,0.2-0.7l0.1-0.1l0-0.1c0.5-0.5,0.7-1.1,0.8-1.8l0.1,0c0.1-0.1,0.1-0.1,0.1-0.2c0,0.1,0.1,0.1,0.2,0.2
			c0,0.3,0,0.6,0,0.9c-0.2,2-0.4,4.1-0.6,6.1c-0.1,1-0.1,2,0.1,3c0.1,0.8,0.6,1.2,1.3,1.4c0.7,0.2,1.3-0.2,1.7-0.7
			c0.3-0.4,0.6-0.8,0.8-1.3c0.6-1.2,1.1-2.3,1.7-3.5c1.1-2.6,2.2-5.1,2.9-7.8c0.1-0.1,0.1-0.1,0.2-0.2c0,0.1,0,0.1,0.1,0.2
			c0.1,0.3-0.1,0.7,0.2,1c0,0,0,0,0,0c0,0.2,0,0.4,0,0.5c0,0,0,0,0,0c0,0,0,0,0,0c0,0.3-0.1,0.6-0.1,0.9c-0.3,2.9-0.7,5.8-1,8.7
			c0,0.4-0.1,0.8-0.3,1.1c0.1,0.1,0,0.2,0,0.3c0.2,0.9,0,1.7-0.2,2.5c-0.3,1.7-0.6,3.4-0.9,5.2c-0.4,2.5-0.3,5-0.5,7.5
			c0,0.7,0.1,1.5,0.2,2.2c0,0.3,0.2,0.5,0.5,0.5c0.2,0,0.2-0.3,0.2-0.5C113.5,44.6,113.5,44.3,113.5,44.1z"/>
		<path class="st3" d="M69.6,31.9c0.3,0.4,0.1,0.9,0.2,1.3c0.1,0.4,0.1,0.9,0.6,1.1l0,0c0,0.2,0.1,0.3,0.3,0.3
			c0.2,0.2,0.4,0.2,0.6,0.1c0.3,0.1,0.5,0.1,0.7-0.2l0,0c0.8-0.8,0.7-2,1.1-3c0.1-0.2-0.2-0.4-0.4-0.6c-0.2-0.1-0.4-0.1-0.6,0
			c-0.4,0.3-0.7,0.6-0.9,1.1c0,0.1,0,0.1-0.1,0.1c0,0,0-0.1,0.1-0.1c-0.1,0-0.1,0-0.2,0c0-0.3-0.1-0.6-0.1-1c0-0.2,0-0.4,0-0.5
			l0.1-0.1l0-0.1c0.3-0.4,0.6-0.8,0.2-1.3c0,0,0,0,0,0c0,0,0,0,0,0c0,0,0,0,0,0c0,0,0,0,0,0c-0.1-0.4-0.5-0.5-0.8-0.3
			c-0.1,0.1-0.2,0.2-0.4,0.2c0,0.1,0,0.2-0.1,0.2c-0.3,0.8-0.6,1.5-0.3,2.4C69.6,31.8,69.6,31.8,69.6,31.9z M71.1,32.3
			C71.1,32.3,71.1,32.3,71.1,32.3c-0.1,0-0.1,0-0.1-0.1C71.1,32.2,71.1,32.2,71.1,32.3C71.1,32.2,71.1,32.2,71.1,32.3
			C71.1,32.2,71.1,32.3,71.1,32.3z"/>
		<path class="st3" d="M158.4,34.2c-0.3,0-0.6-0.1-0.9-0.1c-0.6,0.3-1.3,0.2-1.9,0.3c-0.4,0-1.1,0.2-1.3-0.2c-0.2-0.5,0.4-0.7,0.7-1
			c0.5-0.5,1.1-0.9,1.6-1.3c0.2-0.2,0.5-0.4,0.8-0.3c0.2-0.2,0.4-0.2,0.7-0.2c0,0,0.1-0.1,0.1-0.1c0.4-0.4,0.7-0.8,0.3-1.3
			c-0.3-0.4-0.8-0.4-1.5,0c-1.4,0.9-2.6,1.9-3.7,3c-0.1,0.1-0.3,0.3-0.4,0.4c-0.7,0.9-0.5,1.7,0.5,2.2c0.7,0.4,1.5,0.3,2.2,0.3
			c0.5,0,1-0.3,1.5,0c0,0.4-0.2,0.6-0.4,0.8c-0.5,0.5-0.9,0.9-1.4,1.3c-0.7,0.7-1.5,1.4-2,2.2c-0.5,0.7-0.5,0.8,0.2,1.7
			c0.3-0.1,0.7-0.2,0.8-0.6c0.3-0.8,1-1.3,1.6-1.9c0.7-0.6,1.4-1.3,2-2c0.3-0.3,0.6-0.7,0.8-1.1C159.1,35.5,159.1,34.8,158.4,34.2z"
			/>
		<path class="st3" d="M140.5,36.2c-0.5,0.1-1,0.2-1.5,0.3c-0.6,0.1-1.2-0.1-1.6-0.8c0.6-0.3,1.1-0.5,1.7-0.7
			c1.2-0.7,2.1-1.6,1.9-3.1c0,0,0,0,0,0c-1.3-1.1-2.5-0.6-3.8,0.1c-0.4,0.2-0.5,0.6-0.4,0.9c0.2,0.4,0.5,0.4,0.9,0.5
			c0.3,0.1,0.6-0.3,0.9-0.1c-0.4,0.5-0.9,0.6-1.4,0.8c-0.4,0.1-0.8,0.2-1.1,0.4c-0.6,0.2-0.8,0.7-0.7,1.3c0.3,1.4,1.9,2.5,3.4,2.4
			c0.8,0,1.6-0.3,2.2-0.9c0.2-0.2,0.4-0.5,0.2-0.8C141,36.1,140.8,36.1,140.5,36.2z"/>
		<path class="st3" d="M150.8,36.3c-0.9,0-1.9,0-2.8,0.1c-0.9,0.1-1.8,0.2-2.7,0.2c-0.2-0.2-0.6-0.3-0.5-0.6c0-0.4,0.3-0.7,0.6-0.8
			c0.3-0.1,0.6-0.1,0.9-0.2c0.7-0.3,1.5-0.5,2.2-0.9c0.6-0.3,0.8-0.8,0.7-1.3c-0.1-0.4-0.6-0.8-1.2-0.8c-0.5,0-1.1,0-1.6,0.3
			c-0.6,0.3-1.1,0.7-1.7,1c-0.5,0.3-0.8,0.7-1,1.3c-0.3,0.1-0.4,0.3-0.4,0.6c0,0,0,0,0,0l0,0c-0.6,0.9-0.6,1.3,0.1,2.2c0,0,0,0,0,0
			l0,0c0.1,0.4,0.5,0.6,0.9,0.7c0.6,0.2,1.3,0.3,1.9,0.2c1.4-0.2,2.9-0.4,4.2-1c0.2-0.1,0.4-0.3,0.6-0.4c0.1-0.1,0.1-0.3,0-0.4
			C151,36.4,150.9,36.3,150.8,36.3z"/>
		<path class="st3" d="M133.4,31.8c-1.1-0.5-2.3-0.6-3.3,0.2c0,0,0,0,0,0l0,0c-0.2,0-0.4,0-0.6,0c-0.1-0.4-0.4-0.5-0.8-0.5
			c-0.4,0-0.6,0.3-0.7,0.7c-0.1,0.7-0.2,1.4-0.4,2c-0.1,0.4-0.3,0.8-0.4,1.3c-0.1,0.5,0.3,1,0.8,1.1c0.4,0.1,0.7-0.1,1-0.5
			c0.4-0.7,0.8-1.5,1.2-2.2c0.3-0.1,0.5-0.5,0.9-0.6c0,0,0,0.1,0,0.1s0-0.1,0-0.1c0.3-0.6,0.9-0.6,1.4-0.6c0.4,0,0.7-0.1,0.9-0.3
			C133.6,32.2,133.6,32,133.4,31.8z M129.5,32.1C129.5,32.1,129.5,32.1,129.5,32.1C129.5,32.1,129.5,32.1,129.5,32.1
			C129.5,32.1,129.5,32.1,129.5,32.1z"/>
		<path class="st3" d="M85.7,29.9c-0.1-0.2-0.3-0.4-0.5-0.6c-0.1,0-0.1-0.1-0.2-0.1c0,0,0-0.1,0-0.1l0,0c0-0.6,0-1.2-0.8-1.3
			c0,0-0.1,0-0.1,0c-0.2,0.2-0.6,0.1-0.8,0.4c0,0-0.1,0-0.1,0c0,0,0,0,0,0c-0.2,0-0.4,0.1-0.5,0.3c0,0-0.1,0.1-0.1,0.1
			c-0.1,0.1-0.2,0.1-0.3,0.2c-0.1,0.1-0.2,0.2-0.3,0.3c-0.2,0.4-0.4,0.9-0.2,1.4c0.1,0.1,0.1,0.1,0,0.2c0,0.2,0.1,0.4,0.2,0.6
			c0.1,0.1,0.3,0.2,0.4,0.3c0.1,0.1,0.2,0.1,0.3,0.2c0.1,0.1,0.3,0.2,0.4,0.3c0.1,0.1,0.2,0.1,0.3,0.1c0.3,0.1,0.6,0.1,0.9,0.1
			c0.1,0,0.2,0,0.4-0.1c0.2-0.1,0.4-0.2,0.5-0.2c0.1-0.1,0.2-0.2,0.3-0.3c0.2-0.4,0.3-0.9,0.2-1.4C85.8,30.1,85.8,30,85.7,29.9z
			 M84,30.7c-0.4-0.3-0.3-0.5,0.1-0.7C84.4,30.3,84.3,30.5,84,30.7z"/>
		<path class="st3" d="M78.7,29.6c0-0.2,0-0.5-0.2-0.6c-0.5-0.4-0.5-0.4-0.9-0.1l0,0l0,0c-0.5,0.2-0.4,0.7-0.6,1.1c0,0,0,0,0,0
			c-0.2-0.1-0.4-0.3-0.6-0.4c-1-0.3-1.7,0.2-1.8,1.2c-0.1,0.5-0.1,1.1,0.1,1.6c0.3,0.8,1.1,1.2,1.9,0.8c0.3-0.1,0.6-0.3,0.8-0.6
			c0-0.2,0-0.4,0.2-0.5c-0.1,0.2-0.1,0.3-0.2,0.5c0.3,0.2,0.2,0.5,0.2,0.8c0,4.2-1,8.1-2.5,12c-1,2.6-2.3,5-3.6,7.4
			c-1.3,2.2-2.9,4.2-4.8,5.9c-0.4,0.3-0.8,0.6-1.3,0.8c-0.8,0.4-1.6,0.6-2.4,0.8c0-0.5,0-1,0-1.5c0-0.4,0.1-0.9,0-1.3c0,0,0,0,0,0
			c0.1-0.1,0.1-0.2,0.1-0.4c0,0,0,0,0,0c0.2-0.1,0.2-0.3,0.1-0.5c0,0,0,0,0,0c0.2-0.5,0.2-0.9,0.1-1.4h0l0,0
			c0.2-0.6,0.2-1.2,0.2-1.8c0,0,0,0,0,0c0,0,0,0,0,0c0.1-0.4,0.2-0.9,0.2-1.3c0.7-5.5,1.4-11.1,2-16.6l0,0c0.2-0.2,0.4-0.3,0.7-0.5
			l0,0l0,0c0.5-0.5,0.5-0.6,0-0.9c-0.1-0.1-0.2-0.1-0.4-0.1c0.2-1.6,0.4-3.3,0.6-4.9c0.2-1.4,0.5-2.8,0.5-4.2
			c0.1-2.3,0.4-4.5,0.6-6.7c0.1-1,0.3-2.1,0.2-3.1c0-0.1,0.1-0.3,0.1-0.4C68.4,11,68.8,7.5,69.4,4c0.1-0.5,0.2-1.1,0.2-1.6
			c0-0.5-0.3-1-0.7-1c-0.4,0-0.5,0.4-0.6,0.8c-0.2,1.2-0.3,2.5-0.5,3.7c-0.1,0.7-0.3,1.5-0.3,2.2c-0.1,1.5-0.1,3-0.2,4.5
			c0,0,0,0,0,0c0,0,0,0,0,0c-0.2,1.2-0.3,2.4-0.5,3.6c0.1,0.1,0.1,0.2,0,0.2c0.1,0,0.1,0.1,0.2,0.1c0.1-0.1,0.1-0.1,0.2-0.2
			c0,0,0,0,0,0c0,0.1-0.1,0.1-0.2,0.2c-0.1,0.4-0.1,0.8-0.1,1.2c-0.4,1.8-0.5,3.7-0.7,5.5c-0.1,1-0.3,2-0.3,3
			c-0.1,1.2-0.2,2.5-0.4,3.7c-0.2,1.4-0.3,2.9-0.5,4.3c-0.2,0.3-0.5,0.4-0.8,0.6c-1.3,0.7-2.3,1.7-3,3c-0.6,1.2-1.1,2.4-1.6,3.6
			c-1,2.5-1.8,5-2.5,7.5l0,0c-0.3,0.2-0.4,0.5-0.4,0.9c0,0,0,0,0,0l0,0c-0.4,0.3-0.4,0.7-0.4,1.2l0,0c-0.1,0.1-0.3,0.4-0.4,0.4
			c-0.4,0-0.3-0.3-0.3-0.5c-0.1-0.3-0.1-0.6-0.1-0.9c0.3-2,0.6-4,0.9-5.9c0,0,0,0,0,0c0,0,0,0,0,0c0,0,0,0,0,0c0,0,0,0,0,0
			c0.1-0.1,0.2-0.2,0.2-0.4c0.3-2.2,0.9-4.3,1.3-6.4c0.5-2.5,1.2-4.9,1.6-7.5c0.1-0.6,0.3-1.3,0.4-1.9c0.1-0.5,0.2-1.1,0.3-1.6
			c0.2-0.7,0.4-1.4,0.4-2.1c0.2-0.2,0.3-0.4,0.1-0.7c0,0,0,0,0,0c0-0.1,0-0.3,0-0.4c0.6-2,0.9-4.1,0.8-6.2c0,0,0,0,0,0c0,0,0,0,0,0
			c0.5-1.9,0.4-3.8,0.8-5.7c0-0.1,0-0.2-0.1-0.3c-0.1-0.2-0.3-0.2-0.5-0.2l0,0l0,0c0,0,0,0,0,0c0,0,0,0,0,0
			c-0.4,0.1-0.4,0.5-0.4,0.9c-0.4,3.1-0.9,6.2-1.3,9.4c-0.3,1.9-0.5,3.9-0.9,5.8c-0.5,2-0.9,4-1.3,6c-0.4,1.8-0.8,3.6-1.3,5.4
			c-0.5,2.1-1.1,4.2-1.2,6.3c0,0,0,0,0,0c0,0,0,0,0,0c-0.1,0.2-0.2,0.4-0.1,0.6c-0.1,0.3-0.1,0.6-0.1,0.9c0,0.1-0.1,0.2-0.1,0.3
			c0.1,1.2-0.6,2.4-0.5,3.6c0,0.2,0,0.4,0,0.6c-0.1,0.6-0.3,1.2,0,1.8c0,0.5,0.3,0.7,0.7,0.8c0.4,0.1,0.9,0,1.2-0.4
			c0.3-0.4,0.7-0.7,0.7-1.3c0.3-0.3,0.4-0.7,0.4-1.2c0-0.2,0.1-0.3,0.1-0.5c0,0,0,0,0,0c0,0,0,0,0,0c0.1-0.2,0.3-0.4,0.3-0.7
			c0.4-1.1,0.7-2.2,1.1-3.3c0.8-2.3,1.6-4.5,2.7-6.7c0.6-1.3,1.4-2.4,2.6-3.2c0.1,0,0.2,0,0.3,0.1c-0.1,0.7-0.2,1.5-0.2,2.2
			c-0.1,0.8-0.3,1.6-0.3,2.4c-0.2,2.7-0.7,5.3-0.8,8c0,0.2-0.1,0.4-0.1,0.6c-0.3,0.6-0.2,1.2-0.2,1.8c0,0.1,0,0.2,0,0.3
			c-0.1,0.4-0.2,0.8-0.2,1.2c0,0.1,0,0.2-0.1,0.3c0,0.1,0,0.2,0,0.3l0,0c-0.1,0.3-0.2,0.6-0.1,0.9c0,0,0,0,0,0
			c-0.1,0.6-0.2,1.3-0.3,1.9c-0.3,1.5-0.3,3.1-0.6,4.7c-0.4,0-0.9-0.1-1.3,0.1c0,0,0,0,0,0c-0.1-0.1-0.1-0.1-0.2,0
			c-0.1,0-0.2,0-0.3,0c-0.2,0-0.4,0-0.6-0.1c-0.8-0.2-1.6-0.3-2.4-0.5c-2.5-0.6-4.7-1.5-7-2.6c-0.9-0.4-1.6-1.1-2.5-1.7
			c-0.2-0.2-0.4-0.5-0.5-0.7c-0.3-0.5-0.2-0.8,0.2-1.2c0.3-0.3,0.7-0.6,1.2-0.6c0.5,0,1.1-0.1,1.6-0.1c0.2,0,0.5,0,0.7,0
			c0.1,0,0.2-0.1,0.2-0.2c0-0.1,0-0.2-0.1-0.3c-0.1-0.1-0.2-0.2-0.4-0.3c-1.2-0.4-2.5-0.5-3.7,0.1c-1.4,0.7-1.6,1.7-1,3
			c0.1,0.1,0.2,0.2,0.3,0.4c0.5,0.7,1.2,1.4,2,1.8c3,1.6,6.1,3.1,9.5,3.7c1.1,0.2,2.2,0.5,3.3,0.3c0.1,0,0.2,0,0.2,0
			c0.2,0,0.3,0,0.5,0c0.1,0,0.2,0.1,0.2,0.1c0,0.3,0,0.6,0,0.8c0,0.2,0,0.5,0.1,0.7l0,0c-0.1,0.7-0.2,1.3,0,2c0,0,0,0,0,0
			c0,0,0,0,0,0c-0.1,0.3-0.1,0.5,0,0.8c0,0.1,0,0.2,0.2,0.3l0,0c0.1,0.3,0.3,0.4,0.5,0.1h0l0,0c0.1,0,0.2,0,0.2,0
			c0-0.1,0-0.2-0.1-0.3c0-0.1,0-0.2-0.1-0.3l0-0.1l-0.1-0.1c0.1-0.4,0.1-0.7-0.1-1c0,0,0,0,0,0c0-0.3,0-0.5,0-0.8
			c0-0.4,0.2-0.9,0.1-1.3c0-0.6,0.4-0.8,0.8-1c1.2-0.1,2.2-0.6,3.2-1.2c1.2-0.9,2.2-1.8,3.1-3c3.1-4.2,5.4-8.8,7.1-13.7
			c1.2-3.6,1.9-7.3,1.8-11.1C78.9,31.4,79,30.5,78.7,29.6z M76.1,31.4c0,0,0-0.1,0-0.1c0,0,0.1,0,0.1,0c0,0,0,0.1,0,0.1
			C76.2,31.5,76.1,31.5,76.1,31.4z M65.7,35.5c0,0-0.1,0.1-0.1,0.1C65.6,35.5,65.7,35.5,65.7,35.5z"/>
		<path class="st3" d="M122.4,31.4c-1.1,0.2-2,0.6-2.4,1.8c-0.1,0.4-0.2,0.8-0.3,1.1c0,0.4-0.1,0.8,0,1.2c0.1,1.1,1,1.7,2.1,1.4
			c0.4-0.1,0.7-0.3,1-0.6c1.1-1.3,1.3-2.9,0.4-4.5C123,31.5,122.7,31.3,122.4,31.4z M121.8,35c-0.1,0.1-0.3,0.1-0.4,0.1
			c-0.2,0-0.2-0.2-0.2-0.3c0-0.1,0-0.2,0-0.3c0.1-0.4,0.1-1,0.7-1.1c0.1,0,0.3-0.1,0.4,0.1C122.3,34,122.3,34.6,121.8,35z"/>
	</g>
</g>
</svg>
