<?xml version="1.0" encoding="utf-8"?>
<!-- Generator: Adobe Illustrator 27.8.0, SVG Export Plug-In . SVG Version: 6.00 Build 0)  -->
<svg version="1.1" id="Camada_1" xmlns="http://www.w3.org/2000/svg" xmlns:xlink="http://www.w3.org/1999/xlink" x="0px" y="0px"
	 viewBox="0 0 1000 700" style="enable-background:new 0 0 1000 700;" xml:space="preserve">
<style type="text/css">
	.st0{fill:#ECECEC;}
	.st1{fill:#F5F5F5;}
	.st2{fill:#FAFAFA;}
	.st3{fill:#E1E1E1;}
	.st4{fill:#FFFFFF;}
	.st5{fill:#1A2E35;}
	.st6{fill:#375A64;}
	.st7{opacity:0.3;enable-background:new    ;}
	.st8{fill:#FFC19D;}
	.st9{fill:#FF9C6A;}
	.st10{opacity:0.6;}
	.st11{opacity:0.3;}
	.st12{fill:#1C1B1B;}
	.st13{fill:none;stroke:#44555B;stroke-width:5.000000e-02;stroke-miterlimit:10;}
</style>
<g id="Camada_2_00000182506470525299426700000004221441341249816448_">
</g>
<g>
	<g>
		<g>
			<g>
				<g>
					<g>
						<g>
							<rect x="209.6" y="424" class="st0" width="72.1" height="41.8"/>
						</g>
					</g>
				</g>
			</g>
		</g>
		<g>
			<g>
				<g>
					<g>
						<g>
							<g>
								<rect x="192.9" y="549.4" class="st1" width="89.9" height="33"/>
							</g>
						</g>
					</g>
				</g>
			</g>
			<g>
				<g>
					<g>
						<g>
							<g>
								<g>
									<path class="st2" d="M199.4,582.9c0.3,0,0.5-7.5,0.5-16.9c0-9.3-0.2-16.9-0.5-16.9s-0.5,7.5-0.5,16.9
										C198.9,575.3,199.1,582.9,199.4,582.9z"/>
								</g>
							</g>
						</g>
					</g>
				</g>
			</g>
			<g>
				<g>
					<g>
						<g>
							<g>
								<g>
									<path class="st2" d="M203.6,581c0.3,0,0.5-7.1,0.5-15.9c0-8.8-0.2-15.9-0.5-15.9s-0.5,7.1-0.5,15.9S203.4,581,203.6,581z"
										/>
								</g>
							</g>
						</g>
					</g>
				</g>
			</g>
			<g>
				<g>
					<g>
						<g>
							<g>
								<g>
									<path class="st2" d="M265.1,566.9c0-0.3-11.9-0.5-26.6-0.5c-14.7,0-26.6,0.2-26.6,0.5s11.9,0.5,26.6,0.5
										C253.2,567.4,265.1,567.2,265.1,566.9z"/>
								</g>
							</g>
						</g>
					</g>
				</g>
			</g>
			<g>
				<g>
					<g>
						<g>
							<g>
								<g>
									<path class="st2" d="M273.3,582.5c0.3,0,0.5-7.2,0.5-16.2c0-8.9-0.2-16.2-0.5-16.2s-0.5,7.2-0.5,16.2
										C272.8,575.2,273,582.5,273.3,582.5z"/>
								</g>
							</g>
						</g>
					</g>
				</g>
			</g>
			<g>
				<g>
					<g>
						<g>
							<g>
								<g>
									<path class="st2" d="M277.2,582.5c0.3,0,0.5-7.4,0.5-16.6c0-9.2-0.2-16.6-0.5-16.6s-0.5,7.4-0.5,16.6
										S276.9,582.5,277.2,582.5z"/>
								</g>
							</g>
						</g>
					</g>
				</g>
			</g>
		</g>
		<g>
			<g>
				<g>
					<g>
						<g>
							<g>
								<rect x="183.1" y="522.9" class="st3" width="99.7" height="26.5"/>
							</g>
						</g>
					</g>
				</g>
			</g>
			<g>
				<g>
					<g>
						<g>
							<g>
								<g>
									<path class="st2" d="M228.9,549.7c0.1,0.1,1.4-1.3,3.4-3.7s4.7-5.7,7.5-9.4s5.3-7.2,7.1-9.7c1.7-2.5,2.7-4.2,2.6-4.3
										c-0.1-0.1-1.3,1.4-3.2,3.8c-2.1,2.7-4.5,6-7.3,9.6c-2.7,3.6-5.2,6.8-7.3,9.6C229.9,548,228.8,549.6,228.9,549.7z"/>
								</g>
							</g>
						</g>
					</g>
				</g>
			</g>
			<g>
				<g>
					<g>
						<g>
							<g>
								<g>
									<path class="st2" d="M213.3,549.8c0.2,0.2,5.5-5.6,11.7-12.9c6.3-7.3,11.2-13.4,11-13.6c-0.2-0.2-5.5,5.6-11.7,12.9
										C218,543.5,213.1,549.6,213.3,549.8z"/>
								</g>
							</g>
						</g>
					</g>
				</g>
			</g>
		</g>
		<g>
			<g>
				<g>
					<g>
						<g>
							<g>
								<g>
									<g>
										<g>
											<g>
												<rect x="187.9" y="652.1" class="st3" width="95" height="12.7"/>
											</g>
										</g>
									</g>
								</g>
							</g>
						</g>
					</g>
				</g>
				<g>
					<g>
						<g>
							<g>
								<g>
									<g>
										<g>
											<g>
												<g>
													<path class="st2" d="M200.9,664.2c0.3,0,0.6-2.7,0.6-5.9c0-3.3-0.3-5.9-0.6-5.9s-0.6,2.7-0.6,5.9
														C200.3,661.6,200.5,664.2,200.9,664.2z"/>
												</g>
											</g>
										</g>
									</g>
								</g>
							</g>
						</g>
					</g>
				</g>
				<g>
					<g>
						<g>
							<g>
								<g>
									<g>
										<g>
											<g>
												<g>
													<path class="st2" d="M198.8,664.5c0.3,0,0.6-2.7,0.6-5.9c0-3.3-0.3-5.9-0.6-5.9s-0.6,2.7-0.6,5.9
														S198.5,664.5,198.8,664.5z"/>
												</g>
											</g>
										</g>
									</g>
								</g>
							</g>
						</g>
					</g>
				</g>
				<g>
					<g>
						<g>
							<g>
								<g>
									<g>
										<g>
											<g>
												<g>
													<path class="st2" d="M275.6,664.2c0.3,0,0.6-2.7,0.6-5.9c0-3.3-0.3-5.9-0.6-5.9c-0.3,0-0.6,2.7-0.6,5.9
														C275,661.6,275.2,664.2,275.6,664.2z"/>
												</g>
											</g>
										</g>
									</g>
								</g>
							</g>
						</g>
					</g>
				</g>
				<g>
					<g>
						<g>
							<g>
								<g>
									<g>
										<g>
											<g>
												<g>
													<path class="st2" d="M273.5,664.5c0.3,0,0.6-2.7,0.6-5.9c0-3.3-0.3-5.9-0.6-5.9c-0.3,0-0.6,2.7-0.6,5.9
														S273.2,664.5,273.5,664.5z"/>
												</g>
											</g>
										</g>
									</g>
								</g>
							</g>
						</g>
					</g>
				</g>
				<g>
					<g>
						<g>
							<g>
								<g>
									<g>
										<g>
											<g>
												<g>
													<path class="st2" d="M261.1,658c0-0.3-10.9-0.6-24.3-0.6c-13.4,0-24.3,0.3-24.3,0.6s10.9,0.6,24.3,0.6
														C250.2,658.6,261.1,658.3,261.1,658z"/>
												</g>
											</g>
										</g>
									</g>
								</g>
							</g>
						</g>
					</g>
				</g>
			</g>
			<g>
				<g>
					<g>
						<g>
							<g>
								<g>
									<g>
										<g>
											<g>
												<rect x="187.3" y="582.5" class="st3" width="95" height="25.4"/>
											</g>
										</g>
									</g>
								</g>
							</g>
						</g>
					</g>
				</g>
				<g>
					<g>
						<g>
							<g>
								<g>
									<g>
										<g>
											<g>
												<g>
													<path class="st2" d="M283.5,589.7c0,0-0.2-0.1-0.5-0.3s-0.9-0.4-1.6-0.7c-1.4-0.6-3.5-1.4-6.4-1.8
														c-2.8-0.4-6.7-0.5-10.4,1.5c-1.9,1-3.6,2.5-5,4.5c-1.3,2-2.2,4.6-1.7,7.3c0.2,1.3,0.8,2.7,1.7,3.8
														c0.9,1.1,2.4,1.9,4,1.8c1.6-0.1,3-1,4-2.2s1.7-2.7,1.8-4.3c0.4-3.2-1-6.6-3.3-9c-2.3-2.5-5.6-4.1-9.1-4.5
														s-7.1,0.1-10.6,1.3c-3.4,1.2-6.8,3.1-9.3,6.2c-1.2,1.5-2,3.5-2.2,5.5s0.5,4.2,2,5.7c0.8,0.8,1.9,1.3,3,1.3
														c1.1,0.1,2.2-0.3,3.1-0.9c1.8-1.1,3-3.1,3.5-5.1c0.9-4.1-0.7-8.5-3.7-11.2s-6.9-3.9-10.7-4.4
														c-3.8-0.4-7.6-0.1-11.1,1.1c-3.5,1.2-6.6,3.5-8.4,6.6c-1.8,3-2.4,6.9-1.1,10.1c0.6,1.6,2.1,3,3.9,3.3
														c1.7,0.3,3.5-0.2,4.8-1.2c2.7-2.1,3.1-5.8,2.3-8.5c-0.9-2.9-2.8-5-4.8-6.7c-4.1-3.4-8.9-4.9-13-5.1
														c-4.2-0.1-7.7,1-10.3,2.3c-2.6,1.4-4.3,2.9-5.4,4c-0.5,0.6-0.9,1-1.1,1.3c-0.2,0.3-0.4,0.5-0.3,0.5
														c0.1,0.2,1.9-2.8,7.1-5.4c2.6-1.2,6-2.3,10.1-2.1c4,0.2,8.6,1.7,12.5,5c1.9,1.7,3.7,3.8,4.5,6.4c0.8,2.5,0.3,5.8-2,7.5
														c-1.1,0.8-2.6,1.2-4,0.9c-1.4-0.2-2.5-1.3-3.1-2.7c-1.2-2.8-0.7-6.3,1-9.1s4.6-4.9,7.9-6c3.3-1.1,7-1.4,10.6-1
														s7.3,1.6,10,4.1c2.7,2.4,4.2,6.4,3.4,10c-0.4,1.8-1.4,3.4-3,4.4c-1.5,1-3.4,1-4.6-0.3c-1.2-1.2-1.8-3-1.7-4.8
														s0.8-3.4,1.9-4.9c2.2-2.8,5.4-4.7,8.7-5.8s6.8-1.7,10.1-1.3s6.4,1.8,8.5,4.1c2.1,2.2,3.4,5.3,3.1,8.2
														c-0.2,2.8-2.4,5.5-4.9,5.7c-1.3,0.1-2.5-0.5-3.3-1.5c-0.8-0.9-1.4-2.1-1.6-3.3c-0.4-2.4,0.3-4.9,1.5-6.8
														c1.2-1.9,2.9-3.4,4.6-4.3c3.5-2,7.3-1.9,10.1-1.6c2.8,0.4,5,1.1,6.4,1.6C282.7,589.4,283.5,589.7,283.5,589.7z"/>
												</g>
											</g>
										</g>
									</g>
								</g>
							</g>
						</g>
					</g>
				</g>
			</g>
			<g>
				<g>
					<g>
						<g>
							<g>
								<g>
									<g>
										<g>
											<g>
												<rect x="195.8" y="608.3" class="st0" width="86.5" height="44"/>
											</g>
										</g>
									</g>
								</g>
							</g>
						</g>
					</g>
				</g>
				<g>
					<g>
						<g>
							<g>
								<g>
									<g>
										<g>
											<g>
												<g>
													<path class="st3" d="M210.2,650.8c0.3,0,0.6-9.5,0.6-21.3s-0.3-21.3-0.6-21.3s-0.6,9.5-0.6,21.3
														C209.6,641.2,209.9,650.8,210.2,650.8z"/>
												</g>
											</g>
										</g>
									</g>
								</g>
							</g>
						</g>
					</g>
				</g>
				<g>
					<g>
						<g>
							<g>
								<g>
									<g>
										<g>
											<g>
												<g>
													<path class="st3" d="M216.8,651.3c0.3,0,0.6-9.4,0.6-21s-0.3-21-0.6-21s-0.6,9.4-0.6,21
														C216.2,641.9,216.4,651.3,216.8,651.3z"/>
												</g>
											</g>
										</g>
									</g>
								</g>
							</g>
						</g>
					</g>
				</g>
				<g>
					<g>
						<g>
							<g>
								<g>
									<g>
										<g>
											<g>
												<g>
													<path class="st3" d="M272.6,652.7c0.3,0,0.6-9.9,0.6-22.1c0-12.2-0.3-22.1-0.6-22.1c-0.3,0-0.6,9.9-0.6,22.1
														S272.2,652.7,272.6,652.7z"/>
												</g>
											</g>
										</g>
									</g>
								</g>
							</g>
						</g>
					</g>
				</g>
				<g>
					<g>
						<g>
							<g>
								<g>
									<g>
										<g>
											<g>
												<g>
													<path class="st3" d="M264.8,652.1c0.3,0,0.6-9.7,0.6-21.6c0-11.9-0.3-21.6-0.6-21.6s-0.6,9.7-0.6,21.6
														C264.2,642.5,264.5,652.1,264.8,652.1z"/>
												</g>
											</g>
										</g>
									</g>
								</g>
							</g>
						</g>
					</g>
				</g>
			</g>
		</g>
		<g>
			<g>
				<g>
					<g>
						<g>
							<g>
								<g>
									<g>
										<g>
											<rect x="186.7" y="497.6" class="st0" width="95" height="25.4"/>
										</g>
									</g>
								</g>
							</g>
						</g>
					</g>
				</g>
			</g>
			<g>
				<g>
					<g>
						<g>
							<g>
								<g>
									<g>
										<g>
											<g>
												<path class="st2" d="M282.9,504.8c0,0-0.2-0.1-0.5-0.3c-0.3-0.2-0.9-0.4-1.6-0.7c-1.4-0.6-3.5-1.4-6.4-1.8
													c-2.8-0.4-6.7-0.5-10.4,1.5c-1.9,1-3.6,2.5-5,4.5c-1.3,2-2.2,4.6-1.7,7.3c0.2,1.3,0.8,2.7,1.7,3.8
													c0.9,1.1,2.4,1.9,4,1.8c1.6-0.1,3-1,4-2.2s1.7-2.7,1.8-4.3c0.4-3.2-1-6.6-3.3-9c-2.3-2.5-5.6-4.1-9.1-4.5
													s-7.1,0.1-10.6,1.3c-3.4,1.2-6.9,3.1-9.3,6.2c-1.2,1.5-2,3.5-2.2,5.5s0.5,4.2,2,5.7c0.8,0.8,1.9,1.3,3,1.3
													c1.1,0.1,2.2-0.3,3.1-0.9c1.8-1.1,3-3.1,3.5-5.1c0.9-4.1-0.7-8.5-3.7-11.2s-6.9-3.9-10.7-4.4c-3.8-0.4-7.6-0.1-11.1,1.1
													s-6.6,3.5-8.4,6.6c-1.8,3-2.4,6.9-1.1,10.1c0.6,1.6,2.1,3,3.9,3.3c1.7,0.3,3.5-0.2,4.8-1.2c2.7-2.1,3.1-5.8,2.3-8.5
													c-0.9-2.9-2.8-5-4.8-6.7c-4.1-3.4-8.9-4.9-13-5.1c-4.2-0.1-7.7,1-10.3,2.3c-2.6,1.4-4.3,2.9-5.4,4
													c-0.5,0.6-0.9,1-1.1,1.3c-0.2,0.3-0.4,0.5-0.3,0.5c0.1,0.2,1.9-2.8,7.1-5.4c2.6-1.2,6-2.3,10.1-2.1
													c4,0.2,8.6,1.7,12.5,5c1.9,1.7,3.7,3.8,4.5,6.4c0.8,2.5,0.3,5.8-2,7.5c-1.1,0.8-2.6,1.2-4,0.9c-1.4-0.2-2.5-1.3-3.1-2.7
													c-1.2-2.8-0.7-6.3,1-9.1c1.7-2.8,4.6-4.9,7.9-6c3.3-1.1,7-1.4,10.6-1s7.3,1.6,10,4.1c2.7,2.4,4.2,6.4,3.4,10
													c-0.4,1.8-1.4,3.4-3,4.4c-1.5,1-3.4,1-4.6-0.3c-1.2-1.2-1.8-3-1.7-4.8s0.8-3.4,1.9-4.9c2.2-2.8,5.4-4.7,8.7-5.8
													c3.3-1.1,6.8-1.7,10.1-1.3c3.3,0.4,6.4,1.8,8.5,4.1c2.1,2.2,3.4,5.3,3.1,8.2c-0.2,2.8-2.4,5.5-4.9,5.7
													c-1.3,0.1-2.5-0.5-3.3-1.5c-0.8-0.9-1.4-2.1-1.6-3.3c-0.4-2.4,0.3-4.9,1.5-6.8s2.9-3.4,4.6-4.3c3.5-2,7.3-1.9,10.1-1.6
													c2.8,0.4,5,1.1,6.4,1.6C282.1,504.5,282.9,504.8,282.9,504.8z"/>
											</g>
										</g>
									</g>
								</g>
							</g>
						</g>
					</g>
				</g>
			</g>
		</g>
		<g>
			<g>
				<g>
					<g>
						<g>
							<rect x="181.9" y="664.7" class="st1" width="132.3" height="35.3"/>
						</g>
					</g>
				</g>
			</g>
		</g>
		<g>
			<g>
				<g>
					<g>
						<g>
							<rect x="192.9" y="464.7" class="st3" width="88.8" height="33"/>
						</g>
					</g>
				</g>
			</g>
		</g>
		<g>
			<g>
				<g>
					<g>
						<g>
							<g>
								<path class="st2" d="M237.2,463.8c0,0,0.6-0.3,1.4-1.1c0.8-0.8,2-2,2.9-3.8c1-1.8,1.9-4.1,2.1-6.9c0.3-2.7-0.1-5.8-1.4-8.7
									c-1.2-2.9-2.8-5.4-3.7-7.8s-1.2-4.8-0.8-6.7c0.4-1.9,1.3-3.3,2.1-4c0.8-0.8,1.4-1,1.3-1.1c0,0-0.7,0.1-1.6,0.8
									c-0.9,0.7-2,2.1-2.5,4.2c-0.5,2-0.3,4.6,0.7,7.2c0.9,2.6,2.4,5.1,3.6,7.9c1.2,2.8,1.6,5.6,1.4,8.2c-0.2,2.6-1,4.9-1.8,6.6
									C239.1,462.1,237,463.7,237.2,463.8z"/>
							</g>
						</g>
					</g>
				</g>
			</g>
		</g>
		<g>
			<g>
				<g>
					<g>
						<g>
							<g>
								<path class="st2" d="M246,464.6c0,0,0.6-0.3,1.4-1.1c0.8-0.8,2-2,2.9-3.8c1-1.8,1.9-4.1,2.1-6.9c0.3-2.7-0.1-5.8-1.4-8.7
									c-1.2-2.9-2.8-5.4-3.7-7.8s-1.2-4.8-0.8-6.7c0.4-1.9,1.3-3.3,2.1-4c0.8-0.8,1.4-1,1.3-1.1c0,0-0.7,0.1-1.6,0.8
									c-0.9,0.7-2,2.1-2.5,4.2c-0.5,2-0.3,4.6,0.7,7.2c0.9,2.6,2.4,5.1,3.6,7.9c1.2,2.8,1.6,5.6,1.4,8.2c-0.2,2.6-1,4.9-1.8,6.6
									C247.9,462.9,245.8,464.4,246,464.6z"/>
							</g>
						</g>
					</g>
				</g>
			</g>
		</g>
		<g>
			<g>
				<g>
					<g>
						<g>
							<g>
								<path class="st2" d="M217.5,464c0.3,0,0.5-9.1,0.5-20.3c0-11.2-0.2-20.3-0.5-20.3s-0.5,9.1-0.5,20.3S217.2,464,217.5,464z"
									/>
							</g>
						</g>
					</g>
				</g>
			</g>
		</g>
		<g>
			<g>
				<g>
					<g>
						<g>
							<g>
								<path class="st2" d="M207.2,479c0,0-0.3,0.1-0.6,0.6s-0.5,1.4-0.3,2.4s0.8,2.3,2.2,2.9c1.4,0.7,3.2,0.2,4.3-1s1.6-3,0.8-4.4
									c-0.7-1.3-2-1.9-3-2s-1.9,0.1-2.4,0.4s-0.6,0.6-0.6,0.6c0.1,0.2,1.1-0.8,2.9-0.4c0.8,0.2,1.8,0.8,2.3,1.8s0.2,2.3-0.7,3.3
									c-0.9,0.9-2.2,1.3-3.2,0.8c-1-0.4-1.6-1.4-1.8-2.2C206.4,480.1,207.3,479,207.2,479z"/>
							</g>
						</g>
					</g>
				</g>
			</g>
		</g>
		<g>
			<g>
				<g>
					<g>
						<g>
							<g>
								<path class="st2" d="M272.8,481.1c0-0.3-12.4-0.5-27.8-0.5s-27.8,0.2-27.8,0.5s12.4,0.5,27.8,0.5
									C260.3,481.6,272.8,481.4,272.8,481.1z"/>
							</g>
						</g>
					</g>
				</g>
			</g>
		</g>
	</g>
	<g>
		<g>
			<g>
				<g>
					<rect x="822.1" y="23.3" class="st3" width="144.2" height="238.6"/>
				</g>
			</g>
		</g>
		<g>
			<g>
				<g>
					<rect x="817.3" y="23.3" class="st0" width="144.2" height="238.6"/>
				</g>
			</g>
		</g>
		<g>
			<g>
				<g>
					<rect x="823.4" y="28.1" class="st4" width="131.9" height="229"/>
				</g>
			</g>
		</g>
		<g>
			<g>
				<g>
					<g>
						<rect x="848.5" y="57.9" class="st0" width="81.1" height="169.5"/>
					</g>
				</g>
			</g>
			<g>
				<g>
					<g>
						<path class="st3" d="M848.5,167.4c-0.2-15.8,14-31.3,29.7-33.5c7.5-1.1,15.4,0.4,22.4-2.4c12.5-5.1,16.4-21.7,29-26.6
							l0.6,122.5h-81.7V167.4z"/>
					</g>
				</g>
			</g>
		</g>
	</g>
	<g>
		<g>
			<g>
				<g>
					<g>
						<path class="st3" d="M772.6,555.7c-6.6-4.2-14.2-6.8-22-7.6c-3.6-0.4-7.5-0.3-10.4,1.9c-0.6,0.5-1.2,1.1-1.1,1.9
							c0.1,0.6,0.6,1,1,1.3C749,560.1,762.6,560.9,772.6,555.7"/>
					</g>
				</g>
			</g>
			<g>
				<g>
					<g>
						<path class="st3" d="M772,555.1c-5-3.9-10-7.8-14.2-12.5s-7.7-10.3-8.9-16.5c-0.4-1.9-0.5-4,0.7-5.5
							C760.9,529.4,769.8,540.8,772,555.1"/>
					</g>
				</g>
			</g>
			<g>
				<g>
					<g>
						<path class="st3" d="M772.4,555.6c-0.9-6.2-1.2-12.6,0.3-18.7c1.4-6.1,4.7-11.9,10-15.4c2,4.6,1.1,9.9-0.3,14.6
							c-2.1,7.4-5.5,14.4-9.9,20.8"/>
					</g>
				</g>
			</g>
			<g>
				<g>
					<g>
						<path class="st3" d="M783.6,575.5c-6.8,0.8-12.6,4.4-17.7,8.9c-5,4.6-8.6,10.7-10.1,17.4c6.6-0.4,12.2-5.1,16.3-10.3
							s6.9-11,11.4-15.9"/>
					</g>
				</g>
			</g>
			<g>
				<g>
					<g>
						<path class="st3" d="M786,578.7c-5.4-13.4-3.5-29.5,5-41.2C794.9,551.2,793.4,566.6,786,578.7"/>
					</g>
				</g>
			</g>
			<g>
				<g>
					<g>
						<path class="st3" d="M800.7,596.2c-6.1-0.4-12.4,1.1-17.7,4.1c-5.3,3.1-9.7,7.7-12.5,13.2c-0.4,0.7-0.7,1.7-0.2,2.4
							c0.4,0.6,1.3,0.6,2,0.6c5.9-0.4,11.2-4,15.5-8C792.1,604.4,795.9,599.7,800.7,596.2"/>
					</g>
				</g>
			</g>
			<g>
				<g>
					<g>
						<path class="st3" d="M800.2,595.3c-3.2-10.1-3.4-21.1-0.6-31.4c1.1-4,3-8.3,6.7-10.2c0.3-0.2,0.7-0.3,1-0.2s0.5,0.4,0.6,0.7
							c1.3,2.8,1.7,5.9,1.6,9c-0.1,3.1-0.8,6.1-1.4,9.1c-1.2,5.6-1.8,11.5-4.9,16.3c-0.7,1.1-1.4,2.4-1.9,3.6
							c-0.6,1.2-0.6,1.6-1.1,2.6"/>
					</g>
				</g>
			</g>
			<g>
				<g>
					<g>
						<path class="st3" d="M839.1,601c-2.9-11,0.2-24.3,7.1-33.2c0.5-0.7,1.2-1.4,2-1.3c1.3,0.1,1.6,1.8,1.5,3.1
							C849.2,580.8,845.5,591.8,839.1,601"/>
					</g>
				</g>
			</g>
			<g>
				<g>
					<g>
						<path class="st3" d="M842.6,603.4c13.3,3.5,28.6,0.1,39.7-8.1c-6.6-3.3-14.3-4.3-21.5-2.6
							C853.6,594.4,847.1,597.6,842.6,603.4"/>
					</g>
				</g>
			</g>
			<g>
				<g>
					<g>
						<path class="st3" d="M845.6,596.1c7.5-12.2,21.8-20.1,36-20.8c-1.6,5.8-6.4,10.3-11.8,13c-5.4,2.7-11.4,3.9-17.3,5.1
							C850.2,593.9,847,594.3,845.6,596.1"/>
					</g>
				</g>
			</g>
			<g>
				<g>
					<g>
						<path class="st3" d="M839.8,560.7c2-6.9,4.1-13.9,4.6-21.1c0.6-7.2-0.5-14.7-4.2-20.9c-7,13.5-7.7,29.2-0.6,42.7"/>
					</g>
				</g>
			</g>
			<g>
				<g>
					<g>
						<path class="st3" d="M863.3,548.9c8.1-14.8,24.8-26.6,41.6-28.3C898.4,536.7,880.7,549.2,863.3,548.9"/>
					</g>
				</g>
			</g>
			<g>
				<g>
					<g>
						<path class="st3" d="M858.2,551.8c12.2,1.9,22.5,9.6,33.9,14.3c2.4,1,5,1.8,7.7,1.5c2.6-0.3,5.2-2.1,5.8-4.7
							c0.5-2.1-0.5-4.4-2-5.9c-1.5-1.6-3.5-2.5-5.6-3.4c-12.4-5.1-25.6-5.3-38.7-2.2"/>
					</g>
				</g>
			</g>
			<g>
				<g>
					<g>
						<path class="st3" d="M851.1,560.3c2.8,0.8,3.7,2.2,5.9,4.1c7.4,6.3,16.3,10.8,25.7,13.2c1,0.2,2.3,0.3,2.8-0.5
							c0.4-0.8-0.1-1.7-0.7-2.4c-3.9-4.9-9.6-8.3-15.5-10.5s-11.1-4.9-18.1-4.3"/>
					</g>
				</g>
			</g>
			<g>
				<g>
					<g>
						<path class="st3" d="M843.2,508.8c9.9,9.2,23.8,14,37.3,12.7c0.6-0.1,1.3-0.2,1.7-0.6c0.9-1-0.2-2.6-1.3-3.4
							C869.9,508.9,856.6,505.4,843.2,508.8"/>
					</g>
				</g>
			</g>
			<g>
				<g>
					<g>
						<path class="st3" d="M852.6,505.4c13.1-9.8,31-12.7,46.5-7.7c-5.9,5.8-14,8.9-22.2,9.7C868.8,508.3,860.6,507.4,852.6,505.4"
							/>
					</g>
				</g>
			</g>
			<g>
				<g>
					<g>
						<path class="st3" d="M848.9,481.7c-1.1-10.9-0.4-19.6-1.1-30.5c-0.1-0.9-0.2-1.9-1.1-2.2c-1.1-0.4-2.1,1-2.5,2.1
							c-3.3,10.1-1.5,21.7,4.7,30.4"/>
					</g>
				</g>
			</g>
			<g>
				<g>
					<g>
						<path class="st3" d="M848.1,482.9c7.4-4.6,13-10.6,18.1-17.6c3.6-4.9,6.6-10.8,5.8-16.8c-5-0.1-9.8,2.7-13.1,6.5
							s-5.2,8.6-6.7,13.4C850.8,473.3,849.8,478.2,848.1,482.9"/>
					</g>
				</g>
			</g>
			<g>
				<g>
					<g>
						<path class="st3" d="M865.9,478c16.3-6,31.4-15,44.6-26.3c-5.3-2.1-11.4-0.9-16.7,1.3c-12.2,4.9-22.1,13.2-28.1,24.9"/>
					</g>
				</g>
			</g>
			<g>
				<g>
					<g>
						<path class="st3" d="M853.1,488.9c8.2,0.9,16.6,1.5,24.7,0.1c8-1.3,15.6-4.5,23.1-7.7c0.6-0.3,1.3-0.6,1.6-1.2
							c0.3-0.7,0-1.5-0.6-2c-0.5-0.5-1.3-0.7-2-0.9c-8.2-2.3-16.9-1.2-25,1.5C867,481.5,860.4,484.7,853.1,488.9"/>
					</g>
				</g>
			</g>
			<g>
				<g>
					<g>
						<path class="st3" d="M806.1,509.2c-5.6-11.3-5.2-24.6-0.4-36.2c3.4,5.2,3.8,11.8,3.2,18s-2.5,12.6-2.6,18.8"/>
					</g>
				</g>
			</g>
			<g>
				<g>
					<g>
						<path class="st3" d="M783.7,497.9c-14-0.3-28,5.7-37.5,16c7,1.1,14.2-0.7,20.6-3.8c6.4-3.1,12-7.5,17.6-11.8"/>
					</g>
				</g>
			</g>
			<g>
				<g>
					<g>
						<path class="st3" d="M768.6,492.9c-6.9-0.6-13.5-1.4-20,0.6c-6.6,2-12.6,6.6-15.3,13c6.4,0.7,12.9-0.9,18.8-3.5
							C758,500.2,763.3,496.5,768.6,492.9"/>
					</g>
				</g>
			</g>
			<g>
				<g>
					<g>
						<path class="st3" d="M790.9,493.1c-6.2-4-12.5-8.2-19.7-9.8c-7.2-1.7-15.5-0.4-20.5,5c5.8,3.4,12.9,3.8,19.6,3.8
							c6.7,0,15-0.1,21.4,2.2"/>
					</g>
				</g>
			</g>
			<g>
				<g>
					<g>
						<path class="st3" d="M791,493.4c-10.5-10.4-14.5-29-10.3-43.1C789,462.9,792.7,478.4,791,493.4"/>
					</g>
				</g>
			</g>
			<g>
				<g>
					<g>
						<path class="st3" d="M820,464.1c2-4.6,3.4-9.5,5.2-14.2s4-9.3,7.4-13.1c3.4-3.7,8-6.5,13.1-6.8c-3.1,14.2-12.6,27-25.3,34.1"
							/>
					</g>
				</g>
			</g>
			<g>
				<g>
					<g>
						<path class="st3" d="M814.7,470.2c-3.3-4.5-7.1-10.7-11.6-14.1s-10.3-5.4-15.7-4.1C793,461.9,803.4,468.9,814.7,470.2"/>
					</g>
				</g>
			</g>
			<g>
				<g>
					<g>
						<path class="st3" d="M815.8,464.5c-2.2-5.5-4.3-11-5.2-16.8s-0.3-12,2.6-17.1c5.8,10.9,7.7,22.7,2.9,34.1"/>
					</g>
				</g>
			</g>
			<g>
				<g>
					<g>
						<path class="st3" d="M820,430.5c3.3-10.8,13.2-18.8,23.9-22.5c1.4-0.5,2.8-0.8,4.2-0.6c1.4,0.2,2.8,1.2,3.1,2.6
							c0.4,1.8-1.1,3.5-2.6,4.7C840.3,421.8,830.5,427.2,820,430.5"/>
					</g>
				</g>
			</g>
			<g>
				<g>
					<g>
						<path class="st3" d="M820.1,421.6c0.4-7,0.9-14.1,3.1-20.7c2.3-6.6,6.7-12.8,13-15.7c1.1,7.1-2,14.1-5.8,20.2
							s-8.3,11.8-10.5,18.6"/>
					</g>
				</g>
			</g>
			<g>
				<g>
					<g>
						<path class="st3" d="M820,426.4c-2.7-7.9-3-17.9-7.7-24.8c-3.3-4.8-8.6-8.1-11.5-13.2c-1.9,4.8-1.3,10.2,0.7,15
							c2,4.7,5.3,8.8,8.8,12.5C813.7,419.7,816.7,422.5,820,426.4"/>
					</g>
				</g>
			</g>
			<g>
				<g>
					<g>
						<g>
							<path class="st3" d="M820,659.2c-0.2,0-0.4-52.7-0.4-117.8c0-65,0.1-117.8,0.4-117.8c0.2,0,0.4,52.7,0.4,117.8
								S820.2,659.2,820,659.2z"/>
						</g>
					</g>
				</g>
			</g>
			<g>
				<g>
					<g>
						<g>
							<path class="st3" d="M866.1,501.2c0,0.1-0.7,0.3-2,0.7c-1.4,0.5-3.3,1.1-5.5,1.8c-4.6,1.6-10.9,3.8-17.8,6.6
								c-6.8,2.9-13.2,5.3-16.8,8.4c-1.8,1.6-2.9,3.2-3.4,4.5c-0.5,1.2-0.6,2-0.7,2c0,0,0-0.2,0-0.6c0.1-0.4,0.2-0.9,0.4-1.5
								c0.4-1.3,1.5-3.1,3.3-4.8s4.4-3.2,7.3-4.5c2.9-1.4,6.2-2.8,9.6-4.2c6.9-2.8,13.2-5,17.9-6.5c2.3-0.7,4.2-1.3,5.5-1.6
								C865.3,501.4,866.1,501.2,866.1,501.2z"/>
						</g>
					</g>
				</g>
			</g>
			<g>
				<g>
					<g>
						<g>
							<path class="st3" d="M881.2,464.1c0,0-0.2,0.2-0.6,0.6c-0.4,0.4-1,0.9-1.7,1.6c-1.6,1.4-3.7,3.4-6.3,5.7
								c-5.5,4.9-12.9,11.4-21,18.7c-8.2,7.3-15.3,14.3-20.2,19.5c-2.5,2.6-4.4,4.8-5.7,6.3c-0.6,0.7-1.1,1.3-1.5,1.7
								s-0.5,0.6-0.6,0.6c0,0,0.1-0.2,0.5-0.7c0.3-0.4,0.8-1.1,1.4-1.8c1.3-1.6,3.1-3.8,5.6-6.5c4.8-5.4,11.9-12.4,20.1-19.7
								c8.2-7.3,15.7-13.8,21.2-18.6c2.7-2.3,4.9-4.2,6.5-5.6c0.7-0.6,1.3-1.1,1.8-1.5C881,464.3,881.2,464.1,881.2,464.1z"/>
						</g>
					</g>
				</g>
			</g>
			<g>
				<g>
					<g>
						<g>
							<path class="st3" d="M842.7,498.2c-0.2-0.1,1.5-4.1,3.2-9.1s2.5-9.2,2.8-9.2c0.2,0-0.3,4.4-2,9.4c-0.9,2.5-1.8,4.8-2.6,6.3
								C843.4,497.3,842.8,498.3,842.7,498.2z"/>
						</g>
					</g>
				</g>
			</g>
			<g>
				<g>
					<g>
						<g>
							<path class="st3" d="M820.1,530.1c0,0-0.5-0.5-1.3-1.5c-0.9-1.1-1.9-2.5-3.2-4.2c-2.7-3.5-6.5-8.4-10.7-13.7
								s-8.1-10.1-10.9-13.5c-1.3-1.6-2.4-3-3.3-4.1c-0.8-1-1.2-1.5-1.1-1.6c0,0,0.5,0.5,1.4,1.4c0.8,0.9,2,2.3,3.5,3.9
								c2.9,3.4,6.9,8.1,11.1,13.4c4.2,5.3,7.9,10.2,10.5,13.8c1.3,1.8,2.3,3.3,3,4.3C819.7,529.5,820.1,530.1,820.1,530.1z"/>
						</g>
					</g>
				</g>
			</g>
			<g>
				<g>
					<g>
						<g>
							<path class="st3" d="M810,517.2c-0.1,0.1-2.8-3.1-4.2-7.9c-1-3.4-1.1-6.6-1-8h0.3c-0.2,0.6-0.3,0.9-0.3,0.9
								c-0.1,0-0.1-0.3,0-1h0.3c0.1,1.4,0.3,4.4,1.4,7.8C807.8,513.7,810.2,517,810,517.2z"/>
						</g>
					</g>
				</g>
			</g>
			<g>
				<g>
					<g>
						<g>
							<path class="st3" d="M796.9,500.8c-0.1,0.1-1-1-3-1.7c-2-0.8-4.9-0.9-8.2-0.7c-3.3,0.2-6.2,0.8-8.3,1.3s-3.4,0.9-3.4,0.8
								s1.2-0.7,3.3-1.3c2.1-0.7,5-1.3,8.3-1.6c3.3-0.3,6.4,0,8.5,0.9C796.2,499.5,797,500.7,796.9,500.8z"/>
						</g>
					</g>
				</g>
			</g>
			<g>
				<g>
					<g>
						<g>
							<path class="st3" d="M793.8,496.8c-0.1,0.1-1.7-0.7-4.5-1.6c-2.8-1-6.8-2-11.3-2.3s-8.6,0.1-11.5,0.6s-4.7,1.1-4.7,0.9
								c0-0.1,0.4-0.2,1.2-0.5s2-0.6,3.4-1c2.9-0.7,7.1-1.2,11.7-0.8c4.6,0.4,8.6,1.5,11.4,2.6c1.4,0.5,2.5,1.1,3.2,1.5
								C793.5,496.5,793.8,496.7,793.8,496.8z"/>
						</g>
					</g>
				</g>
			</g>
			<g>
				<g>
					<g>
						<g>
							<path class="st3" d="M820,480c-0.2,0.1-1.7-5.1-3.3-11.5s-2.8-11.6-2.6-11.7s1.7,5.1,3.3,11.5C819,474.7,820.2,479.9,820,480
								z"/>
						</g>
					</g>
				</g>
			</g>
			<g>
				<g>
					<g>
						<g>
							<path class="st3" d="M820.2,480c-0.2,0.1-1.2-3.4-3.7-6.9c-2.4-3.6-5.5-5.4-5.4-5.6c0-0.1,0.9,0.2,2.1,1.1
								c1.2,0.8,2.7,2.2,3.9,4C819.7,476.3,820.4,479.9,820.2,480z"/>
						</g>
					</g>
				</g>
			</g>
			<g>
				<g>
					<g>
						<g>
							<path class="st3" d="M820,631.1c-0.1,0-0.2-1.3-0.8-3.5s-1.7-5.4-3.5-9.1c-3.6-7.4-10.3-16.9-18.7-26.3
								c-4.2-4.8-8.2-9.3-11.7-13.6c-3.4-4.3-6.3-8.4-8.3-12c-2.1-3.6-3.4-6.7-4.2-8.9c-0.4-1.1-0.7-2-0.8-2.6
								c-0.2-0.6-0.2-0.9-0.2-0.9c0.1,0,0.5,1.2,1.3,3.4c0.9,2.1,2.3,5.2,4.4,8.8c2.1,3.6,5,7.6,8.4,11.9c3.5,4.3,7.5,8.7,11.7,13.5
								c8.4,9.5,15.1,19,18.6,26.6c1.8,3.8,2.8,7,3.3,9.3c0.2,1.1,0.4,2,0.5,2.6C820,630.8,820,631.1,820,631.1z"/>
						</g>
					</g>
				</g>
			</g>
			<g>
				<g>
					<g>
						<g>
							<path class="st3" d="M861.7,584.1c0,0.1-0.8,0.5-2.2,1.2c-1.4,0.8-3.4,2-5.7,3.7s-4.8,4-7.4,6.8c-2.6,2.8-5.3,6-8,9.4
								c-5.5,6.9-10.6,13-13.7,17.8c-1.6,2.4-2.7,4.4-3.4,5.9c-0.7,1.4-1.1,2.2-1.2,2.2c0,0,0-0.2,0.2-0.6c0.2-0.4,0.4-1,0.7-1.7
								c0.7-1.5,1.7-3.6,3.2-6c3-5,8.1-11.1,13.5-18c2.7-3.4,5.5-6.6,8.1-9.4c2.7-2.7,5.3-5,7.6-6.7s4.4-2.9,5.8-3.6
								c0.7-0.4,1.3-0.6,1.7-0.8C861.4,584.1,861.6,584,861.7,584.1z"/>
						</g>
					</g>
				</g>
			</g>
			<g>
				<g>
					<g>
						<g>
							<path class="st3" d="M862.5,599.3c0,0.1-1.8,0.3-4.6,0.7s-6.8,0.8-10.9,2.2c-4.1,1.3-7.6,3.4-9.8,5.1
								c-2.3,1.7-3.3,3.2-3.4,3.1c0,0,0.2-0.4,0.7-1.1c0.5-0.6,1.3-1.5,2.4-2.5c2.2-1.9,5.7-4.1,9.9-5.4c4.2-1.3,8.3-1.7,11.1-2
								C860.7,599.2,862.5,599.2,862.5,599.3z"/>
						</g>
					</g>
				</g>
			</g>
			<g>
				<g>
					<g>
						<g>
							<path class="st3" d="M835,608.7c-0.2-0.1,1.8-3.3,3.5-7.6c1.5-4.3,1.9-8.1,2.1-8c0.1,0,0.1,1-0.1,2.5
								c-0.2,1.5-0.5,3.6-1.3,5.8s-1.9,4.1-2.7,5.3C835.7,608,835.1,608.8,835,608.7z"/>
						</g>
					</g>
				</g>
			</g>
			<g>
				<g>
					<g>
						<g>
							<path class="st3" d="M875.1,543.1c0,0-0.2,0.2-0.7,0.4c-0.6,0.3-1.3,0.6-2.2,1s-2.1,0.9-3.4,1.6c-1.3,0.7-2.8,1.4-4.4,2.3
								c-0.8,0.5-1.6,0.9-2.5,1.4s-1.7,1.1-2.7,1.7c-1.9,1.1-3.7,2.5-5.7,3.9c-3.9,2.9-8,6.4-11.9,10.5s-7.2,8.3-10,12.2
								c-1.3,2-2.7,3.9-3.7,5.8c-0.5,0.9-1.1,1.8-1.6,2.7s-0.9,1.7-1.3,2.6c-0.9,1.6-1.5,3.2-2.2,4.5c-0.6,1.3-1.1,2.5-1.5,3.5
								c-0.4,0.9-0.7,1.6-0.9,2.2c-0.2,0.5-0.3,0.8-0.4,0.8c0,0,0.1-0.3,0.2-0.8c0.2-0.6,0.5-1.3,0.8-2.3s0.8-2.2,1.4-3.5
								c0.6-1.3,1.2-2.9,2.1-4.6c0.4-0.8,0.9-1.7,1.3-2.6c0.5-0.9,1-1.8,1.6-2.7c1-1.9,2.4-3.9,3.7-5.9c2.8-4,6.2-8.3,10.1-12.4
								c4-4.1,8.1-7.6,12-10.5c2-1.4,3.9-2.8,5.8-3.9c0.9-0.6,1.8-1.2,2.7-1.6c0.9-0.5,1.7-1,2.6-1.4c1.6-0.9,3.2-1.6,4.5-2.2
								c1.3-0.7,2.5-1.1,3.5-1.5c0.9-0.3,1.6-0.6,2.2-0.9C874.9,543.2,875.1,543.1,875.1,543.1z"/>
						</g>
					</g>
				</g>
			</g>
			<g>
				<g>
					<g>
						<g>
							<path class="st3" d="M842.2,565.2c-0.1,0,0.3-1.3,1.8-2.7s4.2-2.7,7.3-2.8s5.8,0.8,7.7,1.5s2.9,1.3,2.9,1.4
								c0,0.1-1.2-0.3-3.1-0.9c-1.9-0.6-4.5-1.3-7.5-1.2c-2.9,0.1-5.5,1.2-7,2.4C842.8,564.1,842.3,565.2,842.2,565.2z"/>
						</g>
					</g>
				</g>
			</g>
			<g>
				<g>
					<g>
						<g>
							<path class="st3" d="M837.3,570.3c-0.2-0.1,1.6-2.8,2.1-6.7s-0.7-7-0.5-7c0.1,0,0.5,0.7,0.9,2s0.6,3.1,0.4,5.2
								c-0.2,2-0.9,3.8-1.5,4.9C837.9,569.7,837.3,570.3,837.3,570.3z"/>
						</g>
					</g>
				</g>
			</g>
		</g>
		<g>
			<g>
				<g>
					<path class="st3" d="M783.6,638.6c1.1,20.2,7.2,40.6,16.5,61.4h40.6c8.9-20.5,14.6-41,15.6-61.4H783.6z"/>
				</g>
			</g>
		</g>
		<g>
			<g>
				<g>
					<g>
						<path class="st2" d="M849.7,671.2c0,0.2-13.4,0.4-29.9,0.4s-29.9-0.2-29.9-0.4s13.4-0.4,29.9-0.4
							C836.4,670.9,849.7,671,849.7,671.2z"/>
					</g>
				</g>
			</g>
		</g>
		<g>
			<g>
				<g>
					<g>
						<path class="st2" d="M848.8,678.5c0,0.2-12.5,0.4-28,0.4s-28-0.2-28-0.4s12.5-0.4,28-0.4C836.3,678.2,848.8,678.3,848.8,678.5
							z"/>
					</g>
				</g>
			</g>
		</g>
		<g>
			<g>
				<g>
					<g>
						<path class="st2" d="M800.8,651.9c0.2,0,0.4,4.2,0.4,9.4s-0.2,9.4-0.4,9.4s-0.4-4.2-0.4-9.4
							C800.4,656.1,800.6,651.9,800.8,651.9z"/>
					</g>
				</g>
			</g>
		</g>
		<g>
			<g>
				<g>
					<g>
						<path class="st2" d="M822.6,651.9c0.2,0,0.4,4.3,0.4,9.7s-0.2,9.7-0.4,9.7s-0.4-4.3-0.4-9.7
							C822.2,656.2,822.4,651.9,822.6,651.9z"/>
					</g>
				</g>
			</g>
		</g>
		<g>
			<g>
				<g>
					<g>
						<path class="st2" d="M843,651.7c0.2,0,0.4,4.4,0.4,9.9s-0.2,9.9-0.4,9.9s-0.4-4.4-0.4-9.9C842.6,656.1,842.8,651.7,843,651.7z
							"/>
					</g>
				</g>
			</g>
		</g>
		<g>
			<g>
				<g>
					<g>
						<path class="st2" d="M855,651.9c0,0.2-15.7,0.4-35,0.4s-35-0.2-35-0.4s15.7-0.4,35-0.4C839.4,651.5,855,651.7,855,651.9z"/>
					</g>
				</g>
			</g>
		</g>
	</g>
	<g>
		<g>
			<g>
				<g>
					<g>
						<g>
							<polygon class="st3" points="289.4,71.7 289.4,232.6 58.3,232.6 50,72.8 							"/>
						</g>
					</g>
				</g>
			</g>
		</g>
		<g>
			<g>
				<g>
					<g>
						<g>
							<rect x="50" y="72.8" class="st4" width="231.1" height="159.5"/>
						</g>
					</g>
				</g>
			</g>
			<g>
				<g>
					<g>
						<g>
							<path class="st3" d="M282.2,233.4H48.9V71.7h233.3V233.4z M51.1,231.2H280V73.9H51.1V231.2z"/>
						</g>
					</g>
				</g>
			</g>
		</g>
		<g>
			<g>
				<g>
					<g>
						<g>
							<g>
								<rect x="75" y="92.6" class="st4" width="181.1" height="119.8"/>
							</g>
						</g>
					</g>
				</g>
			</g>
			<g>
				<g>
					<g>
						<g>
							<g>
								<g>
									<path class="st3" d="M256.1,92.6c0,0-0.3,0-0.9,0c-0.6,0-1.5,0-2.6,0c-2.3,0-5.6,0-9.9,0.1c-8.7,0-21.3,0.1-37.3,0.1
										c-32,0.2-77.2,0.3-130.4,0.4l0.5-0.5c0,36.6,0,77.2,0,119.8l0,0l-0.6-0.6c68.3,0,131.3,0.1,181.1,0.1l-0.5,0.5
										c0.1-36.5,0.2-66.4,0.2-87.2c0-10.4,0.1-18.5,0.1-24.1c0-2.8,0-4.9,0.1-6.3C256,93.4,256.1,92.6,256.1,92.6s0,0.7,0,2.1
										s0,3.5,0.1,6.3c0,5.5,0.1,13.6,0.1,24c0.1,20.9,0.1,50.9,0.2,87.5v0.5H256c-49.7,0-112.7,0-181,0h-0.6v-0.6l0,0
										c0-42.6,0-83.2,0-119.8v-0.5h0.5c53.4,0.1,98.7,0.2,130.7,0.3c15.9,0.1,28.5,0.1,37.2,0.1c4.3,0,7.6,0,9.8,0.1
										c1.1,0,1.9,0,2.5,0C255.8,92.6,256.1,92.6,256.1,92.6z"/>
								</g>
							</g>
						</g>
					</g>
				</g>
			</g>
		</g>
		<g>
			<g>
				<g>
					<g>
						<g>
							<g>
								<path class="st3" d="M50,72.4c0.1-0.1,1.6,0.9,4,2.6s5.6,4.1,9.1,6.9s6.5,5.4,8.7,7.4s3.4,3.3,3.3,3.4
									c-0.2,0.2-5.8-4.3-12.7-9.9C55.3,77.2,49.8,72.6,50,72.4z"/>
							</g>
						</g>
					</g>
				</g>
			</g>
		</g>
		<g>
			<g>
				<g>
					<g>
						<g>
							<g>
								<path class="st3" d="M281.1,72.8c0.2,0.2-5.2,4.9-12.2,10.4c-6.9,5.5-12.7,9.7-12.9,9.5c-0.2-0.2,5.2-4.9,12.2-10.4
									C275.1,76.8,280.9,72.6,281.1,72.8z"/>
							</g>
						</g>
					</g>
				</g>
			</g>
		</g>
		<g>
			<g>
				<g>
					<g>
						<g>
							<g>
								<path class="st4" d="M280.9,232.3c-8.6-7-17.2-13.9-25.8-20.9"/>
							</g>
						</g>
					</g>
				</g>
			</g>
			<g>
				<g>
					<g>
						<g>
							<g>
								<g>
									<path class="st3" d="M255.1,211.4c0.2-0.2,6.1,4.2,13.2,10s12.7,10.6,12.5,10.9c-0.2,0.2-6.1-4.2-13.2-10
										C260.5,216.5,254.9,211.7,255.1,211.4z"/>
								</g>
							</g>
						</g>
					</g>
				</g>
			</g>
		</g>
		<g>
			<g>
				<g>
					<g>
						<g>
							<g>
								<path class="st3" d="M50,232.3c-0.2-0.2,5.2-4.8,12-10.2s12.5-9.6,12.7-9.4c0.2,0.2-5.2,4.8-12,10.2
									C55.9,228.3,50.2,232.5,50,232.3z"/>
							</g>
						</g>
					</g>
				</g>
			</g>
		</g>
		<g>
			<g>
				<g>
					<g>
						<g>
							<rect x="111.8" y="130" class="st3" width="113.9" height="40.1"/>
						</g>
					</g>
				</g>
			</g>
		</g>
	</g>
	<g>
		<g>
			<g>
				<path class="st5" d="M844.8,699.6c0,0.2-153.1,0.4-342,0.4s-342-0.2-342-0.4s153.1-0.4,342-0.4
					C691.6,699.2,844.8,699.4,844.8,699.6z"/>
			</g>
		</g>
	</g>
	<g>
		<g>
			<g>
				<path class="st3" d="M244.7,668.9c0,0-4.1,21.6,31.6,23.3s109.2,3.4,109.2,3.4l-4.6-46.6l-114.4-8l-18.3,13.4L244.7,668.9z"/>
			</g>
		</g>
		<path class="st5" d="M641,29.6H281.4c-8.8,0-16,7.2-16,16V684c0,8.8,7.2,16,16,16H641c8.8,0,16-7.2,16-16V45.6
			C657,36.8,649.9,29.6,641,29.6z M586.9,126.9c0,1.5-1.8,2.3-2.9,1.2l-17.7-17.7c-0.7-0.7-1.8-0.7-2.4,0l-17.7,17.7
			c-1.1,1.1-2.9,0.3-2.9-1.2V60.3h43.6L586.9,126.9L586.9,126.9z"/>
		<path class="st4" d="M586.9,60.3v66.5c0,1.5-1.8,2.3-2.9,1.2l-17.7-17.7c-0.7-0.7-1.8-0.7-2.4,0L546.2,128
			c-1.1,1.1-2.9,0.3-2.9-1.2V60.3H287v609c0,2.9,2.3,5.2,5.2,5.2h343.2V60.3H586.9z"/>
		<g>
			<g>
				<path class="st6" d="M495.4,45.7h-74.5c-2.5,0-4.4-2-4.4-4.4l0,0c0-2.5,2-4.4,4.4-4.4h74.5c2.5,0,4.4,2,4.4,4.4l0,0
					C499.9,43.7,497.9,45.7,495.4,45.7z"/>
			</g>
		</g>
		<g>
			<g>
				<path class="st5" d="M351.1,207.7v10.2h-1c-0.6-2.4-1.3-4.1-2-5.1s-1.7-1.9-3-2.5c-0.7-0.3-1.9-0.5-3.7-0.5h-2.8V239
					c0,1.9,0.1,3.1,0.3,3.6c0.2,0.5,0.6,0.9,1.3,1.3c0.6,0.4,1.5,0.5,2.5,0.5h1.3v1h-19.8v-1h1.3c1.1,0,2-0.2,2.6-0.6
					c0.5-0.3,0.9-0.7,1.1-1.3c0.2-0.4,0.3-1.6,0.3-3.5v-29.1h-2.7c-2.5,0-4.4,0.5-5.5,1.6c-1.6,1.5-2.6,3.6-3.1,6.4h-1.1v-10.2
					H351.1z"/>
			</g>
		</g>
		<g>
			<g>
				<g>
					<path class="st5" d="M595.1,165.7c0,0.2-14.3,0.4-31.9,0.4c-17.6,0-31.9-0.2-31.9-0.4s14.3-0.4,31.9-0.4
						S595.1,165.5,595.1,165.7z"/>
				</g>
			</g>
		</g>
		<g>
			<g>
				<g>
					<g>
						<path class="st5" d="M594.4,215.4c0,0.2-52.1,0.4-116.3,0.4c-64.3,0-116.4-0.2-116.4-0.4s52.1-0.4,116.4-0.4
							C542.3,215,594.4,215.2,594.4,215.4z"/>
					</g>
				</g>
			</g>
			<g>
				<g>
					<g>
						<path class="st5" d="M594.4,231.4c0,0.2-52.1,0.4-116.3,0.4c-64.3,0-116.4-0.2-116.4-0.4s52.1-0.4,116.4-0.4
							C542.3,231,594.4,231.2,594.4,231.4z"/>
					</g>
				</g>
			</g>
			<g>
				<g>
					<g>
						<path class="st5" d="M594.4,247.4c0,0.2-52.1,0.4-116.3,0.4c-64.3,0-116.4-0.2-116.4-0.4s52.1-0.4,116.4-0.4
							C542.3,247,594.4,247.2,594.4,247.4z"/>
					</g>
				</g>
			</g>
			<g>
				<g>
					<g>
						<path class="st5" d="M594.4,263.4c0,0.2-62.5,0.4-139.6,0.4s-139.6-0.2-139.6-0.4c0-0.2,62.5-0.4,139.6-0.4
							C531.8,263,594.4,263.2,594.4,263.4z"/>
					</g>
				</g>
			</g>
			<g>
				<g>
					<g>
						<path class="st5" d="M594.4,279.4c0,0.2-62.5,0.4-139.6,0.4s-139.6-0.2-139.6-0.4s62.5-0.4,139.6-0.4
							C531.8,279,594.4,279.2,594.4,279.4z"/>
					</g>
				</g>
			</g>
			<g>
				<g>
					<g>
						<path class="st5" d="M472.4,295.4c0,0.2-35.2,0.4-78.6,0.4s-78.6-0.2-78.6-0.4c0-0.2,35.2-0.4,78.6-0.4
							S472.4,295.2,472.4,295.4z"/>
					</g>
				</g>
			</g>
			<g>
				<g>
					<g>
						<path class="st5" d="M594.4,311.4c0,0.2-62.5,0.4-139.6,0.4s-139.6-0.2-139.6-0.4c0-0.2,62.5-0.4,139.6-0.4
							C531.8,311,594.4,311.2,594.4,311.4z"/>
					</g>
				</g>
			</g>
			<g>
				<g>
					<g>
						<path class="st5" d="M594.4,327.4c0,0.2-62.5,0.4-139.6,0.4s-139.6-0.2-139.6-0.4c0-0.2,62.5-0.4,139.6-0.4
							C531.8,327,594.4,327.2,594.4,327.4z"/>
					</g>
				</g>
			</g>
			<g>
				<g>
					<g>
						<path class="st5" d="M594.4,343.4c0,0.2-62.5,0.4-139.6,0.4s-139.6-0.2-139.6-0.4c0-0.2,62.5-0.4,139.6-0.4
							C531.8,343,594.4,343.2,594.4,343.4z"/>
					</g>
				</g>
			</g>
			<g>
				<g>
					<g>
						<path class="st5" d="M594.4,359.4c0,0.2-62.5,0.4-139.6,0.4s-139.6-0.2-139.6-0.4c0-0.2,62.5-0.4,139.6-0.4
							C531.8,359,594.4,359.2,594.4,359.4z"/>
					</g>
				</g>
			</g>
			<g>
				<g>
					<g>
						<path class="st5" d="M594.4,375.4c0,0.2-62.5,0.4-139.6,0.4s-139.6-0.2-139.6-0.4s62.5-0.4,139.6-0.4
							C531.8,375,594.4,375.2,594.4,375.4z"/>
					</g>
				</g>
			</g>
			<g>
				<g>
					<g>
						<path class="st5" d="M361.7,391.4c0,0.2-10.4,0.4-23.3,0.4s-23.3-0.2-23.3-0.4c0-0.2,10.4-0.4,23.3-0.4
							C351.2,391,361.7,391.2,361.7,391.4z"/>
					</g>
				</g>
			</g>
			<g>
				<g>
					<g>
						<path class="st5" d="M594.4,407.4c0,0.2-62.5,0.4-139.6,0.4s-139.6-0.2-139.6-0.4s62.5-0.4,139.6-0.4
							C531.8,407,594.4,407.2,594.4,407.4z"/>
					</g>
				</g>
			</g>
			<g>
				<g>
					<g>
						<path class="st5" d="M594.4,423.4c0,0.2-62.5,0.4-139.6,0.4s-139.6-0.2-139.6-0.4c0-0.2,62.5-0.4,139.6-0.4
							C531.8,423,594.4,423.2,594.4,423.4z"/>
					</g>
				</g>
			</g>
			<g>
				<g>
					<g>
						<path class="st5" d="M594.4,439.4c0,0.2-62.5,0.4-139.6,0.4s-139.6-0.2-139.6-0.4c0-0.2,62.5-0.4,139.6-0.4
							C531.8,439,594.4,439.2,594.4,439.4z"/>
					</g>
				</g>
			</g>
			<g>
				<g>
					<g>
						<path class="st5" d="M529.5,455.4c0,0.2-48,0.4-107.2,0.4s-107.2-0.2-107.2-0.4c0-0.2,48-0.4,107.2-0.4
							S529.5,455.2,529.5,455.4z"/>
					</g>
				</g>
			</g>
			<g>
				<g>
					<g>
						<path class="st5" d="M594.4,471.4c0,0.2-62.5,0.4-139.6,0.4s-139.6-0.2-139.6-0.4c0-0.2,62.5-0.4,139.6-0.4
							C531.8,471,594.4,471.2,594.4,471.4z"/>
					</g>
				</g>
			</g>
			<g>
				<g>
					<g>
						<path class="st5" d="M594.4,487.4c0,0.2-62.5,0.4-139.6,0.4s-139.6-0.2-139.6-0.4s62.5-0.4,139.6-0.4
							C531.8,487,594.4,487.2,594.4,487.4z"/>
					</g>
				</g>
			</g>
			<g>
				<g>
					<g>
						<path class="st5" d="M556.8,503.4c0,0.2-54.1,0.4-120.8,0.4c-66.8,0-120.8-0.2-120.8-0.4c0-0.2,54.1-0.4,120.8-0.4
							S556.8,503.2,556.8,503.4z"/>
					</g>
				</g>
			</g>
			<g>
				<g>
					<g>
						<path class="st5" d="M594.4,519.5c0,0.2-62.5,0.4-139.6,0.4s-139.6-0.2-139.6-0.4s62.5-0.4,139.6-0.4
							C531.8,519,594.4,519.2,594.4,519.5z"/>
					</g>
				</g>
			</g>
			<g>
				<g>
					<g>
						<path class="st5" d="M594.4,551.5c0,0.2-62.5,0.4-139.6,0.4s-139.6-0.2-139.6-0.4s62.5-0.4,139.6-0.4
							C531.8,551,594.4,551.2,594.4,551.5z"/>
					</g>
				</g>
			</g>
			<g>
				<g>
					<g>
						<path class="st5" d="M594.4,567.5c0,0.2-62.5,0.4-139.6,0.4s-139.6-0.2-139.6-0.4s62.5-0.4,139.6-0.4
							C531.8,567,594.4,567.2,594.4,567.5z"/>
					</g>
				</g>
			</g>
			<g>
				<g>
					<g>
						<path class="st5" d="M594.4,583.5c0,0.2-62.5,0.4-139.6,0.4s-139.6-0.2-139.6-0.4s62.5-0.4,139.6-0.4
							C531.8,583.1,594.4,583.2,594.4,583.5z"/>
					</g>
				</g>
			</g>
		</g>
		<g>
			<g>
				<g>
					<path class="st4" d="M289.8,673c-11.8-20.2-36.8-20.4-45-4.1V74.8c0-11,7.9-20.7,18.8-22c6.9-0.9,13.3,1.8,24,8L289.8,673z"/>
				</g>
			</g>
			<g>
				<g>
					<g>
						<path class="st5" d="M289.8,673c0-4.4-1.1-269.7-2.6-612.2l0.2,0.4c-3.2-1.9-6.6-3.7-10.1-5.3s-7.2-2.8-11.1-2.8
							s-7.8,1.2-11.1,3.3c-3.3,2.1-6,5.3-7.7,8.8c-0.9,1.9-1.5,3.9-1.9,5.9s-0.3,4.1-0.3,6.2c0,4.2,0,8.4,0,12.6c0,8.4,0,16.7,0,25
							c0,16.6,0,33,0,49.2c0,32.5,0,64.1,0,94.8c0,61.4,0,119-0.1,171.3c-0.1,104.6-0.1,188-0.2,238.6l-0.3-0.1c2-4,5.2-7.2,8.7-9
							c3.5-1.9,7.3-2.6,10.7-2.6c1.7-0.1,3.4,0.2,4.9,0.4c0.8,0.1,1.5,0.4,2.3,0.6c0.7,0.2,1.5,0.4,2.1,0.7c1.4,0.5,2.6,1,3.8,1.7
							c0.6,0.3,1.1,0.6,1.7,0.9c0.5,0.3,1,0.7,1.5,1c1,0.7,1.9,1.3,2.6,2.1c0.7,0.7,1.5,1.3,2.1,2c1.1,1.4,2.2,2.5,2.8,3.5
							C289,671.9,289.6,672.7,289.8,673c-0.2-0.2-0.7-1.1-2-3c-0.7-1-1.7-2.1-2.8-3.4c-0.6-0.6-1.3-1.3-2.1-2
							c-0.7-0.7-1.6-1.4-2.6-2c-0.5-0.3-1-0.7-1.5-1s-1.1-0.6-1.7-0.9c-1.1-0.7-2.4-1.2-3.8-1.7c-0.7-0.3-1.4-0.5-2.1-0.7
							s-1.5-0.4-2.2-0.5c-1.6-0.2-3.2-0.5-4.9-0.4c-3.4,0-7.1,0.8-10.6,2.7s-6.6,4.9-8.6,8.9l-0.3,0.6v-0.7
							c0-50.6-0.1-134-0.2-238.6c0-52.3,0-109.9-0.1-171.3c0-30.7,0-62.4,0-94.8c0-16.2,0-32.6,0-49.2c0-8.3,0-16.6,0-25
							c0-4.2,0-8.4,0-12.6c0-2.1,0-4.3,0.3-6.4c0.4-2.1,1-4.2,1.9-6.1c1.8-3.7,4.6-6.9,8-9.2c3.4-2.3,7.5-3.4,11.5-3.5
							c4.1,0,7.9,1.3,11.5,2.9c3.6,1.6,6.9,3.5,10.2,5.3l0.2,0.1v0.2C289,403.2,289.7,668.6,289.8,673z"/>
					</g>
				</g>
			</g>
		</g>
		<g>
			<g>
				<path class="st3" d="M611.5,392.2c-0.2,0-0.5-0.1-0.6-0.3c-0.3-0.3-0.2-0.8,0.2-1.1l9-6.8l-9-5.7c-0.4-0.2-0.5-0.7-0.2-1.1
					c0.2-0.4,0.7-0.5,1.1-0.2l9.9,6.3c0.2,0.1,0.4,0.4,0.4,0.6c0,0.3-0.1,0.5-0.3,0.7l-9.9,7.5C611.8,392.2,611.7,392.2,611.5,392.2
					z"/>
			</g>
		</g>
		<path class="st7" d="M586.9,60.3v66.5c0,1.5-1.8,2.3-2.9,1.2l-17.7-17.7c-0.7-0.7-1.8-0.7-2.4,0l-16.9,17v6.3
			c0,1.5,1.8,2.3,2.9,1.2l17.7-17.7c0.7-0.7,1.8-0.7,2.4,0l17.7,17.7c1.1,1.1,2.9,0.3,2.9-1.2V60.3H586.9z"/>
		<g>
			<path class="st5" d="M338.6,140.4h6.5v2.2h-9.2v-11.9h9v2.2h-6.3V140.4z M338.4,135.4h5.7v2.1h-5.7V135.4z"/>
			<path class="st5" d="M346.5,138.8v-2.1h4.8v2.1H346.5z"/>
			<path class="st5" d="M353.4,142.6v-12.7h2.7v5.3l-0.2,2.7l0.1,2.7v1.9h-2.6V142.6z M358.8,142.7c-0.8,0-1.5-0.2-2.1-0.5
				s-1-0.9-1.3-1.6c-0.3-0.7-0.5-1.6-0.5-2.7c0-1.1,0.2-2,0.5-2.7s0.8-1.2,1.4-1.6s1.3-0.5,2-0.5c0.9,0,1.6,0.2,2.3,0.6
				c0.7,0.4,1.2,0.9,1.6,1.6c0.4,0.7,0.6,1.5,0.6,2.5s-0.2,1.8-0.6,2.5s-0.9,1.3-1.6,1.6C360.4,142.5,359.7,142.7,358.8,142.7z
				 M358.3,140.5c0.4,0,0.8-0.1,1.2-0.3c0.3-0.2,0.6-0.5,0.8-0.9c0.2-0.4,0.3-0.8,0.3-1.4c0-0.5-0.1-1-0.3-1.4s-0.5-0.7-0.8-0.9
				s-0.7-0.3-1.2-0.3c-0.4,0-0.8,0.1-1.2,0.3s-0.6,0.5-0.8,0.9c-0.2,0.4-0.3,0.8-0.3,1.4c0,0.5,0.1,1,0.3,1.4
				c0.2,0.4,0.5,0.7,0.8,0.9C357.5,140.4,357.9,140.5,358.3,140.5z"/>
			<path class="st5" d="M369.5,142.7c-1,0-1.8-0.2-2.6-0.6c-0.8-0.4-1.4-1-1.8-1.7s-0.7-1.5-0.7-2.4s0.2-1.7,0.7-2.4
				c0.4-0.7,1-1.3,1.8-1.7s1.6-0.6,2.6-0.6s1.8,0.2,2.6,0.6c0.8,0.4,1.4,1,1.8,1.7s0.6,1.5,0.6,2.5c0,0.9-0.2,1.7-0.6,2.4
				s-1,1.3-1.8,1.7C371.4,142.5,370.5,142.7,369.5,142.7z M369.5,140.5c0.4,0,0.8-0.1,1.2-0.3c0.4-0.2,0.6-0.5,0.8-0.9
				c0.2-0.4,0.3-0.8,0.3-1.4c0-0.5-0.1-1-0.3-1.4s-0.5-0.7-0.8-0.9s-0.8-0.3-1.2-0.3c-0.4,0-0.8,0.1-1.2,0.3s-0.6,0.5-0.8,0.9
				s-0.3,0.8-0.3,1.4c0,0.5,0.1,1,0.3,1.4c0.2,0.4,0.5,0.7,0.8,0.9C368.7,140.4,369.1,140.5,369.5,140.5z"/>
			<path class="st5" d="M380.7,142.7c-1,0-1.8-0.2-2.6-0.6c-0.8-0.4-1.4-1-1.8-1.7s-0.7-1.5-0.7-2.4s0.2-1.7,0.7-2.4
				c0.4-0.7,1-1.3,1.8-1.7s1.6-0.6,2.6-0.6s1.8,0.2,2.6,0.6c0.8,0.4,1.4,1,1.8,1.7s0.6,1.5,0.6,2.5c0,0.9-0.2,1.7-0.6,2.4
				s-1,1.3-1.8,1.7C382.5,142.5,381.7,142.7,380.7,142.7z M380.7,140.5c0.4,0,0.8-0.1,1.2-0.3c0.4-0.2,0.6-0.5,0.8-0.9
				c0.2-0.4,0.3-0.8,0.3-1.4c0-0.5-0.1-1-0.3-1.4s-0.5-0.7-0.8-0.9s-0.8-0.3-1.2-0.3c-0.4,0-0.8,0.1-1.2,0.3s-0.6,0.5-0.8,0.9
				s-0.3,0.8-0.3,1.4c0,0.5,0.1,1,0.3,1.4c0.2,0.4,0.5,0.7,0.8,0.9C379.9,140.4,380.3,140.5,380.7,140.5z"/>
			<path class="st5" d="M387.5,142.6v-12.7h2.7v12.7H387.5z M389.7,140.7l0.1-3.2l4.3-4.1h3.2l-4.1,4.2l-1.4,1.1L389.7,140.7z
				 M394.3,142.6l-3.1-3.9l1.7-2.1l4.7,5.9h-3.3V142.6z"/>
			<path class="st5" d="M405.2,142.6H404v-11.9h8.2v1.1h-6.9v10.8H405.2z M405.1,136.4h6.3v1.1h-6.3V136.4z"/>
			<path class="st5" d="M414.3,142.6v-9h1.2v2.4l-0.1-0.4c0.2-0.7,0.7-1.2,1.3-1.6c0.6-0.4,1.3-0.5,2.2-0.5v1.2h-0.1h-0.1
				c-0.9,0-1.7,0.3-2.2,0.9c-0.5,0.6-0.8,1.4-0.8,2.4v4.6L414.3,142.6L414.3,142.6z"/>
			<path class="st5" d="M424.6,142.7c-0.9,0-1.6-0.2-2.3-0.6c-0.7-0.4-1.2-0.9-1.6-1.6c-0.4-0.7-0.6-1.5-0.6-2.4s0.2-1.7,0.6-2.4
				s0.9-1.2,1.6-1.6c0.7-0.4,1.5-0.6,2.3-0.6c0.9,0,1.7,0.2,2.4,0.6s1.2,0.9,1.6,1.6c0.4,0.7,0.6,1.5,0.6,2.4s-0.2,1.7-0.6,2.4
				s-0.9,1.2-1.6,1.6S425.5,142.7,424.6,142.7z M424.6,141.6c0.6,0,1.2-0.1,1.7-0.4s0.9-0.7,1.2-1.2s0.4-1.1,0.4-1.8
				s-0.1-1.3-0.4-1.8s-0.7-0.9-1.2-1.2s-1.1-0.4-1.7-0.4s-1.2,0.1-1.7,0.4s-0.9,0.7-1.2,1.2c-0.3,0.5-0.4,1.1-0.4,1.8
				s0.1,1.3,0.4,1.8s0.7,0.9,1.2,1.2S424,141.6,424.6,141.6z"/>
			<path class="st5" d="M436.2,133.5c0.7,0,1.4,0.1,1.9,0.4c0.6,0.3,1,0.7,1.3,1.3s0.5,1.3,0.5,2.1v5.2h-1.2v-5.1
				c0-0.9-0.2-1.7-0.7-2.1c-0.5-0.5-1.1-0.7-2-0.7c-0.6,0-1.2,0.1-1.7,0.4c-0.5,0.3-0.8,0.6-1.1,1.1c-0.3,0.5-0.4,1.1-0.4,1.7v4.7
				h-1.2v-9h1.2v2.5l-0.2-0.5c0.3-0.6,0.7-1.2,1.4-1.5C434.6,133.7,435.3,133.5,436.2,133.5z"/>
			<path class="st5" d="M441.8,134.6v-1h5.5v1H441.8z M446,142.7c-0.8,0-1.5-0.2-1.9-0.7c-0.5-0.5-0.7-1.1-0.7-1.9v-8.4h1.2v8.3
				c0,0.5,0.1,0.9,0.4,1.2s0.7,0.4,1.2,0.4s1-0.2,1.3-0.5l0.4,0.9c-0.2,0.2-0.5,0.4-0.9,0.5C446.7,142.6,446.4,142.7,446,142.7z"/>
			<path class="st5" d="M449.3,138.5v-1.1h4.5v1.1H449.3z"/>
			<path class="st5" d="M458,141.5h7.2v1.1h-8.4v-11.9h8.2v1.1h-7V141.5z M457.8,136h6.3v1.1h-6.3V136z"/>
			<path class="st5" d="M472.4,133.5c0.7,0,1.4,0.1,1.9,0.4c0.6,0.3,1,0.7,1.3,1.3s0.5,1.3,0.5,2.1v5.2h-1.2v-5.1
				c0-0.9-0.2-1.7-0.7-2.1c-0.5-0.5-1.1-0.7-2-0.7c-0.6,0-1.2,0.1-1.7,0.4c-0.5,0.3-0.8,0.6-1.1,1.1c-0.3,0.5-0.4,1.1-0.4,1.7v4.7
				h-1.2v-9h1.2v2.5l-0.2-0.5c0.3-0.6,0.7-1.2,1.4-1.5C470.8,133.7,471.6,133.5,472.4,133.5z"/>
			<path class="st5" d="M483,142.7c-0.9,0-1.6-0.2-2.3-0.6s-1.2-0.9-1.6-1.6c-0.4-0.7-0.6-1.5-0.6-2.4s0.2-1.7,0.6-2.4
				s0.9-1.2,1.6-1.6c0.7-0.4,1.4-0.6,2.3-0.6c0.8,0,1.5,0.2,2.1,0.5c0.6,0.4,1.1,0.9,1.5,1.5c0.4,0.7,0.6,1.5,0.6,2.5
				s-0.2,1.8-0.5,2.5c-0.4,0.7-0.9,1.2-1.5,1.6C484.5,142.5,483.8,142.7,483,142.7z M483,141.6c0.6,0,1.2-0.1,1.7-0.4
				c0.5-0.3,0.9-0.7,1.2-1.2s0.4-1.1,0.4-1.8s-0.1-1.3-0.4-1.8s-0.7-0.9-1.2-1.2s-1.1-0.4-1.7-0.4s-1.2,0.1-1.7,0.4
				s-0.9,0.7-1.2,1.2c-0.3,0.5-0.4,1.1-0.4,1.8s0.1,1.3,0.4,1.8s0.7,0.9,1.2,1.2S482.4,141.6,483,141.6z M486.4,142.6v-2.7l0.1-1.8
				l-0.2-1.8V130h1.2v12.7L486.4,142.6L486.4,142.6z"/>
		</g>
	</g>
	<g>
		<g>
			<g>
				<g>
					<g>
						<g>
							<g>
								<g>
									<g>
										<g>
											<g>
												<g>
													<path class="st5" d="M686.7,162.3c0.3-5.7,3.8-9.1,8.7-12s11.2-3.2,16.3-0.7c3.4,1.6,6.4,4.4,10.2,4.9
														c6.2,0.8,12-4.9,18.1-3.5c3.6,0.8,6.3,4.4,6.2,8.1c-0.1,3.7-3.1,7.1-6.8,7.6c4,0.6,6.3,5.7,4.8,9.5s-5.7,6-9.8,6.1
														s-8-1.6-11.6-3.6c-3.5-2.1-6.8-4.5-10.5-6.3s-7.9-2.8-11.9-1.7c-5.4,1.4-9.1,6.5-10.5,11.8c-1.4,5.4-0.8,11,0,16.5
														s1.9,11,1.4,16.5c-0.1,0.6-0.2,1.4-0.8,1.7c-0.8,0.5-1.8-0.3-2.4-1c-6.8-8.1-12.1-17.6-15.3-27.7
														c-1.9-5.9-2.9-11.6-0.7-17.3C674.4,165.4,681.9,160,686.7,162.3"/>
												</g>
											</g>
										</g>
									</g>
								</g>
							</g>
						</g>
					</g>
					<g>
						<g>
							<g>
								<g>
									<g>
										<g>
											<g>
												<g>
													<g>
														<g>
															<g>
																<g>
																	<g>
																		<g>
																			<g>
																				<g>
																					<g>
																						<g>
																							<g>
																								<g>
																									<g>
																										<path class="st8" d="M681.5,189.6l9,55.8c1.7,10.4,8.5,20.5,24.8,17.1l0,0c14-4,12.9-14.1,11.1-26.5
																											c0,0,0,0.5,0,0c0,0,15.4-4,14-19.6c-0.7-7.6-3.3-23-5.8-36.9c-2.7-15-16.5-25.3-31.7-23.8l-1.5,0.2
																											C685.3,158.4,678.4,173.6,681.5,189.6z"/>
																									</g>
																								</g>
																							</g>
																						</g>
																					</g>
																				</g>
																			</g>
																		</g>
																	</g>
																</g>
															</g>
														</g>
													</g>
												</g>
											</g>
											<g>
												<g>
													<g>
														<g>
															<g>
																<g>
																	<g>
																		<g>
																			<g>
																				<g>
																					<g>
																						<g>
																							<g>
																								<g>
																									<g>
																										<path class="st9" d="M726.5,236c0,0-9.8,1.6-20.9-4c0,0,6.1,11.6,21.6,8.6L726.5,236z"/>
																									</g>
																								</g>
																							</g>
																						</g>
																					</g>
																				</g>
																			</g>
																		</g>
																	</g>
																</g>
															</g>
														</g>
													</g>
												</g>
											</g>
										</g>
									</g>
								</g>
								<g>
									<g>
										<g>
											<g>
												<g>
													<g>
														<g>
															<g>
																<g>
																	<g>
																		<g>
																			<g>
																				<g>
																					<g>
																						<g>
																							<g>
																								<g>
																									<g>
																										<g>
																											<g>
																												<g>
																													<path class="st5" d="M731.5,195.1c0.2,1.2-0.7,2.3-1.9,2.5s-2.3-0.6-2.5-1.8s0.7-2.3,1.9-2.5
																														C730.3,193.1,731.4,193.9,731.5,195.1z"/>
																												</g>
																											</g>
																										</g>
																									</g>
																								</g>
																							</g>
																						</g>
																					</g>
																				</g>
																			</g>
																		</g>
																	</g>
																</g>
															</g>
														</g>
													</g>
													<g>
														<g>
															<g>
																<g>
																	<g>
																		<g>
																			<g>
																				<g>
																					<g>
																						<g>
																							<g>
																								<g>
																									<g>
																										<g>
																											<g>
																												<g>
																													<path class="st5" d="M710.4,197.3c0.2,1.2-0.7,2.3-1.9,2.5s-2.3-0.6-2.5-1.8s0.7-2.3,1.9-2.5
																														C709.1,195.3,710.2,196.1,710.4,197.3z"/>
																												</g>
																											</g>
																										</g>
																									</g>
																								</g>
																							</g>
																						</g>
																					</g>
																				</g>
																			</g>
																		</g>
																	</g>
																</g>
															</g>
														</g>
													</g>
													<g>
														<g>
															<g>
																<g>
																	<g>
																		<g>
																			<g>
																				<g>
																					<g>
																						<g>
																							<g>
																								<g>
																									<g>
																										<g>
																											<g>
																												<g>
																													<path class="st5" d="M719,207.2c0-0.1,1.4-0.5,3.8-1.1c0.6-0.1,1.2-0.3,1.2-0.7
																														c0.1-0.5-0.2-1.1-0.6-1.8c-0.7-1.4-1.5-2.9-2.3-4.5c-3.2-6.4-5.6-11.7-5.3-11.8s3,4.9,6.2,11.3
																														c0.8,1.6,1.5,3.1,2.2,4.5c0.3,0.7,0.8,1.4,0.6,2.4c-0.1,0.5-0.5,0.9-0.9,1c-0.4,0.2-0.7,0.2-1,0.2
																														C720.5,207.2,719,207.3,719,207.2z"/>
																												</g>
																											</g>
																										</g>
																									</g>
																								</g>
																							</g>
																						</g>
																					</g>
																				</g>
																			</g>
																		</g>
																	</g>
																</g>
															</g>
														</g>
													</g>
												</g>
											</g>
										</g>
										<g>
											<g>
												<g>
													<g>
														<g>
															<g>
																<g>
																	<g>
																		<g>
																			<g>
																				<g>
																					<g>
																						<g>
																							<g>
																								<g>
																									<path class="st5" d="M708.2,180.8c-0.2,0.7-2.6,0.6-5.4,1.2c-2.8,0.6-5,1.6-5.4,1.1
																										c-0.2-0.3,0.1-0.9,1-1.6c0.8-0.7,2.2-1.5,3.9-1.8c1.7-0.4,3.2-0.2,4.3,0.1
																										C707.7,180,708.2,180.5,708.2,180.8z"/>
																								</g>
																							</g>
																						</g>
																					</g>
																				</g>
																			</g>
																		</g>
																	</g>
																</g>
															</g>
														</g>
													</g>
												</g>
											</g>
										</g>
										<g>
											<g>
												<g>
													<g>
														<g>
															<g>
																<g>
																	<g>
																		<g>
																			<g>
																				<g>
																					<g>
																						<g>
																							<g>
																								<g>
																									<path class="st5" d="M730.4,180.6c-0.4,0.6-2.1,0.2-4.1,0.4c-2,0.1-3.6,0.7-4.1,0.2
																										c-0.2-0.3,0-0.8,0.7-1.4c0.7-0.6,1.8-1.1,3.2-1.2c1.4-0.1,2.6,0.3,3.3,0.8
																										C730.3,179.8,730.6,180.3,730.4,180.6z"/>
																								</g>
																							</g>
																						</g>
																					</g>
																				</g>
																			</g>
																		</g>
																	</g>
																</g>
															</g>
														</g>
													</g>
												</g>
											</g>
										</g>
									</g>
								</g>
							</g>
						</g>
					</g>
					<g>
						<g>
							<g>
								<g>
									<g>
										<g>
											<g>
												<g>
													<g>
														<g>
															<g>
																<g>
																	<g>
																		<g>
																			<g>
																				<g>
																					<path class="st8" d="M683.9,201c-0.3-0.1-11-2.1-9.6,8.5s11.8,7,11.8,6.7C686,216,683.9,201,683.9,201z"/>
																				</g>
																			</g>
																		</g>
																	</g>
																</g>
															</g>
														</g>
													</g>
												</g>
											</g>
										</g>
									</g>
								</g>
							</g>
						</g>
						<g>
							<g>
								<g>
									<g>
										<g>
											<g>
												<g>
													<g>
														<g>
															<g>
																<g>
																	<g>
																		<g>
																			<g>
																				<g>
																					<g>
																						<path class="st9" d="M682.3,212.7c-0.1,0-0.2,0.2-0.5,0.3c-0.3,0.2-0.8,0.3-1.4,0.2c-1.2-0.3-2.4-1.9-2.7-3.8
																							c-0.2-1-0.1-1.9,0.2-2.7c0.2-0.8,0.7-1.4,1.2-1.6c0.5-0.2,1,0.1,1.2,0.4c0.2,0.3,0.1,0.5,0.2,0.5
																							c0,0,0.2-0.2,0.1-0.6c-0.1-0.2-0.2-0.4-0.5-0.6c-0.3-0.2-0.7-0.2-1.1-0.1c-0.8,0.2-1.5,1-1.7,1.9
																							c-0.3,0.9-0.4,2-0.2,3.1c0.4,2.1,1.7,4,3.3,4.2c0.8,0.1,1.4-0.2,1.7-0.5C682.3,213,682.3,212.7,682.3,212.7z"
																							/>
																					</g>
																				</g>
																			</g>
																		</g>
																	</g>
																</g>
															</g>
														</g>
													</g>
												</g>
											</g>
										</g>
									</g>
								</g>
							</g>
						</g>
					</g>
					<g>
						<g>
							<g>
								<path class="st5" d="M733.3,164.9c-1.7-2.9-4.4-5.1-7.3-6.9c-6.2-3.8-13.6-5.8-20.9-5.2c-7.3,0.6-14.4,4-19.1,9.5
									c-3.8,4.4-6,10.1-6.7,15.9c-0.7,5.8,0,11.7,1.6,17.3c0.7,2.5,1.6,5,3.6,6.7c1.2,1,3.2,1.6,4.3,0.5c0.7-0.6,0.9-1.7,1-2.6
									c1.2-8.4,2.4-17.5-1.5-25.1c1.8-2.9,3.9-5.6,6.7-7.5s6.3-3,9.6-2.3c4.9,1,8.3,5.3,12.4,8.2c5.9,4.1,13.8,5,20.5,2.5
									L733.3,164.9z"/>
							</g>
						</g>
					</g>
				</g>
				<g>
					<g>
						<g>
							<g>
								<g>
									<g>
										<g>
											<path class="st9" d="M721.1,213.7c-0.2,1-0.3,2-0.8,2.9c-0.4,0.9-1.2,1.7-2.2,2s-2.2-0.1-3-0.9c-0.8-0.8-1.2-1.8-1.4-2.9
												c-0.2-1,0-2.2,1-2.5c0.4-0.1,0.8-0.1,1.2,0c1.8,0.3,3.6,0.7,5.4,1"/>
										</g>
									</g>
								</g>
							</g>
						</g>
					</g>
					<g>
						<g>
							<g>
								<g>
									<g>
										<g>
											<g>
												<path class="st5" d="M720,218.2c-0.1-0.2-1.1,0.5-2.7,0.2c-0.8-0.1-1.8-0.6-2.4-1.4c-0.6-0.8-1-2.1-0.8-3.3
													c0.1-0.3,0.2-0.6,0.3-0.8c0.2-0.2,0.1-0.2,0.3-0.2s0.6,0.1,0.9,0.1c0.3,0.1,0.6,0.1,0.9,0.2c1.2,0.2,2.2,0.4,3.1,0.5
													c1.8,0.3,2.9,0.4,2.9,0.3c0-0.1-1-0.5-2.8-0.9c-0.9-0.2-1.9-0.5-3.1-0.7c-0.3-0.1-0.6-0.1-0.9-0.2
													c-0.3-0.1-0.6-0.1-1-0.2c-0.2,0-0.5,0-0.7,0.2s-0.4,0.4-0.5,0.6c-0.2,0.3-0.3,0.7-0.4,1.1c-0.3,1.5,0.2,3,1,4
													c0.9,1,2,1.4,3,1.5s1.7-0.1,2.2-0.4C719.8,218.5,720,218.3,720,218.2z"/>
											</g>
										</g>
									</g>
								</g>
							</g>
						</g>
					</g>
				</g>
			</g>
			<g>
				<g>
					<g>
						<g>
							<path class="st6" d="M743.5,153.1c0,0,0.1,0.2,0.2,0.7c0.1,0.5,0.2,1.2,0.1,2.1c-0.2,1.8-1.2,4.5-3.9,6.5
								c-2.6,2.1-6.8,2.9-11,2.3c-4.3-0.6-8.6-2.7-13.2-4.5c-4.5-1.9-9.1-3.1-13.3-2.4c-4.1,0.7-7.4,3.1-9.5,5.4
								c-2.1,2.4-3.4,4.7-4.1,6.3c-0.7,1.7-0.9,2.6-1,2.6c0,0,0-0.3,0.1-0.7c0.1-0.5,0.3-1.1,0.6-2c0.6-1.7,1.8-4.1,3.9-6.6
								c2.1-2.4,5.4-5,9.7-5.7c4.3-0.8,9.1,0.5,13.7,2.3c4.6,1.9,8.8,3.9,13,4.5c4.1,0.7,8.1-0.1,10.6-2c2.6-1.9,3.6-4.5,3.9-6.2
								C743.7,154.1,743.4,153.1,743.5,153.1z"/>
						</g>
					</g>
				</g>
			</g>
			<g>
				<g>
					<g>
						<g>
							<path class="st6" d="M673.6,185.5c-0.1,0-0.1-1.2,0.4-2.9c0.5-1.8,1.5-4.2,3.2-6.4c0.9-1.1,1.8-2.1,2.8-2.9
								c0.9-0.8,2-1.4,2.9-1.5c1-0.2,1.7,0,2.2,0.3c0.5,0.2,0.7,0.5,0.6,0.5c0,0.1-1-0.7-2.7-0.3s-3.6,2.2-5.2,4.3
								c-1.7,2.2-2.7,4.4-3.3,6.1C673.9,184.4,673.7,185.5,673.6,185.5z"/>
						</g>
					</g>
				</g>
			</g>
			<g>
				<g>
					<g>
						<g>
							<path class="st6" d="M676.4,194.7c-0.1,0,0-1.2,0.6-2.9c0.6-1.8,1.7-4.1,3.5-6.3s3.9-3.7,5.6-4.6c1.6-0.9,2.8-1.2,2.8-1.1
								c0,0.1-1,0.6-2.5,1.5c-1.5,1-3.5,2.5-5.3,4.6s-2.9,4.3-3.6,6C676.8,193.7,676.6,194.8,676.4,194.7z"/>
						</g>
					</g>
				</g>
			</g>
		</g>
		<g>
			<g>
				<g>
					<g>
						<g>
							<g>
								<g>
									<g>
										<path class="st6" d="M771,632.3l24.4,32l12,30.9c0.9,2.2,3.4,3.3,5.6,2.2l0,0c1.2-0.6,2.1-1.7,2.3-3
											c1.5-8.4,6.9-39.2,5-41.4c-2.2-2.6-23.4-35.5-23.4-35.5L771,632.3z"/>
									</g>
								</g>
							</g>
						</g>
					</g>
				</g>
			</g>
			<g class="st10">
				<g>
					<g>
						<g>
							<g>
								<g>
									<g>
										<path class="st4" d="M812.9,697.5l5.7-46.6l1,1.4c0.9,1.2,1.3,2.7,1.2,4.1c-0.3,3.9-1.4,14.8-5.5,38.1
											C815.1,695.8,814.2,696.9,812.9,697.5L812.9,697.5z"/>
									</g>
								</g>
							</g>
						</g>
					</g>
				</g>
			</g>
			<g class="st10">
				<g>
					<g>
						<g>
							<g>
								<g>
									<g>
										<g>
											<path class="st4" d="M804.3,645.2c-0.4,1.2,0.2,2.6,1.4,3c1.1,0.5,2.6-0.2,3-1.3s-0.3-2.9-1.5-3.2s-2.9,0.5-3,1.7"/>
										</g>
									</g>
								</g>
							</g>
						</g>
					</g>
				</g>
			</g>
			<g>
				<g>
					<g>
						<g>
							<g>
								<g>
									<g>
										<g>
											<path class="st5" d="M810,677.8c-0.1,0.2-2.1-0.9-4.7-0.5c-2.6,0.4-4.1,2.2-4.3,2c-0.1-0.1,0.1-0.6,0.8-1.3
												s1.9-1.4,3.3-1.6c1.4-0.2,2.8,0,3.6,0.4C809.7,677.3,810.1,677.7,810,677.8z"/>
										</g>
									</g>
								</g>
							</g>
						</g>
					</g>
				</g>
			</g>
			<g>
				<g>
					<g>
						<g>
							<g>
								<g>
									<g>
										<g>
											<path class="st5" d="M810.9,683.9c-0.1,0.3-1.9,0-3.9,0.7c-2.1,0.7-3.3,2.1-3.5,1.9c-0.2-0.1,0.9-1.9,3.2-2.7
												C809,682.9,811,683.7,810.9,683.9z"/>
										</g>
									</g>
								</g>
							</g>
						</g>
					</g>
				</g>
			</g>
			<g>
				<g>
					<g>
						<g>
							<g>
								<g>
									<g>
										<g>
											<path class="st5" d="M810.3,669.1c0,0.3-2.8-0.2-6.1,0.7c-3.3,0.8-5.5,2.6-5.6,2.4c-0.2-0.1,1.9-2.3,5.4-3.2
												C807.5,668,810.4,668.9,810.3,669.1z"/>
										</g>
									</g>
								</g>
							</g>
						</g>
					</g>
				</g>
			</g>
			<g>
				<g>
					<g>
						<g>
							<g>
								<g>
									<g>
										<g>
											<path class="st5" d="M803.7,658.8c0.1,0.3-2.3,0.8-4.7,2.4c-2.4,1.6-3.9,3.5-4.1,3.4c-0.2-0.1,1-2.4,3.6-4.1
												C801.1,658.7,803.7,658.5,803.7,658.8z"/>
										</g>
									</g>
								</g>
							</g>
						</g>
					</g>
				</g>
			</g>
			<g>
				<g>
					<g>
						<g>
							<g>
								<g>
									<g>
										<g>
											<path class="st5" d="M796.8,649.2c0,0.3-2.6,0.5-5,2.4s-3.3,4.3-3.5,4.2c-0.1,0,0-0.7,0.4-1.7s1.3-2.2,2.6-3.2
												s2.7-1.5,3.8-1.7C796.1,649,796.8,649.1,796.8,649.2z"/>
										</g>
									</g>
								</g>
							</g>
						</g>
					</g>
				</g>
			</g>
			<g>
				<g>
					<g>
						<g>
							<g>
								<g>
									<g>
										<g>
											<path class="st5" d="M790.6,649.7c0,0-0.4-0.4-0.9-1.2s-1.1-2.2-1.4-3.9c-0.1-0.9-0.3-1.9,0.3-3c0.3-0.5,1-0.9,1.7-0.8
												c0.7,0.1,1.2,0.6,1.6,1.1c1.5,2.1,1.1,5.4-1,7.4c-2.1,1.9-5.2,2.1-7.4,1c-0.5-0.3-1.1-0.8-1.2-1.5
												c-0.2-0.7,0.3-1.4,0.9-1.7c1.1-0.6,2.1-0.4,3-0.4c1.8,0.1,3.2,0.5,4.1,0.9c0.9,0.4,1.3,0.7,1.3,0.8c-0.1,0.2-2-1-5.4-1.1
												c-0.8,0-1.8,0-2.6,0.4c-0.4,0.2-0.6,0.6-0.5,0.9c0.1,0.4,0.4,0.7,0.9,0.9c1.8,0.9,4.7,0.7,6.4-1c1.8-1.7,2.1-4.5,0.9-6.2
												c-0.3-0.4-0.7-0.7-1.1-0.8c-0.4-0.1-0.7,0.1-1,0.4c-0.4,0.7-0.4,1.7-0.3,2.5C789.3,647.9,790.7,649.6,790.6,649.7z"/>
										</g>
									</g>
								</g>
							</g>
						</g>
					</g>
				</g>
			</g>
		</g>
		<g>
			<g>
				<g>
					<g>
						<g>
							<g>
								<g>
									<g>
										<g>
											<g>
												<g>
													<path class="st6" d="M748.1,647.6l-4.7,32.5c0,0,31.6,13.3,31.3,19.4l-63.5-4.6l5.3-50.9L748.1,647.6z"/>
												</g>
											</g>
										</g>
									</g>
								</g>
							</g>
						</g>
					</g>
				</g>
				<g class="st10">
					<g>
						<g>
							<g>
								<g>
									<g>
										<g>
											<g>
												<g>
													<g>
														<path class="st4" d="M724.1,675.2c-1.3,0.2-2.3,1.5-2.1,2.8c0.1,1.3,1.4,2.3,2.7,2.1s2.5-1.7,2.2-2.9
															s-1.9-2.4-3.1-1.9"/>
													</g>
												</g>
											</g>
										</g>
									</g>
								</g>
							</g>
						</g>
					</g>
				</g>
				<g class="st10">
					<g>
						<g>
							<g>
								<g>
									<g>
										<g>
											<g>
												<g>
													<path class="st4" d="M711.2,695l0.5-5.1l61.1,6.5c0,0,2,1,2.1,3.6L711.2,695z"/>
												</g>
											</g>
										</g>
									</g>
								</g>
							</g>
						</g>
					</g>
				</g>
				<g>
					<g>
						<g>
							<g>
								<g>
									<g>
										<g>
											<g>
												<g>
													<g>
														<path class="st5" d="M744.4,679.9c0,0.3-1.6,0.3-3.2,1.1c-1.7,0.8-2.6,2-2.9,1.9c-0.3-0.1,0.4-1.9,2.4-2.9
															S744.5,679.6,744.4,679.9z"/>
													</g>
												</g>
											</g>
										</g>
									</g>
								</g>
							</g>
						</g>
					</g>
				</g>
				<g>
					<g>
						<g>
							<g>
								<g>
									<g>
										<g>
											<g>
												<g>
													<g>
														<path class="st5" d="M750.7,683.4c0,0.3-1.4,0.7-2.5,1.9c-1.2,1.2-1.6,2.5-2,2.5c-0.3,0-0.3-1.8,1.2-3.3
															C748.9,683,750.7,683.1,750.7,683.4z"/>
													</g>
												</g>
											</g>
										</g>
									</g>
								</g>
							</g>
						</g>
					</g>
				</g>
				<g>
					<g>
						<g>
							<g>
								<g>
									<g>
										<g>
											<g>
												<g>
													<g>
														<path class="st5" d="M753.6,691.7c-0.3,0-0.5-1.6,0.4-3.2c1-1.6,2.5-2.1,2.6-1.8s-0.9,1.1-1.7,2.4
															C754.2,690.4,753.9,691.7,753.6,691.7z"/>
													</g>
												</g>
											</g>
										</g>
									</g>
								</g>
							</g>
						</g>
					</g>
				</g>
				<g>
					<g>
						<g>
							<g>
								<g>
									<g>
										<g>
											<g>
												<g>
													<g>
														<path class="st5" d="M744.6,672.4c-0.2,0.3-1.5-0.3-3.3-0.4c-1.8-0.1-3.2,0.3-3.3,0c-0.2-0.2,1.3-1.2,3.4-1.1
															C743.5,671,744.8,672.1,744.6,672.4z"/>
													</g>
												</g>
											</g>
										</g>
									</g>
								</g>
							</g>
						</g>
					</g>
				</g>
			</g>
			<g class="st11">
				<g>
					<g>
						<g>
							<g>
								<g>
									<g>
										<g>
											<g>
												<polygon points="747.1,654.1 746.3,659.8 715.2,656.2 715.8,650.9 												"/>
											</g>
										</g>
									</g>
								</g>
							</g>
						</g>
					</g>
				</g>
			</g>
			<g>
				<g>
					<g>
						<g>
							<g>
								<g>
									<g>
										<g>
											<g>
												<g>
													<path class="st5" d="M745.5,665.8c0,0.1-1.3,0.2-3.2-0.4c-1-0.3-2.1-0.7-3.2-1.4c-0.6-0.3-1.1-0.7-1.7-1.2
														c-0.3-0.2-0.6-0.4-0.9-0.8c-0.3-0.4-0.4-1.2,0-1.7s1-0.6,1.4-0.6c0.5,0,0.8,0.2,1.2,0.3c0.7,0.2,1.3,0.6,1.9,0.9
														c1.1,0.7,2.1,1.5,2.7,2.2c1.3,1.5,1.7,2.7,1.6,2.8c-0.2,0.1-0.8-1-2.1-2.2c-0.7-0.6-1.6-1.3-2.7-1.9
														c-0.5-0.3-1.1-0.5-1.8-0.8c-0.7-0.2-1.2-0.3-1.4,0c-0.1,0.1-0.1,0.2,0,0.4s0.4,0.4,0.6,0.6c0.5,0.4,1,0.8,1.6,1.1
														c1,0.7,2.1,1.2,2.9,1.5C744.3,665.4,745.5,665.6,745.5,665.8z"/>
												</g>
											</g>
										</g>
									</g>
								</g>
							</g>
						</g>
					</g>
				</g>
			</g>
			<g>
				<g>
					<g>
						<g>
							<g>
								<g>
									<g>
										<g>
											<g>
												<g>
													<path class="st5" d="M745,666.2c-0.1,0-0.6-1.1-0.5-3.2c0.1-1,0.3-2.2,0.8-3.4c0.3-0.6,0.6-1.2,1-1.8s1-1.4,2.2-1.4
														c0.6,0,1.1,0.6,1.2,1c0.2,0.5,0.2,0.8,0.2,1.2c0,0.8-0.1,1.5-0.2,2.1c-0.3,1.3-1,2.4-1.7,3.1c-1.4,1.5-2.7,1.7-2.8,1.6
														c-0.1-0.2,1.1-0.6,2.2-2.1c0.6-0.7,1.1-1.7,1.3-2.9c0.1-0.6,0.2-1.2,0.1-1.8c0-0.7-0.2-1.3-0.5-1.2
														c-0.3,0-0.9,0.4-1.2,0.9c-0.4,0.5-0.7,1.1-1,1.6c-0.5,1.1-0.8,2.2-1,3.1C745,665,745.2,666.2,745,666.2z"/>
												</g>
											</g>
										</g>
									</g>
								</g>
							</g>
						</g>
					</g>
				</g>
			</g>
		</g>
		<g>
			<g>
				<g>
					<g>
						<g>
							<g>
								<g>
									<g>
										<g>
											<path class="st5" d="M767.9,377.6c0,0,15,28.7,15,52c0,4.9-30.4,248.7-30.4,248.7l-43-3.6l20.9-225.3l-6.8-45.8
												L767.9,377.6z"/>
										</g>
									</g>
								</g>
							</g>
						</g>
					</g>
					<g>
						<g>
							<g>
								<g>
									<g>
										<g>
											<path class="st5" d="M672.1,403c0,0,10,83.9,14.8,116.3c4.9,33.9,14.6,40.3,14.6,40.3L787.2,668l28.2-25l-73.8-110.9
												c0,0-15.6-132.4-15-129.1C727.2,406.3,672.1,403,672.1,403z"/>
										</g>
									</g>
								</g>
							</g>
						</g>
					</g>
					<g>
						<g>
							<g>
								<g>
									<g>
										<g>
											<g>
												<path class="st6" d="M703,561c0,0,0.2,0.4,0.7,1c0.6,0.7,1.3,1.7,2.2,2.9c2,2.6,4.8,6.1,8.2,10.5
													c6.9,9,16.3,21.3,26.7,34.9c10.4,13.6,19.9,26,26.9,34.7c3.5,4.4,6.4,7.9,8.4,10.3c1,1.1,1.8,2.1,2.3,2.8
													c0.5,0.6,0.8,0.9,0.9,0.9c0,0-0.2-0.4-0.7-1c-0.6-0.7-1.3-1.7-2.2-2.9c-2-2.6-4.8-6.1-8.2-10.5
													c-6.9-9-16.3-21.3-26.7-34.9c-10.4-13.6-19.9-26-26.9-34.7c-3.5-4.4-6.4-7.9-8.4-10.3c-1-1.1-1.8-2.1-2.3-2.8
													C703.3,561.3,703,561,703,561z"/>
											</g>
										</g>
									</g>
								</g>
							</g>
						</g>
					</g>
				</g>
				<g>
					<g>
						<g>
							<g>
								<path class="st6" d="M732.2,452.2c0,0,0,0.1,0,0.4s0.1,0.7,0.1,1.1c0.1,1,0.2,2.5,0.4,4.3c0.4,3.8,1,9.2,1.7,15.8
									c1.5,13.4,3.7,31.7,6,51.9c0.3,2.2,0.5,4.4,0.8,6.5v0.1l0.1,0.1c10.5,15.7,19.8,29.7,26.6,39.9c3.4,5,6.1,9,8,11.9
									c0.9,1.3,1.7,2.4,2.2,3.2c0.2,0.3,0.4,0.6,0.6,0.8c0.1,0.2,0.2,0.3,0.2,0.3s0-0.1-0.2-0.3c-0.1-0.2-0.3-0.5-0.5-0.9
									c-0.5-0.8-1.2-1.9-2.1-3.3c-1.9-2.9-4.5-7-7.8-12c-6.7-10.2-16-24.2-26.3-40l0.1,0.2c-0.2-2.1-0.5-4.3-0.8-6.5
									c-2.4-20.2-4.6-38.6-6.2-51.9c-0.8-6.6-1.5-11.9-2-15.7c-0.2-1.8-0.4-3.2-0.6-4.3c-0.1-0.4-0.1-0.8-0.2-1.1
									C732.2,452.3,732.2,452.2,732.2,452.2z"/>
							</g>
						</g>
					</g>
				</g>
			</g>
			<g class="st11">
				<g>
					<path d="M676,434.8c0,0,33.3,8.8,56.2,5.1c32.3-5.1,49.9-19.9,49.9-19.9l-2.9-9.2L674.6,424L676,434.8z"/>
				</g>
			</g>
		</g>
		<g>
			<g>
				<g>
					<g>
						<g>
							<g>
								<g>
									<g>
										<path class="st12" d="M728.4,244.1l25.5,7.3c0,0,15,107,18.7,122.6c4.7,19.6,9.9,35,9.5,40.5c0,0-11.6,15.4-45.7,19.4
											c-34.1,4-66.7-5.5-66.7-5.5l-2.8-64.2c0,0-15.8-57.5-16.1-67c-0.8-23.5,4.9-37.3,4.9-37.3l34-15.2
											C699.1,255.2,723.4,258.6,728.4,244.1z"/>
									</g>
								</g>
							</g>
						</g>
					</g>
				</g>
				<g>
					<g>
						<g>
							<path class="st12" d="M775.6,271c-7-15.6-21.8-19.6-21.8-19.6l2.2,53.8l14.1,17.6l-14.1,9.5l23.6,30.6
								c0,0,22.6-10.6,23.6-20.2C804.3,333.2,779.4,279.4,775.6,271z"/>
						</g>
					</g>
					<g>
						<g>
							<path class="st12" d="M710.8,330.3l-5.8,20c19.9,23.5,74.6,12.6,74.6,12.6l-21.8-30.7C746.6,335.9,710.8,330.3,710.8,330.3z"
								/>
						</g>
					</g>
				</g>
				<g>
					<g>
						<g>
							<g>
								<g>
									<g>
										<path class="st8" d="M706,327.4c0,0-10.2-20.1-11.3-20.3c-1.1-0.2-17.2-5.9-17.2-5.9s-0.9,2.2,0,4l-5.8,0.7
											c0,0,0.9,3.6,2.8,4l-2.1,1.8c0,0,1.7,2.4,3.9,3.3c2.2,1,3.8,0,3.8,0s-0.7,1.3,2.6,3.4s10,11.7,10,11.7L706,327.4z"/>
									</g>
								</g>
							</g>
						</g>
					</g>
				</g>
				<g>
					<g>
						<g>
							<g>
								<g>
									<g>
										<g>
											<path class="st9" d="M678.1,305.3c-0.1,0.2,4.6,2.1,10.5,4.1c1.5,0.5,2.9,0.9,4.1,1.5c1.2,0.5,1.9,1.4,2.4,2.3
												c1,1.7,1.3,3,1.5,2.9c0.1,0,0-1.3-0.9-3.2c-0.4-0.9-1.3-2.1-2.6-2.7c-1.3-0.7-2.7-1-4.2-1.6
												C683,306.5,678.1,305.1,678.1,305.3z"/>
										</g>
									</g>
								</g>
							</g>
						</g>
					</g>
				</g>
				<g>
					<g>
						<g>
							<g>
								<g>
									<g>
										<g>
											<path class="st9" d="M674.3,310c0,0.1,1.1,0.6,2.9,1.1c1.8,0.5,4.4,0.9,7.2,1.7c2.7,0.7,5.1,1.9,6.5,3.1
												c1.5,1.1,2.1,2.1,2.2,2c0.1,0-0.4-1.2-1.8-2.5c-1.4-1.3-3.8-2.7-6.7-3.4c-2.8-0.8-5.4-1.1-7.3-1.4
												C675.5,310.2,674.4,309.9,674.3,310z"/>
										</g>
									</g>
								</g>
							</g>
						</g>
					</g>
				</g>
				<g>
					<g>
						<g>
							<g>
								<g>
									<g>
										<g>
											<path class="st9" d="M689,318.5c0.2-0.2-1.4-1.7-3.8-2.6c-2.5-0.9-4.7-0.6-4.6-0.4c0,0.3,2,0.4,4.3,1.2
												C687.2,317.5,688.9,318.7,689,318.5z"/>
										</g>
									</g>
								</g>
							</g>
						</g>
					</g>
				</g>
				<g>
					<g>
						<g>
							<path class="st12" d="M665,260.1c7.3,1.8,9.4,10.3,14.4,27.4s10.5,34.6,10.5,34.6l2.8,8.2L756,315l12.8,20.3
								c0,0-41.1,32.7-70.7,34c-14.4-1.3-23.8-6.7-35.5-26.2c-6.6-11-11-21.2-13-31.1c-2.8-13.8-7.4-27.3-3.5-40.4
								C649.2,261.4,654.6,257.6,665,260.1z"/>
						</g>
					</g>
				</g>
				<g>
					<g>
						<g>
							<g>
								<g>
									<g>
										<g>
											<path class="st13" d="M677.7,304.6"/>
										</g>
									</g>
								</g>
							</g>
						</g>
					</g>
				</g>
				<g>
					<g>
						<g>
							<g>
								<g>
									<g>
										<g>
											<path class="st5" d="M757.8,300.5c0.2,0-0.4-3.9-1.3-8.5c-1-4.7-2-8.4-2.2-8.3c-0.2,0,0.4,3.9,1.3,8.5
												C756.6,296.8,757.6,300.6,757.8,300.5z"/>
										</g>
									</g>
								</g>
							</g>
						</g>
					</g>
				</g>
				<g class="st11">
					<g>
						<g>
							<g>
								<g>
									<path d="M713.2,366.5c3.2-1.4,8-2.8,11.5-3.3c4.2-0.6,7.8,0.6,12,1.3c12.6,2,21.9,0.5,33.8,0l0.6,3.6
										c-5.2,4.1-11.8,5.4-18.4,5.2c-6-0.1-11.9-2.1-17.9-1.9c-4.7,0.1-9.3,1.6-13.9,2.8c-7.7,2-15.6,3.3-23.5,2.1
										c-19.7-3-27.2-18.4-30.5-25.6c1.2,1.9,3.9,5.9,5.4,7.4C684.8,371.2,702.8,370.9,713.2,366.5z"/>
								</g>
							</g>
						</g>
					</g>
				</g>
			</g>
			<g>
				<g>
					<g>
						<path class="st5" d="M771,335.5c0,0-0.1,0.1-0.3,0.3c-0.2,0.2-0.6,0.4-0.9,0.7c-0.8,0.6-2.1,1.5-3.7,2.7
							c-3.2,2.3-7.9,5.5-13.9,9.1c-6,3.7-13.2,7.8-21.6,11.8c-2.1,1-4.3,2-6.5,2.9c-1.1,0.5-2.3,0.9-3.4,1.4
							c-1.2,0.4-2.4,0.8-3.5,1.2c-4.8,1.7-9.9,3-15.2,3.8c-2.7,0.1-5.4,0.5-8,0.2s-5.2-0.8-7.6-1.8c-4.8-1.8-8.8-4.8-12.2-8
							c-6.7-6.5-11-13.9-14.2-20.1c-3.2-6.3-5.1-11.6-6.4-15.3c-0.6-1.9-1.1-3.3-1.3-4.3c-0.1-0.5-0.2-0.8-0.3-1.1
							c-0.1-0.3-0.1-0.4-0.1-0.4s0.1,0.1,0.1,0.4c0.1,0.3,0.2,0.7,0.4,1.1c0.3,1,0.8,2.4,1.5,4.3c1.3,3.7,3.4,9,6.6,15.2
							c3.2,6.2,7.6,13.4,14.2,19.8c3.4,3.1,7.3,6.1,12,7.8c2.3,1,4.8,1.4,7.4,1.7c2.6,0.3,5.2-0.1,7.8-0.2c5.2-0.8,10.3-2,15-3.7
							c1.2-0.4,2.4-0.8,3.5-1.2c1.1-0.5,2.3-0.9,3.4-1.4c2.3-0.9,4.4-1.9,6.5-2.9c8.4-3.9,15.6-8,21.7-11.6c6-3.6,10.8-6.7,14-8.9
							c1.6-1.1,2.8-1.9,3.7-2.5c0.4-0.3,0.7-0.5,1-0.7C770.9,335.5,771,335.5,771,335.5z"/>
					</g>
				</g>
			</g>
			<g>
				<g>
					<g>
						<g>
							<path class="st5" d="M677.7,279.9c0,0,0.1,0.4,0.2,1c0.2,0.7,0.5,1.7,0.8,2.9c0.7,2.6,1.8,6.3,3.1,10.7
								c2.7,9.2,6.4,21.7,10.6,35.9l0.1,0.4l0.4-0.1c1.5-0.4,3.2-0.7,4.9-1.1c15.6-3.3,29.7-6.6,39.8-9.3c5.1-1.3,9.1-2.5,11.9-3.3
								c1.3-0.4,2.4-0.8,3.2-1c0.7-0.2,1.1-0.4,1.1-0.4s-0.4,0.1-1.1,0.3c-0.8,0.2-1.9,0.5-3.2,0.9c-2.8,0.7-6.9,1.8-12,3.1
								c-10.1,2.5-24.2,5.7-39.8,9c-1.7,0.4-3.4,0.7-5,1.1l0.5,0.3c-4.3-14.1-8.1-26.7-10.8-35.8c-1.4-4.5-2.5-8.1-3.3-10.7
								c-0.4-1.2-0.7-2.1-0.9-2.9C677.9,280.2,677.7,279.9,677.7,279.9z"/>
						</g>
					</g>
				</g>
			</g>
		</g>
		<g>
			<g>
				<g>
					<g>
						<g>
							<g>
								<g>
									<g>
										<g>
											<path class="st5" d="M774.1,330.6l27.2-0.5c2.5,0.1,4.8-1.6,5.9-4.4l15.9-48.1c1.2-3.6-1.5-6.6-5.8-6.8l-33.2-1.9
												c-5.3,0-8.2,1.7-9.1,4.7l-10.4,37.9C761.9,320.3,766.3,330.3,774.1,330.6z"/>
										</g>
									</g>
								</g>
							</g>
						</g>
					</g>
					<g>
						<g>
							<g>
								<path class="st8" d="M754.8,312.2l4.3-9.2l8-2.3l-2.6,8.5c2.8,1.4,6.5,2.2,8.9,0.9c2.4-1.3,11.9-10.8,13.7-9.9
									s3.4,3.1,1.7,5.1c-1.6,2.1-10.5,8.5-8.7,10.4s12.1-6.4,15.1-5.8s4.8,2.4,3.2,3.6c-1.7,1.3-5.8,5.4-6.5,7.2
									c0.2,2.3,1.3,5.5,0.3,6c-1.5,0.8-6.5,2.6-7.5,2.6c-0.5,0-4.4,1.5-7.9,2.9c-4,1.6-8.3,1.7-12.4,0.3l-2.1-0.7
									c-3.2-1.1-5.3-4.1-5.3-7.5l0.1-6.8L754.8,312.2z"/>
							</g>
						</g>
					</g>
				</g>
			</g>
		</g>
	</g>
</g>
</svg>
