<?xml version="1.0" encoding="utf-8"?>
<!-- Generator: Adobe Illustrator 27.8.0, SVG Export Plug-In . SVG Version: 6.00 Build 0)  -->
<svg version="1.1" id="Camada_1" xmlns="http://www.w3.org/2000/svg" xmlns:xlink="http://www.w3.org/1999/xlink" x="0px" y="0px"
	 viewBox="0 0 1000 700" style="enable-background:new 0 0 1000 700;" xml:space="preserve">
<style type="text/css">
	.st0{display:none;}
	.st1{display:inline;stroke:#1A2E35;stroke-width:0.1;stroke-linecap:round;stroke-linejoin:round;stroke-miterlimit:10;}
	.st2{fill:#F5F5F5;}
	.st3{fill:#E1E1E1;}
	.st4{fill:#FFFFFF;}
	.st5{fill:#FAFAFA;}
	.st6{fill:#ECECEC;}
	.st7{fill:#375A64;}
	.st8{fill:#1A2E35;}
	.st9{fill:none;stroke:#1A2E35;stroke-linecap:round;stroke-linejoin:round;stroke-miterlimit:10;}
	.st10{opacity:0.2;}
	.st11{fill:#7C4236;}
	.st12{fill:#C17560;}
	.st13{fill:#1C1B1B;}
	.st14{opacity:0.3;}
	.st15{display:inline;fill:#1C1B1B;}
</style>
<g id="Camada_2_00000078003750394492352200000015069880196783395253_" class="st0">
	<rect x="-155.1" y="-135.4" class="st1" width="1239.4" height="997.7"/>
</g>
<g id="Camada_1_00000138551616053330506980000004702935698911219637_">
	<g id="Camada_2_00000111170905442070270370000010040591140420895926_">
	</g>
	<g>
		<g>
			<g>
				<path class="st2" d="M63.9,318.9c1.7-1,3.5-1.8,5.4-2.3l1.1-5.3l9-0.2l1.3,5.3c1.9,0.5,3.7,1.2,5.4,2.1l4.5-3l6.5,6.2l-2.8,4.6
					c1,1.7,1.8,3.5,2.3,5.4l5.3,1.1l0.2,9l-5.3,1.3c-0.5,1.9-1.2,3.7-2.1,5.4l3,4.5l-6.2,6.5l-4.6-2.8c-1.7,1-3.5,1.8-5.4,2.3
					l-1.1,5.3l-9,0.2l-1.3-5.3c-1.9-0.5-3.7-1.2-5.4-2.1l-4.5,3l-6.5-6.2l2.8-4.6c-1-1.7-1.8-3.5-2.3-5.4l-5.3-1.1l-0.2-9l5.3-1.3
					c0.5-1.9,1.2-3.7,2.1-5.4l-3-4.5l6.2-6.5L63.9,318.9L63.9,318.9z M68.7,330.8c-3.7,3.8-3.6,9.9,0.2,13.6
					c3.8,3.7,9.9,3.6,13.6-0.2c3.7-3.8,3.6-9.9-0.2-13.6C78.5,326.9,72.4,327,68.7,330.8z"/>
			</g>
		</g>
		<g>
			<g>
				<path class="st2" d="M558.8,184.6c1.4-0.9,3-1.5,4.6-2l0.9-4.5l7.6-0.1l1.1,4.5c1.6,0.4,3.2,1,4.6,1.8l3.9-2.5l5.5,5.3l-2.4,3.9
					c0.9,1.4,1.5,3,2,4.6l4.5,0.9l0.1,7.6l-4.5,1.1c-0.4,1.6-1,3.2-1.8,4.6l2.5,3.9l-5.3,5.5l-3.9-2.4c-1.4,0.9-3,1.5-4.6,2
					l-0.9,4.5l-7.6,0.1l-1.1-4.5c-1.6-0.4-3.2-1-4.6-1.8l-3.9,2.5l-5.5-5.3l2.4-3.9c-0.9-1.4-1.5-3-2-4.6l-4.5-0.9l-0.1-7.6l4.5-1.1
					c0.4-1.6,1-3.2,1.8-4.6l-2.5-3.9l5.3-5.5L558.8,184.6L558.8,184.6z M562.8,194.8c-3.1,3.3-3.1,8.5,0.2,11.6s8.5,3.1,11.6-0.2
					s3.1-8.5-0.2-11.6C571.2,191.5,566,191.6,562.8,194.8z"/>
			</g>
		</g>
		<g>
			<g>
				<path class="st2" d="M116.6,173.5c2.3-1.4,4.8-2.5,7.4-3.2l1.5-7.3l12.4-0.2l1.8,7.3c2.6,0.6,5.1,1.6,7.5,3l6.3-4.1l8.9,8.6
					l-3.9,6.4c1.4,2.3,2.5,4.8,3.2,7.4l7.3,1.5l0.2,12.4l-7.3,1.8c-0.6,2.6-1.6,5.1-3,7.5l4.1,6.3l-8.6,8.9l-6.4-3.9
					c-2.3,1.4-4.8,2.5-7.4,3.2l-1.5,7.3l-12.4,0.2l-1.8-7.3c-2.6-0.6-5.1-1.6-7.5-3l-6.3,4.1l-8.9-8.6l3.9-6.4
					c-1.4-2.3-2.5-4.8-3.2-7.4l-7.3-1.5l-0.2-12.4l7.3-1.8c0.6-2.6,1.6-5.1,3-7.5l-4.1-6.3l8.6-8.9L116.6,173.5L116.6,173.5z
					 M123.2,190.1c-5.1,5.3-5,13.7,0.3,18.8s13.7,5,18.8-0.3s5-13.7-0.3-18.8C136.8,184.6,128.3,184.8,123.2,190.1z"/>
			</g>
		</g>
		<g>
			<g>
				<path class="st2" d="M489,402.7c1.7-1,3.5-1.8,5.4-2.3l1.1-5.3l9-0.2l1.3,5.3c1.9,0.5,3.7,1.2,5.4,2.1l4.5-3l6.5,6.2l-2.8,4.6
					c1,1.7,1.8,3.5,2.3,5.4l5.3,1.1l0.2,9l-5.3,1.3c-0.5,1.9-1.2,3.7-2.1,5.4l3,4.5l-6.2,6.5l-4.6-2.8c-1.7,1-3.5,1.8-5.4,2.3
					l-1.1,5.3l-9,0.2l-1.3-5.3c-1.9-0.5-3.7-1.2-5.4-2.1l-4.5,3l-6.5-6.2l2.8-4.6c-1-1.7-1.8-3.5-2.3-5.4l-5.3-1.1l-0.2-9l5.3-1.3
					c0.5-1.9,1.2-3.7,2.1-5.4l-3-4.5l6.2-6.5L489,402.7L489,402.7z M493.8,414.6c-3.7,3.8-3.6,9.9,0.2,13.6
					c3.8,3.7,9.9,3.6,13.6-0.2c3.7-3.8,3.6-9.9-0.2-13.6C503.6,410.7,497.5,410.8,493.8,414.6z"/>
			</g>
		</g>
		<g>
			<g>
				<path class="st2" d="M514.3,563.4c1.7-1,3.5-1.8,5.4-2.3l1.1-5.3l9-0.2l1.3,5.3c1.9,0.5,3.7,1.2,5.4,2.1l4.5-3l6.5,6.2l-2.8,4.6
					c1,1.7,1.8,3.5,2.3,5.4l5.3,1.1l0.2,9l-5.3,1.3c-0.5,1.9-1.2,3.7-2.1,5.4l3,4.5l-6.2,6.5l-4.6-2.8c-1.7,1-3.5,1.8-5.4,2.3
					l-1.1,5.3l-9,0.2l-1.3-5.3c-1.9-0.5-3.7-1.2-5.4-2.1l-4.5,3l-6.5-6.2l2.8-4.6c-1-1.7-1.8-3.5-2.3-5.4l-5.3-1.1l-0.2-9l5.3-1.3
					c0.5-1.9,1.2-3.7,2.1-5.4l-3-4.5l6.2-6.5L514.3,563.4L514.3,563.4z M519.1,575.3c-3.7,3.8-3.6,9.9,0.2,13.6
					c3.8,3.7,9.9,3.6,13.6-0.2c3.7-3.8,3.6-9.9-0.2-13.6C528.9,571.4,522.8,571.5,519.1,575.3z"/>
			</g>
		</g>
		<g>
			<g>
				<path class="st2" d="M298.7,462.8c1.1-0.7,2.4-1.2,3.6-1.6l0.7-3.6l6.1-0.1l0.9,3.6c1.3,0.3,2.5,0.8,3.7,1.4l3.1-2l4.4,4.2
					l-1.9,3.1c0.7,1.1,1.2,2.4,1.6,3.6l3.6,0.7l0.1,6.1l-3.6,0.9c-0.3,1.3-0.8,2.5-1.4,3.7l2,3.1l-4.2,4.4l-3.1-1.9
					c-1.1,0.7-2.4,1.2-3.6,1.6l-0.7,3.6l-6.1,0.1l-0.9-3.6c-1.3-0.3-2.5-0.8-3.7-1.4l-3.1,2l-4.4-4.2l1.9-3.1
					c-0.7-1.1-1.2-2.4-1.6-3.6l-3.6-0.7l-0.1-6.1l3.6-0.9c0.3-1.3,0.8-2.5,1.4-3.7l-2-3.1l4.2-4.4L298.7,462.8L298.7,462.8z
					 M301.9,470.9c-2.5,2.6-2.4,6.7,0.2,9.2s6.7,2.4,9.2-0.2s2.4-6.7-0.2-9.2C308.5,468.2,304.4,468.3,301.9,470.9z"/>
			</g>
		</g>
		<g>
			<g>
				<path class="st2" d="M307.7,509.5c2.1-1.3,4.3-2.2,6.6-2.9l1.4-6.5l11-0.2l1.6,6.5c2.3,0.6,4.6,1.4,6.7,2.6l5.6-3.7l7.9,7.7
					l-3.5,5.7c1.3,2.1,2.2,4.3,2.9,6.6l6.5,1.4l0.2,11l-6.5,1.6c-0.6,2.3-1.4,4.6-2.6,6.7l3.7,5.6l-7.7,7.9l-5.7-3.5
					c-2.1,1.3-4.3,2.2-6.6,2.9l-1.4,6.5l-11,0.2l-1.6-6.5c-2.3-0.6-4.6-1.4-6.7-2.6l-5.6,3.7l-7.9-7.7l3.5-5.7
					c-1.3-2.1-2.2-4.3-2.9-6.6l-6.5-1.4l-0.2-11l6.5-1.6c0.6-2.3,1.4-4.6,2.6-6.7l-3.7-5.6l7.7-7.9L307.7,509.5L307.7,509.5z
					 M313.6,524.2c-4.5,4.7-4.4,12.2,0.3,16.7c4.7,4.5,12.2,4.4,16.7-0.3s4.4-12.2-0.3-16.7C325.6,519.3,318.1,519.5,313.6,524.2z"
					/>
			</g>
		</g>
		<g>
			<g>
				<g>
					<g>
						<rect x="793.9" y="62.1" class="st3" width="167.6" height="282.3"/>
					</g>
				</g>
			</g>
			<g>
				<g>
					<g>
						<rect x="798.5" y="67.5" class="st2" width="158" height="272.4"/>
					</g>
				</g>
			</g>
			<g>
				<g>
					<g>
						<g>
							<rect x="877.4" y="82" class="st4" width="63" height="97.7"/>
						</g>
					</g>
				</g>
				<g>
					<g>
						<g>
							<path class="st3" d="M912.3,90.6c0,1.3-1.1,2.4-2.4,2.4c-1.3,0-2.4-1.1-2.4-2.4s1.1-2.4,2.4-2.4
								C911.2,88.3,912.3,89.3,912.3,90.6z"/>
						</g>
					</g>
				</g>
			</g>
			<g>
				<g>
					<g>
						<g>
							<rect x="814" y="206.9" class="st4" width="63" height="97.7"/>
						</g>
					</g>
				</g>
				<g>
					<g>
						<g>
							<path class="st3" d="M848.8,215.6c0,1.3-1.1,2.4-2.4,2.4c-1.3,0-2.4-1.1-2.4-2.4c0-1.3,1.1-2.4,2.4-2.4
								C847.8,213.2,848.8,214.3,848.8,215.6z"/>
						</g>
					</g>
				</g>
			</g>
			<g>
				<g>
					<g>
						<g>
							<rect x="813.1" y="82" class="st4" width="53.8" height="76.3"/>
						</g>
					</g>
				</g>
				<g>
					<g>
						<g>
							<path class="st3" d="M842,88.9c0,1.1-0.9,2-2,2s-2-0.9-2-2s0.9-2,2-2C841.1,87,842,87.9,842,88.9z"/>
						</g>
					</g>
				</g>
			</g>
			<g>
				<g>
					<g>
						<g>
							
								<rect x="886.6" y="211.4" transform="matrix(0.9937 -0.1121 0.1121 0.9937 -19.7258 104.0666)" class="st4" width="57.9" height="32.1"/>
						</g>
					</g>
				</g>
				<g>
					<g>
						<g>
							<circle class="st3" cx="914.4" cy="217.6" r="2"/>
						</g>
					</g>
				</g>
			</g>
			<g>
				<g>
					<g>
						<g>
							<path class="st3" d="M868.5,229.2c0,0.3-9.9,0.5-22.1,0.5c-12.2,0-22.1-0.2-22.1-0.5s9.9-0.5,22.1-0.5
								C858.7,228.8,868.5,229,868.5,229.2z"/>
						</g>
					</g>
				</g>
			</g>
			<g>
				<g>
					<g>
						<g>
							<path class="st3" d="M868.5,236.2c0,0.3-9.9,0.5-22.1,0.5c-12.2,0-22.1-0.2-22.1-0.5s9.9-0.5,22.1-0.5
								C858.7,235.8,868.5,236,868.5,236.2z"/>
						</g>
					</g>
				</g>
			</g>
			<g>
				<g>
					<g>
						<g>
							<path class="st3" d="M868.5,243.2c0,0.3-9.9,0.5-22.1,0.5c-12.2,0-22.1-0.2-22.1-0.5s9.9-0.5,22.1-0.5
								C858.7,242.7,868.5,243,868.5,243.2z"/>
						</g>
					</g>
				</g>
			</g>
			<g>
				<g>
					<g>
						<g>
							<path class="st3" d="M868.5,250.2c0,0.3-9.9,0.5-22.1,0.5c-12.2,0-22.1-0.2-22.1-0.5s9.9-0.5,22.1-0.5
								C858.7,249.7,868.5,249.9,868.5,250.2z"/>
						</g>
					</g>
				</g>
			</g>
			<g>
				<g>
					<g>
						<g>
							<path class="st3" d="M868.5,257.2c0,0.3-9.9,0.5-22.1,0.5c-12.2,0-22.1-0.2-22.1-0.5s9.9-0.5,22.1-0.5
								C858.7,256.7,868.5,256.9,868.5,257.2z"/>
						</g>
					</g>
				</g>
			</g>
			<g>
				<g>
					<g>
						<g>
							<path class="st3" d="M868.5,264.2c0,0.3-9.9,0.5-22.1,0.5c-12.2,0-22.1-0.2-22.1-0.5s9.9-0.5,22.1-0.5
								C858.7,263.7,868.5,263.9,868.5,264.2z"/>
						</g>
					</g>
				</g>
			</g>
			<g>
				<g>
					<g>
						<g>
							<path class="st3" d="M868.5,271.2c0,0.3-9.9,0.5-22.1,0.5c-12.2,0-22.1-0.2-22.1-0.5s9.9-0.5,22.1-0.5
								C858.7,270.7,868.5,270.9,868.5,271.2z"/>
						</g>
					</g>
				</g>
			</g>
			<g>
				<g>
					<g>
						<g>
							<path class="st3" d="M937.1,221.7c0,0.3-9.7,1.8-21.8,3.6c-12.1,1.7-21.9,2.9-21.9,2.6c0-0.3,9.7-1.8,21.8-3.6
								C927.2,222.7,937.1,221.5,937.1,221.7z"/>
						</g>
					</g>
				</g>
			</g>
			<g>
				<g>
					<g>
						<g>
							<path class="st3" d="M938,226.1c0,0.3-9.7,1.8-21.8,3.6c-12.1,1.7-21.9,2.9-21.9,2.6c0-0.3,9.7-1.8,21.8-3.6
								C928.1,227,937.9,225.9,938,226.1z"/>
						</g>
					</g>
				</g>
			</g>
			<g>
				<g>
					<g>
						<g>
							<path class="st3" d="M938.8,230.2c0,0.3-9.7,1.8-21.8,3.6c-12.1,1.7-21.9,2.9-21.9,2.6c0-0.3,9.7-1.8,21.8-3.6
								C928.9,231.1,938.7,229.9,938.8,230.2z"/>
						</g>
					</g>
				</g>
			</g>
			<g>
				<g>
					<g>
						<g>
							<path class="st3" d="M934.9,102.5c0,0.3-11.2,0.5-25,0.5s-25-0.2-25-0.5s11.2-0.5,25-0.5S934.9,102.2,934.9,102.5z"/>
						</g>
					</g>
				</g>
			</g>
			<g>
				<g>
					<g>
						<g>
							<path class="st3" d="M934.9,106.6c0,0.3-11.2,0.5-25,0.5s-25-0.2-25-0.5s11.2-0.5,25-0.5S934.9,106.3,934.9,106.6z"/>
						</g>
					</g>
				</g>
			</g>
			<g>
				<g>
					<g>
						<g>
							<path class="st3" d="M934.9,110.8c0,0.3-11.2,0.5-25,0.5s-25-0.2-25-0.5s11.2-0.5,25-0.5S934.9,110.5,934.9,110.8z"/>
						</g>
					</g>
				</g>
			</g>
			<g>
				<g>
					<g>
						<g>
							<path class="st3" d="M934.9,114.9c0,0.3-11.2,0.5-25,0.5s-25-0.2-25-0.5s11.2-0.5,25-0.5
								C923.7,114.5,934.9,114.7,934.9,114.9z"/>
						</g>
					</g>
				</g>
			</g>
			<g>
				<g>
					<g>
						<g>
							<path class="st3" d="M934.9,119.1c0,0.3-11.2,0.5-25,0.5s-25-0.2-25-0.5s11.2-0.5,25-0.5S934.9,118.8,934.9,119.1z"/>
						</g>
					</g>
				</g>
			</g>
			<g>
				<g>
					<g>
						<g>
							<path class="st3" d="M934.9,123.2c0,0.3-11.2,0.5-25,0.5s-25-0.2-25-0.5s11.2-0.5,25-0.5C923.7,122.8,934.9,123,934.9,123.2z
								"/>
						</g>
					</g>
				</g>
			</g>
			<g>
				<g>
					<g>
						<g>
							<path class="st3" d="M934.9,127.4c0,0.3-11.2,0.5-25,0.5s-25-0.2-25-0.5s11.2-0.5,25-0.5S934.9,127.1,934.9,127.4z"/>
						</g>
					</g>
				</g>
			</g>
			<g>
				<g>
					<g>
						<g>
							<path class="st3" d="M934.9,139.7c0,0.3-11.2,0.5-25,0.5s-25-0.2-25-0.5s11.2-0.5,25-0.5
								C923.7,139.3,934.9,139.5,934.9,139.7z"/>
						</g>
					</g>
				</g>
			</g>
			<g>
				<g>
					<g>
						<g>
							<path class="st3" d="M935.2,144.1c0,0.3-11.2,0.5-25,0.5s-25-0.2-25-0.5s11.2-0.5,25-0.5
								C924.1,143.7,935.2,143.9,935.2,144.1z"/>
						</g>
					</g>
				</g>
			</g>
			<g>
				<g>
					<g>
						<g>
							<path class="st3" d="M935.6,148.5c0,0.3-11.2,0.5-25,0.5s-25-0.2-25-0.5s11.2-0.5,25-0.5C924.4,148,935.6,148.3,935.6,148.5z
								"/>
						</g>
					</g>
				</g>
			</g>
			<g>
				<g>
					<g>
						<g>
							<path class="st3" d="M935.9,152.9c0,0.3-11.2,0.5-25,0.5s-25-0.2-25-0.5s11.2-0.5,25-0.5
								C924.8,152.4,935.9,152.6,935.9,152.9z"/>
						</g>
					</g>
				</g>
			</g>
			<g>
				<g>
					<g>
						<g>
							<path class="st3" d="M936.3,157.3c0,0.3-11.2,0.5-25,0.5s-25-0.2-25-0.5s11.2-0.5,25-0.5S936.3,157,936.3,157.3z"/>
						</g>
					</g>
				</g>
			</g>
			<g>
				<g>
					<g>
						<g>
							<path class="st3" d="M936.6,161.7c0,0.3-11.2,0.5-25,0.5s-25-0.2-25-0.5s11.2-0.5,25-0.5
								C925.5,161.2,936.6,161.4,936.6,161.7z"/>
						</g>
					</g>
				</g>
			</g>
		</g>
		<g>
			<g>
				<g>
					<g>
						<path class="st2" d="M234.7,234.8h-36.1c-2.5,0-4.5-2-4.5-4.5v-50c0-2.5,2-4.5,4.5-4.5h22.9l17.7,18.3v36.2
							C239.2,232.8,237.2,234.8,234.7,234.8z"/>
					</g>
				</g>
				<g>
					<g>
						<path class="st3" d="M235.3,234.8H198c-2.2,0-3.9-1.8-3.9-3.9v-14h45.1v14C239.2,233,237.5,234.8,235.3,234.8z"/>
					</g>
				</g>
				<g>
					<g>
						<path class="st5" d="M210.1,228.4l1.1-1.4c0.5,0.6,1,1,1.6,1c0.8,0,1.2-0.5,1.2-1.5v-4.2h-3v-1.6h5.1v5.7
							c0,2.2-1.1,3.3-3.2,3.3C211.8,229.7,210.7,229.3,210.1,228.4z"/>
					</g>
					<g>
						<path class="st5" d="M217.4,228.9l0.7-1.4c0.6,0.4,1.5,0.7,2.4,0.7s1.2-0.2,1.2-0.6c0-1.1-4.1,0-4.1-2.7
							c0-1.3,1.2-2.2,3.1-2.2c0.9,0,2,0.2,2.6,0.6l-0.7,1.4c-0.7-0.4-1.3-0.5-2-0.5c-0.9,0-1.3,0.3-1.3,0.6c0,1.2,4.1,0,4.1,2.7
							c0,1.3-1.2,2.2-3.2,2.2C219.1,229.7,218,229.4,217.4,228.9z"/>
					</g>
				</g>
				<g>
					<g>
						<path class="st5" d="M203.6,207.5l1.4-1.7c0.9,1.3,2.1,2,3.6,2c1.9,0,2.9-1.2,2.9-3.5v-9.6h-6.2v-2.1h8.6v11.6
							c0,3.8-1.9,5.7-5.3,5.7C206.6,210,204.7,209.1,203.6,207.5z"/>
					</g>
					<g>
						<path class="st5" d="M217,208.4l1-1.9c1.1,0.8,2.9,1.3,4.5,1.3c2.2,0,3.1-0.7,3.1-1.8c0-2.9-8.2-0.4-8.2-5.5
							c0-2.3,2.1-3.9,5.4-3.9c1.7,0,3.6,0.4,4.7,1.2l-1,1.9c-1.2-0.8-2.5-1-3.7-1c-2,0-3.1,0.8-3.1,1.8c0,3.1,8.2,0.6,8.2,5.6
							c0,2.3-2.1,3.8-5.6,3.8C220.2,209.9,218,209.3,217,208.4z"/>
					</g>
				</g>
				<g>
					<g>
						<path class="st6" d="M221.5,175.8v14.1c0,2.3,1.9,4.2,4.2,4.2h13.5L221.5,175.8z"/>
					</g>
				</g>
				<g>
					<g>
						<path class="st3" d="M221.7,191.1c0,0-0.2,3.4,3.7,4.5c0.1,0,0.3,0.1,0.4,0.1c1.8,0.3,13.4,2.4,13.4,2.1c0-0.3,0-3.8,0-3.8
							h-13.5C225.7,194.1,222.3,193.9,221.7,191.1z"/>
					</g>
				</g>
			</g>
		</g>
		<g>
			<polygon class="st7" points="217.9,682.2 282.2,638.8 593.8,637.3 608.1,682.9 			"/>
			<polygon class="st7" points="607.2,700 217.3,699.7 217.3,681.4 607.4,682.6 			"/>
			<g>
				<path class="st8" d="M597.7,682.5c0,0.2-84.2,0.3-188.1,0.2c-103.9,0-188.1-0.2-188.1-0.4s84.2-0.3,188.1-0.2
					C513.5,682.1,597.7,682.3,597.7,682.5z"/>
			</g>
		</g>
		<g>
			<path class="st4" d="M196.1,255H81.9c-1.7,0-3.1,1.4-3.1,3.1v187.8c0,1.7,1.4,3.1,3.1,3.1h114.2c1.7,0,3.1-1.4,3.1-3.1V258.1
				C199.2,256.4,197.8,255,196.1,255z M131.2,404.1H109c-1.3,0-2.4-1.1-2.4-2.4s1.1-2.4,2.4-2.4h22.2c1.3,0,2.4,1.1,2.4,2.4
				S132.6,404.1,131.2,404.1z M131.2,366.8H109c-1.3,0-2.4-1.1-2.4-2.4s1.1-2.4,2.4-2.4h22.2c1.3,0,2.4,1.1,2.4,2.4
				C133.6,365.8,132.6,366.8,131.2,366.8z M131.2,331.6H109c-1.3,0-2.4-1.1-2.4-2.4s1.1-2.4,2.4-2.4h22.2c1.3,0,2.4,1.1,2.4,2.4
				S132.6,331.6,131.2,331.6z"/>
			<path class="st3" d="M199.2,276.7H78.9v-18.1c0-2,1.6-3.6,3.6-3.6h113.2c1.9,0,3.5,1.6,3.5,3.5V276.7z"/>
			<g>
				<path class="st8" d="M195.1,448.9c0,0,0.6,0.1,1.6-0.3c0.5-0.2,1-0.6,1.5-1.2s0.9-1.5,0.9-2.5c0-4.2,0-10.3-0.1-18.1
					c0-15.7-0.1-38.5-0.1-66.6s0-61.6-0.1-98.8v-1.7c0-0.6,0-1.1-0.1-1.7c-0.3-1-1.1-1.9-2.1-2.4c-0.5-0.2-1-0.3-1.6-0.3h-1.8
					c-1.2,0-2.4,0-3.6,0c-4.8,0-9.6,0-14.4,0c-9.7,0-19.7,0-29.8,0c-20.2,0-41.2,0-62.6,0c-1.2,0-2.5,0.6-3.1,1.7
					c-0.3,0.5-0.5,1.1-0.6,1.7c0,0.6,0,1.3,0,2c0,2.7,0,5.3,0,8c0,5.3,0,10.6,0,15.8c0,10.4,0,20.7,0,30.9c0,20.2,0,39.7,0,58.3
					c0,18.6,0,36.2,0,52.8c0,4.1,0,8.2,0,12.2c0,2,0,4,0,5.9c-0.2,1.9,1.2,3.7,3,4c0.9,0.2,1.9,0.1,2.8,0.1s1.9,0,2.8,0
					c1.9,0,3.7,0,5.6,0c3.7,0,7.3,0,10.8,0c28.1,0,50.9,0.1,66.6,0.1c7.9,0,14,0,18.1,0.1c2.1,0,3.6,0,4.7,0
					C194.6,448.9,195.1,448.9,195.1,448.9s-0.5,0-1.6,0s-2.6,0-4.7,0c-4.1,0-10.2,0-18.1,0.1c-15.7,0-38.5,0.1-66.6,0.1
					c-3.5,0-7.1,0-10.8,0c-1.8,0-3.7,0-5.6,0c-0.9,0-1.9,0-2.8,0c-1,0-1.9,0.1-2.9-0.1s-1.9-0.8-2.5-1.6c-0.6-0.8-0.9-1.9-0.9-2.9
					c0-2,0-3.9,0-5.9c0-4,0-8,0-12.2c0-16.5,0-34.2,0-52.8c0-18.6,0-38.1,0-58.3c0-10.1,0-20.4,0-30.9c0-5.2,0-10.5,0-15.8
					c0-2.6,0-5.3,0-8c0-0.7,0-1.3,0-2s0.3-1.4,0.7-2c0.8-1.2,2.2-2,3.7-2c21.4,0,42.4,0,62.6,0c10.1,0,20,0,29.8,0
					c4.9,0,9.7,0,14.4,0c1.2,0,2.4,0,3.6,0h1.8c0.6,0,1.3,0.1,1.8,0.4c1.1,0.5,2.1,1.6,2.4,2.8c0.2,0.6,0.2,1.3,0.2,1.8v1.7
					c0,37.2,0,70.6-0.1,98.8c0,28.1-0.1,50.9-0.1,66.6c0,7.9,0,14-0.1,18.1c0,1.1-0.4,1.9-0.9,2.6c-0.5,0.6-1.1,1-1.6,1.2
					s-0.9,0.2-1.2,0.3C195.3,448.9,195.1,448.9,195.1,448.9z"/>
			</g>
			<path class="st4" d="M96.6,267.5c0,2-1.6,3.5-3.5,3.5c-2,0-3.5-1.6-3.5-3.5c0-2,1.6-3.5,3.5-3.5S96.6,265.6,96.6,267.5z"/>
			<circle class="st4" cx="104" cy="267.5" r="3.5"/>
			<circle class="st4" cx="114.9" cy="267.5" r="3.5"/>
			<g>
				<path class="st8" d="M131.2,306.1H109c-1.3,0-2.4-1.1-2.4-2.4l0,0c0-1.3,1.1-2.4,2.4-2.4h22.2c1.3,0,2.4,1.1,2.4,2.4l0,0
					C133.6,305,132.6,306.1,131.2,306.1z"/>
			</g>
			<g>
				<path class="st3" d="M131.2,318.6H109c-1.3,0-2.4-1.1-2.4-2.4l0,0c0-1.3,1.1-2.4,2.4-2.4h22.2c1.3,0,2.4,1.1,2.4,2.4l0,0
					C133.6,317.6,132.6,318.6,131.2,318.6z"/>
			</g>
			<g>
				<path class="st3" d="M131.9,353.1h-22.2c-1.3,0-2.4-1.1-2.4-2.4l0,0c0-1.3,1.1-2.4,2.4-2.4h22.2c1.3,0,2.4,1.1,2.4,2.4l0,0
					C134.3,352,133.2,353.1,131.9,353.1z"/>
			</g>
			<g>
				<path class="st7" d="M166.7,306.1h-22.2c-1.3,0-2.4-1.1-2.4-2.4l0,0c0-1.3,1.1-2.4,2.4-2.4h22.2c1.3,0,2.4,1.1,2.4,2.4l0,0
					C169.1,305,168,306.1,166.7,306.1z"/>
			</g>
			<g>
				<path class="st8" d="M190.7,318.6h-46.3c-1.2,0-2.2-1.1-2.2-2.4l0,0c0-1.3,1-2.4,2.2-2.4h46.3c1.2,0,2.2,1.1,2.2,2.4l0,0
					C192.9,317.6,191.9,318.6,190.7,318.6z"/>
			</g>
			<g>
				<path class="st3" d="M189.5,331.6h-46.7c-1.2,0-2.3-1.1-2.3-2.4l0,0c0-1.3,1-2.4,2.3-2.4h46.7c1.2,0,2.3,1.1,2.3,2.4l0,0
					C191.7,330.6,190.7,331.6,189.5,331.6z"/>
			</g>
			<g>
				<path class="st3" d="M155.7,342.2H109c-1.2,0-2.3-1.1-2.3-2.4l0,0c0-1.3,1-2.4,2.3-2.4h46.7c1.2,0,2.3,1.1,2.3,2.4l0,0
					C158,341.1,157,342.2,155.7,342.2z"/>
			</g>
			<g>
				<path class="st7" d="M98.2,303.7c0,1.3-1.1,2.4-2.4,2.4s-2.4-1.1-2.4-2.4s1.1-2.4,2.4-2.4C97.1,301.2,98.2,302.3,98.2,303.7z"/>
			</g>
			<g>
				<path class="st7" d="M98.2,291.6c0,1.3-1.1,2.4-2.4,2.4s-2.4-1.1-2.4-2.4s1.1-2.4,2.4-2.4S98.2,290.3,98.2,291.6z"/>
			</g>
			<g>
				<path class="st7" d="M98.2,316.2c0,1.3-1.1,2.4-2.4,2.4s-2.4-1.1-2.4-2.4s1.1-2.4,2.4-2.4C97.1,313.8,98.2,314.9,98.2,316.2z"/>
			</g>
			<g>
				<path class="st7" d="M98.2,329.2c0,1.3-1.1,2.4-2.4,2.4s-2.4-1.1-2.4-2.4s1.1-2.4,2.4-2.4C97.1,326.8,98.2,327.9,98.2,329.2z"/>
			</g>
			<g>
				<path class="st3" d="M131.9,388.3h-22.2c-1.3,0-2.4-1.1-2.4-2.4l0,0c0-1.3,1.1-2.4,2.4-2.4h22.2c1.3,0,2.4,1.1,2.4,2.4l0,0
					C134.3,387.2,133.2,388.3,131.9,388.3z"/>
			</g>
			<g>
				<path class="st3" d="M189.5,366.8h-46.7c-1.2,0-2.3-1.1-2.3-2.4l0,0c0-1.3,1-2.4,2.3-2.4h46.7c1.2,0,2.3,1.1,2.3,2.4l0,0
					C191.7,365.8,190.7,366.8,189.5,366.8z"/>
			</g>
			<g>
				<path class="st3" d="M155.7,377.3H109c-1.2,0-2.3-1.1-2.3-2.4l0,0c0-1.3,1-2.4,2.3-2.4h46.7c1.2,0,2.3,1.1,2.3,2.4l0,0
					C158,376.3,157,377.3,155.7,377.3z"/>
			</g>
			<g>
				<path class="st7" d="M98.2,364.4c0,1.3-1.1,2.4-2.4,2.4s-2.4-1.1-2.4-2.4s1.1-2.4,2.4-2.4S98.2,363.1,98.2,364.4z"/>
			</g>
			<path class="st7" d="M122.5,294.5h-15.2c-0.3,0-0.5-0.2-0.5-0.5v-3.6c0-0.3,0.2-0.5,0.5-0.5h15.2c0.3,0,0.5,0.2,0.5,0.5v3.6
				C123,294.3,122.8,294.5,122.5,294.5z"/>
			<g>
				<g>
					<path class="st8" d="M131.2,417H109c-1.3,0-2.4-1.1-2.4-2.4l0,0c0-1.3,1.1-2.4,2.4-2.4h22.2c1.3,0,2.4,1.1,2.4,2.4l0,0
						C133.6,415.9,132.6,417,131.2,417z"/>
				</g>
				<g>
					<path class="st7" d="M166.7,417h-22.2c-1.3,0-2.4-1.1-2.4-2.4l0,0c0-1.3,1.1-2.4,2.4-2.4h22.2c1.3,0,2.4,1.1,2.4,2.4l0,0
						C169.1,415.9,168,417,166.7,417z"/>
				</g>
				<g>
					<path class="st7" d="M98.2,414.6c0,1.3-1.1,2.4-2.4,2.4s-2.4-1.1-2.4-2.4s1.1-2.4,2.4-2.4C97.1,412.1,98.2,413.2,98.2,414.6z"
						/>
				</g>
			</g>
			<g>
				<path class="st7" d="M98.2,426.1c0,1.3-1.1,2.4-2.4,2.4s-2.4-1.1-2.4-2.4s1.1-2.4,2.4-2.4S98.2,424.8,98.2,426.1z"/>
			</g>
			<path class="st7" d="M122.5,429h-15.2c-0.3,0-0.5-0.2-0.5-0.5v-3.6c0-0.3,0.2-0.5,0.5-0.5h15.2c0.3,0,0.5,0.2,0.5,0.5v3.6
				C123,428.8,122.8,429,122.5,429z"/>
		</g>
		<g>
			<g>
				<path class="st4" d="M379.3,435.5v139.8H599V435.5H379.3z M434.1,473.3c0-1,0.8-1.8,1.8-1.8h16.3c1,0,1.8,0.8,1.8,1.8
					s-0.8,1.8-1.8,1.8h-16.3C434.9,475,434.1,474.2,434.1,473.3z M444.4,509.9c0-1,0.8-1.8,1.8-1.8h17.2c1,0,1.8,0.8,1.8,1.8
					s-0.8,1.8-1.8,1.8h-17.2C445.2,511.7,444.4,510.9,444.4,509.9z M466.6,560.8h-10.7c-1,0-1.8-0.8-1.8-1.8s0.8-1.8,1.8-1.8h10.7
					c1,0,1.8,0.8,1.8,1.8S467.6,560.8,466.6,560.8z M466.6,540.6h-10.7c-1,0-1.8-0.8-1.8-1.8s0.8-1.8,1.8-1.8h10.7
					c1,0,1.8,0.8,1.8,1.8S467.6,540.6,466.6,540.6z M468.4,521.1c0,0.2-0.2,0.4-0.4,0.4h-13.4c-0.2,0-0.4-0.2-0.4-0.4v-2.8
					c0-0.2,0.2-0.4,0.4-0.4H468c0.2,0,0.4,0.2,0.4,0.4V521.1z M511.7,493.6h-12.3c-1,0-1.8-0.8-1.8-1.8s0.8-1.8,1.8-1.8h12.3
					c1,0,1.8,0.8,1.8,1.8C513.4,492.8,512.6,493.6,511.7,493.6z"/>
				<g>
					<rect x="379.3" y="435.5" class="st6" width="39.6" height="139.8"/>
				</g>
				<g>
					<g>
						<g>
							<g>
								<g>
									<g>
										<g>
											<path class="st3" d="M396.7,450.6c0.2-0.1,0.4-0.2,0.7-0.3l0.1-0.7h1.1l0.2,0.6c0.2,0.1,0.5,0.1,0.7,0.3l0.6-0.4l0.8,0.8
												l-0.3,0.6c0.1,0.2,0.2,0.4,0.3,0.7l0.7,0.1v1.1l-0.6,0.2c-0.1,0.2-0.1,0.5-0.3,0.7l0.4,0.6l-0.8,0.8l-0.6-0.3
												c-0.2,0.1-0.4,0.2-0.7,0.3l-0.1,0.7h-1.1l-0.2-0.6c-0.2-0.1-0.5-0.1-0.7-0.3l-0.6,0.4l-0.8-0.8l0.3-0.6
												c-0.1-0.2-0.2-0.4-0.3-0.7l-0.7-0.1v-1.1l0.6-0.2c0.1-0.2,0.1-0.5,0.3-0.7l-0.4-0.6l0.8-0.8L396.7,450.6L396.7,450.6z
												 M397.3,452.1c-0.5,0.5-0.4,1.2,0,1.7c0.5,0.5,1.2,0.4,1.7,0c0.5-0.5,0.4-1.2,0-1.7C398.5,451.6,397.8,451.6,397.3,452.1
												z"/>
										</g>
									</g>
								</g>
							</g>
						</g>
					</g>
				</g>
				<g>
					<path class="st3" d="M405.9,481.5h-17.2c-1,0-1.8-0.8-1.8-1.8l0,0c0-1,0.8-1.8,1.8-1.8h17.2c1,0,1.8,0.8,1.8,1.8l0,0
						C407.6,480.7,406.8,481.5,405.9,481.5z"/>
				</g>
				<g>
					<path class="st3" d="M405.9,472.4h-17.2c-1,0-1.8-0.8-1.8-1.8l0,0c0-1,0.8-1.8,1.8-1.8h17.2c1,0,1.8,0.8,1.8,1.8l0,0
						C407.6,471.6,406.8,472.4,405.9,472.4z"/>
				</g>
				<g>
					<path class="st3" d="M405.9,464.2h-17.2c-1,0-1.8-0.8-1.8-1.8l0,0c0-1,0.8-1.8,1.8-1.8h17.2c1,0,1.8,0.8,1.8,1.8l0,0
						C407.6,463.4,406.8,464.2,405.9,464.2z"/>
				</g>
				<g>
					<path class="st8" d="M452.2,456.2h-16.3c-1,0-1.8-0.8-1.8-1.8l0,0c0-1,0.8-1.8,1.8-1.8h16.3c1,0,1.8,0.8,1.8,1.8l0,0
						C454,455.4,453.2,456.2,452.2,456.2z"/>
				</g>
				<g>
					<path class="st3" d="M452.2,465.4h-16.3c-1,0-1.8-0.8-1.8-1.8l0,0c0-1,0.8-1.8,1.8-1.8h16.3c1,0,1.8,0.8,1.8,1.8l0,0
						C454,464.6,453.2,465.4,452.2,465.4z"/>
				</g>
				<g>
					<path class="st8" d="M445.2,493.6h-9.4c-1,0-1.8-0.8-1.8-1.8l0,0c0-1,0.8-1.8,1.8-1.8h9.4c1,0,1.8,0.8,1.8,1.8l0,0
						C447,492.8,446.2,493.6,445.2,493.6z"/>
				</g>
				<g>
					<path class="st8" d="M445.2,503.2h-9.4c-1,0-1.8-0.8-1.8-1.8l0,0c0-1,0.8-1.8,1.8-1.8h9.4c1,0,1.8,0.8,1.8,1.8l0,0
						C447,502.4,446.2,503.2,445.2,503.2z"/>
				</g>
				<g>
					<path class="st3" d="M473.1,503.2h-17.2c-1,0-1.8-0.8-1.8-1.8l0,0c0-1,0.8-1.8,1.8-1.8h17.2c1,0,1.8,0.8,1.8,1.8l0,0
						C474.9,502.4,474.1,503.2,473.1,503.2z"/>
				</g>
				<g>
					<path class="st7" d="M492.9,560.8h-18.7c-1,0-1.8-0.8-1.8-1.8l0,0c0-1,0.8-1.8,1.8-1.8h18.7c1,0,1.8,0.8,1.8,1.8l0,0
						C494.6,560,493.8,560.8,492.9,560.8z"/>
				</g>
				<g>
					<path class="st3" d="M505.9,560.8h-2.7c-1,0-1.8-0.8-1.8-1.8l0,0c0-1,0.8-1.8,1.8-1.8h2.7c1,0,1.8,0.8,1.8,1.8l0,0
						C507.7,560,506.9,560.8,505.9,560.8z"/>
				</g>
				<g>
					<path class="st3" d="M491.7,540.6h-15.8c-1,0-1.8-0.8-1.8-1.8l0,0c0-1,0.8-1.8,1.8-1.8h15.8c1,0,1.8,0.8,1.8,1.8l0,0
						C493.5,539.8,492.7,540.6,491.7,540.6z"/>
				</g>
				<g>
					<path class="st3" d="M526.4,549.4h-50.5c-1,0-1.8-0.8-1.8-1.8l0,0c0-1,0.8-1.8,1.8-1.8h50.5c1,0,1.8,0.8,1.8,1.8l0,0
						C528.2,548.6,527.4,549.4,526.4,549.4z"/>
				</g>
				<g>
					<path class="st7" d="M532.2,540.6H500c-1,0-1.8-0.8-1.8-1.8l0,0c0-1,0.8-1.8,1.8-1.8h32.2c1,0,1.8,0.8,1.8,1.8l0,0
						C534,539.8,533.2,540.6,532.2,540.6z"/>
				</g>
				<g>
					<path class="st7" d="M489.5,521.5h-16.1c-0.2,0-0.4-0.2-0.4-0.4v-2.8c0-0.2,0.2-0.4,0.4-0.4h16.1c0.2,0,0.4,0.2,0.4,0.4v2.8
						C489.9,521.3,489.8,521.5,489.5,521.5z"/>
				</g>
				<g>
					<path class="st3" d="M501.1,521.5H495c-0.2,0-0.4-0.2-0.4-0.4v-2.8c0-0.2,0.2-0.4,0.4-0.4h6.1c0.2,0,0.4,0.2,0.4,0.4v2.8
						C501.5,521.3,501.3,521.5,501.1,521.5z"/>
				</g>
				<g>
					<path class="st3" d="M526.6,521.5h-19.5c-0.2,0-0.4-0.2-0.4-0.4v-2.8c0-0.2,0.2-0.4,0.4-0.4h19.5c0.2,0,0.4,0.2,0.4,0.4v2.8
						C527,521.3,526.8,521.5,526.6,521.5z"/>
				</g>
				<g>
					<path class="st8" d="M475,511.7h-3.8c-1,0-1.8-0.8-1.8-1.8l0,0c0-1,0.8-1.8,1.8-1.8h3.8c1,0,1.8,0.8,1.8,1.8l0,0
						C476.8,510.9,476,511.7,475,511.7z"/>
				</g>
				<g>
					<path class="st3" d="M507.4,511.7H483c-1,0-1.8-0.8-1.8-1.8l0,0c0-1,0.8-1.8,1.8-1.8h24.4c1,0,1.8,0.8,1.8,1.8l0,0
						C509.2,510.9,508.4,511.7,507.4,511.7z"/>
				</g>
				<g>
					<path class="st7" d="M478.4,456.2H462c-1,0-1.8-0.8-1.8-1.8l0,0c0-1,0.8-1.8,1.8-1.8h16.3c1,0,1.8,0.8,1.8,1.8l0,0
						C480.2,455.4,479.4,456.2,478.4,456.2z"/>
				</g>
				<g>
					<path class="st8" d="M499.4,465.4H462c-1,0-1.8-0.8-1.8-1.8l0,0c0-1,0.8-1.8,1.8-1.8h37.4c1,0,1.8,0.8,1.8,1.8l0,0
						C501.2,464.6,500.4,465.4,499.4,465.4z"/>
				</g>
				<g>
					<path class="st3" d="M539.7,475H462c-1,0-1.8-0.8-1.8-1.8l0,0c0-1,0.8-1.8,1.8-1.8h77.6c1,0,1.8,0.8,1.8,1.8l0,0
						C541.5,474.2,540.7,475,539.7,475z"/>
				</g>
				<g>
					<path class="st3" d="M498.7,481.8H462c-1,0-1.8-0.8-1.8-1.8l0,0c0-1,0.8-1.8,1.8-1.8h36.6c1,0,1.8,0.8,1.8,1.8l0,0
						C500.4,481,499.6,481.8,498.7,481.8z"/>
				</g>
				<g>
					<path class="st7" d="M491.2,493.6h-36.6c-1,0-1.8-0.8-1.8-1.8l0,0c0-1,0.8-1.8,1.8-1.8h36.6c1,0,1.8,0.8,1.8,1.8l0,0
						C492.9,492.8,492.1,493.6,491.2,493.6z"/>
				</g>
				<g>
					<path class="st8" d="M543,493.5h-23.2c-1,0-1.8-0.8-1.8-1.8l0,0c0-1,0.8-1.8,1.8-1.8H543c1,0,1.8,0.8,1.8,1.8l0,0
						C544.8,492.7,544,493.5,543,493.5z"/>
				</g>
				<g>
					<path class="st3" d="M574.6,493.5h-23.2c-1,0-1.8-0.8-1.8-1.8l0,0c0-1,0.8-1.8,1.8-1.8h23.2c1,0,1.8,0.8,1.8,1.8l0,0
						C576.4,492.7,575.6,493.5,574.6,493.5z"/>
				</g>
				<g>
					<path class="st3" d="M398.4,491h-9.8c-1,0-1.8-0.8-1.8-1.8l0,0c0-1,0.8-1.8,1.8-1.8h9.8c1,0,1.8,0.8,1.8,1.8l0,0
						C400.2,490.2,399.4,491,398.4,491z"/>
				</g>
				<g>
					<path class="st3" d="M395.5,519.7h-6.9c-1,0-1.8-0.8-1.8-1.8l0,0c0-1,0.8-1.8,1.8-1.8h6.9c1,0,1.8,0.8,1.8,1.8l0,0
						C397.2,518.9,396.4,519.7,395.5,519.7z"/>
				</g>
				<g>
					<path class="st3" d="M407.6,500.6h-19c-1,0-1.8-0.8-1.8-1.8l0,0c0-1,0.8-1.8,1.8-1.8h19c1,0,1.8,0.8,1.8,1.8l0,0
						C409.4,499.8,408.6,500.6,407.6,500.6z"/>
				</g>
				<g>
					<path class="st3" d="M404.3,510.1h-15.7c-1,0-1.8-0.8-1.8-1.8l0,0c0-1,0.8-1.8,1.8-1.8h15.7c1,0,1.8,0.8,1.8,1.8l0,0
						C406.1,509.4,405.3,510.1,404.3,510.1z"/>
				</g>
				<g>
					<path class="st7" d="M427.9,454.4c0,1-0.8,1.8-1.8,1.8s-1.8-0.8-1.8-1.8s0.8-1.8,1.8-1.8S427.9,453.4,427.9,454.4z"/>
				</g>
				<g>
					<circle class="st7" cx="426.1" cy="444.9" r="1.8"/>
				</g>
				<g>
					<circle class="st7" cx="426.1" cy="463.6" r="1.8"/>
				</g>
				<g>
					<circle class="st7" cx="426.1" cy="473.3" r="1.8"/>
				</g>
				<g>
					<circle class="st7" cx="426.1" cy="482.9" r="1.8"/>
				</g>
				<g>
					<path class="st7" d="M427.9,492.5c0,1-0.8,1.8-1.8,1.8s-1.8-0.8-1.8-1.8s0.8-1.8,1.8-1.8S427.9,491.5,427.9,492.5z"/>
				</g>
				<g>
					<circle class="st7" cx="426.1" cy="502.1" r="1.8"/>
				</g>
				<g>
					<circle class="st7" cx="426.1" cy="511.7" r="1.8"/>
				</g>
				<g>
					<path class="st7" d="M427.9,521.3c0,1-0.8,1.8-1.8,1.8s-1.8-0.8-1.8-1.8s0.8-1.8,1.8-1.8S427.9,520.3,427.9,521.3z"/>
				</g>
				<g>
					<path class="st7" d="M427.9,531c0,1-0.8,1.8-1.8,1.8s-1.8-0.8-1.8-1.8s0.8-1.8,1.8-1.8S427.9,530,427.9,531z"/>
				</g>
				<g>
					<circle class="st7" cx="426.1" cy="540.6" r="1.8"/>
				</g>
				<g>
					<path class="st7" d="M427.9,550.2c0,1-0.8,1.8-1.8,1.8s-1.8-0.8-1.8-1.8s0.8-1.8,1.8-1.8S427.9,549.2,427.9,550.2z"/>
				</g>
				<g>
					<circle class="st7" cx="426.1" cy="559.8" r="1.8"/>
				</g>
				<path class="st3" d="M595.2,416.5H383.5c-2.3,0-4.2,1.9-4.2,4.2v14.9H599v-15.2C599,418.2,597.3,416.5,595.2,416.5z"/>
				<g>
					<circle class="st4" cx="390.7" cy="426.6" r="2.6"/>
					<path class="st4" d="M401.4,426.6c0,1.4-1.2,2.6-2.6,2.6s-2.6-1.2-2.6-2.6s1.2-2.6,2.6-2.6
						C400.2,423.9,401.4,425.1,401.4,426.6z"/>
					<path class="st4" d="M409.4,426.6c0,1.4-1.2,2.6-2.6,2.6s-2.6-1.2-2.6-2.6s1.2-2.6,2.6-2.6
						C408.2,423.9,409.4,425.1,409.4,426.6z"/>
				</g>
			</g>
			<polygon class="st4" points="426.1,573.1 444.6,593.2 461.5,573.1 			"/>
			<g>
				<path class="st8" d="M593.1,575.3c0,0,0.7,0.1,1.9-0.4c0.6-0.2,1.3-0.6,2-1.2c0.7-0.6,1.4-1.6,1.7-2.8c0.2-0.6,0.2-1.3,0.2-2
					s0-1.5,0-2.2c0-1.6,0-3.3,0-5.1c0-3.7,0-8,0-12.8c0-19.3-0.1-47.2-0.1-81.7c0-8.6,0-17.7,0-27.1c0-4.7,0-9.5,0-14.4
					c0-1.2,0-2.5,0-3.7c-0.1-1.2-0.6-2.3-1.4-3.2c-0.8-0.9-1.9-1.5-3.1-1.8c-1.2-0.2-2.5-0.1-3.7-0.1c-20.3,0-42,0-64.8,0
					s-46.8,0-71.6,0c-12.4,0-25,0-37.9,0c-6.4,0-12.9,0-19.4,0c-3.2,0-6.5,0-9.8,0c-0.8,0-1.7,0-2.4,0c-0.8,0.1-1.5,0.3-2.2,0.7
					c-1.4,0.8-2.4,2.1-2.7,3.6c-0.2,1-0.1,2.2-0.2,3.4v3.4c0,2.3,0,4.6,0,6.8c0,4.6,0,9.1,0,13.6c0,9,0,18,0,26.8
					c0,17.7,0,34.9,0,51.7c0,8.4,0,16.6,0,24.8c0,4.1,0,8.1,0,12.1c0,2,0,4,0,5.9c0.1,1.9,1.2,3.7,2.8,4.6c0.8,0.5,1.7,0.7,2.7,0.7
					s1.9,0,2.9,0c1.9,0,3.9,0,5.8,0c3.8,0,7.7,0,11.4,0c7.5,0,14.9,0,22.1,0h0.1l0.1,0.1c5.8,6.2,11.5,12.1,17,17.9h-0.4
					c5.2-6.2,10.2-12.1,15-17.9l0.1-0.1h0.1c41.1,0,74.5,0.1,97.7,0.1c11.6,0,20.5,0,26.7,0.1c3,0,5.4,0,6.9,0
					C592.3,575.2,593.1,575.3,593.1,575.3s-0.8,0-2.4,0c-1.6,0-3.9,0-6.9,0c-6.1,0-15.1,0-26.7,0.1c-23.1,0-56.5,0.1-97.7,0.1
					l0.2-0.1c-4.8,5.7-9.8,11.7-15,17.9l-0.2,0.2l-0.2-0.2c-5.5-5.8-11.2-11.7-17-17.9l0.2,0.1c-7.2,0-14.6,0-22.1,0
					c-3.8,0-7.6,0-11.4,0c-1.9,0-3.9,0-5.8,0c-1,0-1.9,0-2.9,0s-2-0.3-2.9-0.8c-1.8-1-3-3-3.1-5c0-2,0-4,0-6c0-4,0-8,0-12.1
					c0-8.1,0-16.4,0-24.8c0-16.8,0-34,0-51.7c0-8.8,0-17.8,0-26.8c0-4.5,0-9,0-13.6c0-2.3,0-4.6,0-6.8v-3.4v-1.7
					c0-0.6,0-1.2,0.2-1.8c0.4-1.7,1.5-3.2,3-4c0.8-0.4,1.6-0.7,2.5-0.8c0.9-0.1,1.7,0,2.5,0c3.3,0,6.5,0,9.8,0c6.5,0,13,0,19.4,0
					c12.8,0,25.5,0,37.9,0c24.8,0,48.8,0,71.6,0c22.8,0,44.5,0,64.8,0c1.3,0,2.5-0.1,3.8,0.1c1.3,0.3,2.5,1,3.3,1.9
					c0.9,1,1.4,2.2,1.6,3.5c0.1,1.3,0,2.5,0,3.7c0,4.9,0,9.7,0,14.4c0,9.4,0,18.5,0,27.1c0,34.5-0.1,62.4-0.1,81.7
					c0,4.8,0,9.1,0,12.8c0,1.9,0,3.6,0,5.1c0,0.8,0,1.5,0,2.2s0,1.4-0.2,2c-0.3,1.2-1,2.2-1.8,2.8c-0.7,0.7-1.5,1-2.1,1.2
					s-1.1,0.3-1.4,0.3C593.2,575.3,593.1,575.3,593.1,575.3z"/>
			</g>
		</g>
		<g>
			<path class="st4" d="M391.1,279.5H223.8c-1.8,0-3.2,1.4-3.2,3.2v85.6c0,1.8,1.4,3.2,3.2,3.2h166.7c2.1,0,3.8-1.7,3.8-3.8v-85
				C394.3,281,392.9,279.5,391.1,279.5z M270.6,327.1h-20.2c-1.2,0-2.2-1-2.2-2.2s1-2.2,2.2-2.2h20.2c1.2,0,2.2,1,2.2,2.2
				S271.9,327.1,270.6,327.1z M329,338.6h-46.2c-1.2,0-2.2-1-2.2-2.2s1-2.2,2.2-2.2H329c1.2,0,2.2,1,2.2,2.2S330.2,338.6,329,338.6z
				"/>
			<path class="st3" d="M394.3,299.3H220.6V283c0-1.9,1.6-3.5,3.5-3.5h166.8c1.9,0,3.5,1.6,3.5,3.5v16.3H394.3z"/>
			<g>
				<path class="st8" d="M389.4,371.5c0,0,0.5,0,1.3-0.2s2.1-0.9,2.9-2.4c0.4-0.8,0.6-1.7,0.5-2.8c0-1.1,0-2.3,0-3.5
					c0-2.6,0-5.5,0-8.8c0-13.3-0.1-32.4-0.1-56.1c0-3,0-6,0-9.1c0-1.5,0-3.1,0-4.7c0.1-1.5-0.7-3-2.1-3.7c-0.7-0.3-1.4-0.4-2.3-0.3
					c-0.8,0-1.6,0-2.5,0c-1.6,0-3.3,0-5,0c-3.4,0-6.8,0-10.3,0c-13.9,0-28.8,0-44.5,0c-31.3,0-65.8,0-101.9,0c-0.6,0-1.1,0-1.6,0.1
					s-1,0.3-1.4,0.6c-0.8,0.6-1.4,1.6-1.6,2.6c-0.1,0.5,0,1.1-0.1,1.6v1.7v3.4c0,4.5,0,8.9,0,13.3c0,8.8,0,17.5,0,26s0,16.9,0,25.1
					c0,4.1,0,8.2,0,12.2c-0.1,1.9,1.1,3.8,2.9,4.4c0.9,0.4,1.8,0.3,2.8,0.3s2,0,2.9,0c31.3,0,59.5,0,83.2,0.1
					c23.7,0,42.8,0.1,56.1,0.1c6.6,0,11.8,0,15.3,0.1c1.7,0,3.1,0,4,0C388.9,371.5,389.4,371.5,389.4,371.5s-0.5,0-1.4,0s-2.2,0-4,0
					c-3.5,0-8.6,0-15.3,0.1c-13.3,0-32.4,0.1-56.1,0.1s-51.9,0-83.2,0.1c-1,0-2,0-2.9,0c-1,0-2,0-3-0.4c-2-0.8-3.3-2.9-3.2-5
					c0-4,0-8.1,0-12.2c0-8.2,0-16.6,0-25.1s0-17.2,0-26c0-4.4,0-8.8,0-13.3v-3.4v-1.7c0-0.6,0-1.1,0.1-1.7c0.2-1.2,0.9-2.3,1.8-3
					c0.5-0.4,1-0.6,1.6-0.8c0.6-0.1,1.2-0.1,1.8-0.1c36.1,0,70.6,0,101.9,0c15.7,0,30.5,0,44.5,0c3.5,0,6.9,0,10.3,0
					c1.7,0,3.3,0,5,0c0.8,0,1.6,0,2.5,0c0.8,0,1.7,0,2.5,0.4c1.6,0.7,2.5,2.5,2.4,4.1c0,1.6,0,3.1,0,4.7c0,3.1,0,6.1,0,9.1
					c0,23.7-0.1,42.8-0.1,56.1c0,3.3,0,6.3,0,8.8c0,1.3,0,2.5,0,3.5c0,0.5,0,1.1-0.1,1.5c-0.1,0.5-0.3,0.9-0.5,1.3
					c-0.9,1.6-2.2,2.2-3,2.4C389.9,371.6,389.4,371.5,389.4,371.5z"/>
			</g>
			<g>
				<circle class="st4" cx="233.5" cy="291" r="3.2"/>
				<path class="st4" d="M246.7,291c0,1.8-1.4,3.2-3.2,3.2s-3.2-1.4-3.2-3.2c0-1.8,1.4-3.2,3.2-3.2
					C245.3,287.7,246.7,289.2,246.7,291z"/>
				<circle class="st4" cx="253.4" cy="291" r="3.2"/>
			</g>
			<g>
				<g>
					<path class="st3" d="M270.6,338.6h-20.2c-1.2,0-2.2-1-2.2-2.2l0,0c0-1.2,1-2.2,2.2-2.2h20.2c1.2,0,2.2,1,2.2,2.2l0,0
						C272.8,337.6,271.9,338.6,270.6,338.6z"/>
				</g>
				<g>
					<path class="st3" d="M377.2,327.1h-58.6c-1.2,0-2.2-1-2.2-2.2l0,0c0-1.2,1-2.2,2.2-2.2h58.6c1.2,0,2.2,1,2.2,2.2l0,0
						C379.4,326.1,378.4,327.1,377.2,327.1z"/>
				</g>
				<g>
					<g>
						<path class="st8" d="M270.6,350.4h-13.5h-6.8c-2.9-0.2-2.8-4.4,0.1-4.4c4.5,0,16,0,20.3,0
							C273.6,346.3,273.5,350.4,270.6,350.4L270.6,350.4z M270.6,350.4c2.8-0.1,2.9-4.1,0.1-4.3h-6.8h-13.5c-1.1,0-2.2,1-2.2,2.1
							c-0.1,1.1,0.9,2.2,2,2.2h6.8L270.6,350.4L270.6,350.4z"/>
					</g>
				</g>
				<g>
					<g>
						<path class="st8" d="M363.3,338.6h-13.5H343c-2.9-0.2-2.8-4.4,0.1-4.4c4.5,0,16,0,20.3,0C366.2,334.4,366.1,338.5,363.3,338.6
							L363.3,338.6z M363.3,338.6c2.8-0.1,2.9-4.1,0.1-4.3c-4.3,0-15.9,0-20.3,0c-2.8,0.1-2.9,4.1-0.1,4.3
							C347.3,338.6,358.8,338.6,363.3,338.6L363.3,338.6z"/>
					</g>
				</g>
				<g>
					<path class="st7" d="M303,327.1h-20.2c-1.2,0-2.2-1-2.2-2.2l0,0c0-1.2,1-2.2,2.2-2.2H303c1.2,0,2.2,1,2.2,2.2l0,0
						C305.2,326.1,304.2,327.1,303,327.1z"/>
				</g>
				<g>
					<path class="st3" d="M374.3,350.4h-91.6c-1.2,0-2.1-1-2.1-2.2l0,0c0-1.2,0.9-2.2,2.1-2.2h91.6c1.2,0,2.1,1,2.1,2.2l0,0
						C376.4,349.5,375.5,350.4,374.3,350.4z"/>
				</g>
				<g>
					<path class="st3" d="M328,358.8h-45.2c-1.2,0-2.2-1-2.2-2.2l0,0c0-1.2,1-2.2,2.2-2.2H328c1.2,0,2.2,1,2.2,2.2l0,0
						C330.2,357.8,329.3,358.8,328,358.8z"/>
				</g>
				<g>
					<path class="st7" d="M240.6,324.9c0,1.2-1,2.2-2.2,2.2s-2.2-1-2.2-2.2s1-2.2,2.2-2.2S240.6,323.7,240.6,324.9z"/>
				</g>
				<g>
					<path class="st7" d="M240.6,313.9c0,1.2-1,2.2-2.2,2.2s-2.2-1-2.2-2.2s1-2.2,2.2-2.2S240.6,312.7,240.6,313.9z"/>
				</g>
				<g>
					<circle class="st7" cx="238.3" cy="336.4" r="2.2"/>
				</g>
				<g>
					<circle class="st7" cx="238.3" cy="348.2" r="2.2"/>
				</g>
			</g>
			<path class="st7" d="M263,315.5h-13.8c-0.3,0-0.5-0.2-0.5-0.5v-3.3c0-0.3,0.2-0.5,0.5-0.5H263c0.3,0,0.5,0.2,0.5,0.5v3.3
				C263.5,315.3,263.3,315.5,263,315.5z"/>
		</g>
		<g>
			<g>
				<g>
					<g>
						<path class="st9" d="M474.4,277.5h-61.2c-4.2,0-7.7-3.4-7.7-7.7v-84.7c0-4.2,3.4-7.7,7.7-7.7H452l30.1,31v61.4
							C482,274.1,478.6,277.5,474.4,277.5z"/>
					</g>
				</g>
				<g class="st10">
					<g>
						<path d="M476.5,277.5h-65.4c-3.1,0-5.6-2.5-5.6-5.6v-23.7c0-0.6,0.5-1.1,1.1-1.1H481c0.6,0,1.1,0.5,1.1,1.1v23.7
							C482,275,479.5,277.5,476.5,277.5z"/>
					</g>
				</g>
				<g class="st10">
					<g>
						<path class="st4" d="M452,177.4v23.8c0,3.9,3.2,7.1,7.1,7.1H482L452,177.4z"/>
					</g>
				</g>
				<g class="st10">
					<g>
						<path d="M452.3,203.4c0,0-0.3,5.8,6.3,7.7c0.2,0.1,0.5,0.1,0.8,0.2c3,0.5,22.7,4,22.7,3.6c0-0.5,0-6.4,0-6.4h-22.9
							C459.1,208.4,453.4,208.2,452.3,203.4z"/>
					</g>
				</g>
			</g>
			<g>
				<g>
					<path class="st5" d="M427.4,260.4c0-3.6,2.8-6.2,6.5-6.2c2.1,0,3.8,0.7,4.9,2.1l-1.8,1.6c-0.8-0.9-1.8-1.4-3-1.4
						c-2.2,0-3.8,1.6-3.8,3.8s1.6,3.8,3.8,3.8c1.2,0,2.2-0.5,3-1.4l1.8,1.6c-1.1,1.4-2.8,2.1-4.9,2.1
						C430.2,266.5,427.4,263.9,427.4,260.4z"/>
				</g>
				<g>
					<path class="st5" d="M439.6,265.1l0.9-2.1c1,0.7,2.5,1.2,3.9,1.2c1.6,0,2.3-0.5,2.3-1.3c0-2.2-6.9-0.7-6.9-5.1
						c0-2,1.6-3.7,5-3.7c1.5,0,3,0.4,4.1,1.1l-0.8,2.1c-1.1-0.6-2.2-0.9-3.3-0.9c-1.6,0-2.3,0.6-2.3,1.4c0,2.2,6.9,0.7,6.9,5.1
						c0,2-1.6,3.7-5.1,3.7C442.5,266.5,440.6,266,439.6,265.1z"/>
				</g>
				<g>
					<path class="st5" d="M450.4,265.1l0.9-2.1c1,0.7,2.5,1.2,3.9,1.2c1.6,0,2.3-0.5,2.3-1.3c0-2.2-6.9-0.7-6.9-5.1
						c0-2,1.6-3.7,5-3.7c1.5,0,3,0.4,4.1,1.1l-0.9,2.1c-1.1-0.6-2.2-0.9-3.3-0.9c-1.6,0-2.3,0.6-2.3,1.4c0,2.2,6.9,0.7,6.9,5.1
						c0,2-1.6,3.7-5.1,3.7C453.4,266.5,451.5,266,450.4,265.1z"/>
				</g>
			</g>
			<g>
				<g>
					<path class="st5" d="M431.3,221.8c1.3,0.4,1.8,1.2,1.8,3.1v4.4c0,1.3,0.7,2,2,2h0.5v3.3H434c-3.4,0-5.2-1.8-5.2-4.9v-4.9
						c0-0.9-0.5-1.3-1.2-1.3h-0.9v-3.3h0.9c0.7,0,1.2-0.4,1.2-1.3v-5c0-3.1,1.8-4.9,5.2-4.9h1.6v3.3h-0.5c-1.3,0-2,0.7-2,2v4.4
						C433.1,220.7,432.6,221.5,431.3,221.8z"/>
				</g>
				<g>
					<path class="st5" d="M460.8,220.2v3.3h-0.9c-0.7,0-1.2,0.4-1.2,1.3v4.9c0,3.1-1.8,4.9-5.2,4.9h-1.6v-3.3h0.5c1.3,0,2-0.7,2-2
						v-4.4c0-1.9,0.6-2.7,1.8-3.1c-1.3-0.4-1.8-1.2-1.8-3.1v-4.4c0-1.3-0.7-2-2-2h-0.5V209h1.6c3.4,0,5.2,1.8,5.2,4.9v5
						c0,0.9,0.5,1.3,1.2,1.3H460.8z"/>
				</g>
			</g>
		</g>
		<g>
			<g>
				<g>
					<g>
						<g>
							<path class="st8" d="M595.1,372.7c-7.3,0-56.8,0.2-63,0.1c-3.4-0.3-6.4-3-7-6.4c-0.3-1.9-0.1-4.7-0.2-6.7
								c-0.1-16.8-0.2-62.1-0.3-79.5c-0.1-2.2,0.3-4.8,1.8-6.5c1.5-1.8,3.8-3,6.1-3.1h13.3l26.5,0.1c0.1,0,0.2,0,0.3,0.1
								c0.1,0.2,30.5,31.5,30.4,31.7c-0.1,12.4-0.2,44-0.2,55.9c0,1.5,0.1,5.5,0,7C602.6,369.4,599,372.7,595.1,372.7L595.1,372.7z
								 M595.1,372.7c4,0,7.5-3.3,7.7-7.2c0-1.5,0-5.4,0-7c0.1-11.5-0.3-44.5-0.1-55.8c0.4,0.1-31.8-32-30.4-31.2l-26.5,0.1h-13.2
								c-2.1,0.1-4.1,1.1-5.4,2.7c-1.4,1.7-1.7,3.7-1.6,5.9c0,17.6-0.2,62.5-0.3,79.5c0.1,1.8-0.2,4.8,0.1,6.6
								c0.6,3.2,3.4,5.8,6.7,6.1C538,372.6,588,372.6,595.1,372.7L595.1,372.7z"/>
						</g>
					</g>
				</g>
				<g class="st10">
					<g>
						<path d="M596.1,372.7h-64.2c-3.7,0-6.7-3-6.7-6.7v-24.1h77.7V366C602.8,369.6,599.8,372.7,596.1,372.7z"/>
					</g>
				</g>
				<g class="st10">
					<g>
						<path class="st4" d="M572.3,271.1v24.2c0,4,3.2,7.2,7.2,7.2h23.3L572.3,271.1z"/>
					</g>
				</g>
				<g class="st10">
					<g>
						<path d="M572.6,297.4c0,0-0.3,5.9,6.4,7.8c0.3,0.1,0.5,0.1,0.8,0.2c3,0.5,23,4.1,23,3.6s0-6.5,0-6.5h-23.3
							C579.6,302.5,573.7,302.3,572.6,297.4z"/>
					</g>
				</g>
			</g>
			<g>
				<g>
					<path class="st5" d="M557,316.4l-9.3,3.4l9.3,3.4v3.5l-13.3-5.1V318l13.3-5.1V316.4z"/>
				</g>
				<g>
					<path class="st5" d="M567.1,306h3.9l-9.2,26.4h-3.9L567.1,306z"/>
				</g>
				<g>
					<path class="st5" d="M584.8,318v3.6l-13.3,5.1v-3.5l9.3-3.4l-9.3-3.4v-3.5L584.8,318z"/>
				</g>
			</g>
			<g>
				<g>
					<path class="st5" d="M553.9,353.3v10.4h-2.4v-4.3h-4.7v4.3h-2.4v-10.4h2.4v4.1h4.7v-4.1H553.9z"/>
				</g>
				<g>
					<path class="st5" d="M558.5,355.3h-3.3v-2h9.1v2H561v8.5h-2.4L558.5,355.3L558.5,355.3z"/>
				</g>
				<g>
					<path class="st5" d="M575.1,363.8v-6.3l-3.1,5.2h-1.1l-3.1-5v6.1h-2.3v-10.4h2l3.9,6.5l3.8-6.5h2v10.4L575.1,363.8L575.1,363.8
						z"/>
				</g>
				<g>
					<path class="st5" d="M579.8,353.3h2.4v8.5h5.2v2h-7.7L579.8,353.3L579.8,353.3z"/>
				</g>
			</g>
		</g>
		<g>
			<g>
				<g>
					<g>
						<path class="st11" d="M307.7,674.4c-10.2,4.4-20,4.8-29.3,0l-6.8-56.9h42.2L307.7,674.4z"/>
					</g>
					<g>
						<g>
							<g>
								<g>
									<path class="st3" d="M311,614.1l-1.3-4.1l-31.8-3.9c-0.9-0.1-1.7,0.4-2,1.2l-2.3,6.7h-4.1v7.4c16,2.8,31.3,3,45.7,0V614
										L311,614.1L311,614.1z"/>
									<g>
										<path class="st8" d="M311,614.1c0,0,0.1,0,0.3,0c0.2,0,0.5,0,0.8,0c0.8,0,1.8,0,3.2-0.1h0.1v0.1c0,1.9,0,4.4,0.1,7.4v0.2
											h-0.2c-5.1,1.1-11.8,2.1-19.6,2.2c-7.8,0.2-16.7-0.5-26-2.1h-0.2h-0.3v-0.3c0-2.5,0-5,0-7.4v-0.3h0.3c1.4,0,2.7,0,4.1,0
											l-0.3,0.2c0.8-2.2,1.5-4.4,2.3-6.6c0.2-0.6,0.6-1.2,1.2-1.4c0.3-0.1,0.6-0.2,0.9-0.2s0.6,0.1,0.8,0.1
											c1.1,0.1,2.2,0.3,3.2,0.4c4.2,0.5,8.1,1,11.7,1.5c7,0.9,12.6,1.6,16.2,2.1h0.1v0.1c0.4,1.3,0.7,2.3,0.9,3
											c0.1,0.3,0.2,0.6,0.2,0.8C311,614,311,614.1,311,614.1s0-0.1-0.1-0.2c-0.1-0.2-0.2-0.5-0.3-0.8c-0.2-0.7-0.6-1.7-1-3
											l0.1,0.1c-3.6-0.4-9.2-1.1-16.2-1.9c-3.6-0.4-7.5-0.9-11.7-1.4c-1.1-0.1-2.1-0.3-3.2-0.4c-0.6-0.1-1.1-0.2-1.5,0
											s-0.8,0.6-0.9,1.1c-0.7,2.1-1.5,4.3-2.3,6.6l-0.1,0.2h-0.2c-1.3,0-2.7,0-4.1,0l0.3-0.3c0,2.4,0,4.9,0,7.4l-0.3-0.3h0.2
											c9.2,1.6,18.1,2.3,25.9,2.1c7.8-0.1,14.5-1.1,19.6-2.1l-0.2,0.2c0-3,0.1-5.5,0.1-7.4l0.1,0.1c-1.4,0-2.5,0-3.2-0.1
											c-0.3,0-0.6,0-0.8,0C311.1,614.1,311,614.1,311,614.1z"/>
									</g>
								</g>
							</g>
						</g>
					</g>
					<g>
						<path class="st12" d="M310.6,655.5c-11,1.8-23.2,1.5-36.1,0l-1.8-17.3c13.6,1.5,26.9,1.5,40,0L310.6,655.5z"/>
					</g>
					<g>
						<g>
							<path class="st11" d="M290.3,643.8c-1.7,1-2.3,3.1-1.5,4.9l1.1,2.5c0.8,1.8,2.9,2.6,4.7,2L290.3,643.8z"/>
						</g>
						<g>
							<path class="st11" d="M291.1,643.4l4.4,9.4c1.7-1,2.3-3.1,1.5-4.9l-1.1-2.5C295,643.6,292.9,642.8,291.1,643.4z"/>
						</g>
					</g>
				</g>
			</g>
			<g>
				<path class="st8" d="M311.4,614.2c0,0-0.5,0.2-1.4,0.4s-2.3,0.5-4,0.8c-3.4,0.6-8.2,1.2-13.4,1.1c-5.3,0-10-0.6-13.4-1.2
					c-1.7-0.3-3.1-0.6-4-0.9c-0.9-0.2-1.4-0.4-1.4-0.4s0.5,0,1.5,0.2c0.9,0.2,2.3,0.4,4,0.7c3.4,0.5,8.1,1,13.4,1
					c5.2,0,10-0.5,13.4-1c1.7-0.2,3.1-0.5,4-0.6C310.9,614.3,311.4,614.2,311.4,614.2z"/>
			</g>
		</g>
		<g>
			<path class="st3" d="M333.1,529.6c0,0-7,1.5-8.2,6.4s9.7,123,10.1,125.9c0.7,4.5,4.5,10.3,13.1,10c7.5-0.3,109.5,0,135.1,0
				c3.4,0,5.5-2.9,5.9-6.4l0,0L362.8,658L333.1,529.6z"/>
			<g>
				<path class="st3" d="M329.9,533.5l10.9,127.4c0.2,2.1,1.9,3.7,4,3.7l144.3,0.6l-27.7-27.5l-93.7-0.7l-10-99.8
					c-0.1-1.3-1.1-2.4-2.4-2.7l-21-4.9C331.9,529.1,329.7,531.1,329.9,533.5z"/>
				<g>
					<path class="st8" d="M329.9,533.5c0,0,0-0.2,0-0.6c0-0.4,0.1-1,0.6-1.7c0.4-0.7,1.3-1.4,2.5-1.6c0.6-0.1,1.3,0,1.9,0.2
						c0.7,0.2,1.4,0.3,2.1,0.5c3,0.7,6.8,1.6,11.1,2.6c2.2,0.5,4.6,1,7.1,1.6c1.3,0.2,2.5,1.4,2.7,2.8c0.1,1.4,0.3,2.8,0.4,4.2
						c2.3,23.1,5.7,56,9.7,95.6l-0.3-0.2c28.1,0.2,59.9,0.4,93.7,0.6h0.1l0.1,0.1c8.9,8.8,18.2,18.1,27.7,27.5l0.6,0.5h-0.8
						c-2,0-4.2,0-6.4,0c-37.5-0.2-73.3-0.3-105.8-0.5c-8.1,0-16.1-0.1-23.8-0.1c-1.9,0-3.8,0-5.7,0c-1,0-1.9,0-2.8,0
						c-1-0.1-2-0.5-2.7-1.2s-1.2-1.6-1.4-2.6c-0.1-0.9-0.2-1.8-0.2-2.8c-0.2-1.8-0.3-3.6-0.5-5.4c-1.2-14.4-2.4-27.8-3.4-40.1
						c-2.1-24.5-3.7-44.3-4.9-58c-0.6-6.8-1-12.2-1.3-15.8c-0.1-1.8-0.2-3.2-0.3-4.1C329.9,534,329.9,533.5,329.9,533.5
						s0.1,0.5,0.2,1.4s0.2,2.3,0.4,4.1c0.3,3.6,0.8,8.9,1.4,15.8c1.2,13.7,2.9,33.5,5.1,58c1.1,12.2,2.2,25.7,3.5,40.1
						c0.2,1.8,0.3,3.6,0.5,5.4c0.1,0.9,0.1,1.8,0.2,2.7s0.5,1.7,1.2,2.3c0.6,0.6,1.5,1,2.4,1s1.9,0,2.8,0c1.9,0,3.8,0,5.7,0
						c7.7,0,15.6,0.1,23.8,0.1c32.5,0.1,68.3,0.3,105.8,0.5c2.2,0,4.4,0,6.4,0l-0.2,0.5c-9.5-9.4-18.8-18.7-27.7-27.5l0.2,0.1
						c-33.9-0.3-65.6-0.5-93.7-0.7h-0.2v-0.2c-3.9-39.6-7.2-72.5-9.5-95.6c-0.1-1.4-0.3-2.8-0.4-4.2c-0.1-1.3-1.2-2.4-2.4-2.6
						c-2.5-0.6-4.9-1.1-7.1-1.7c-4.4-1-8.1-1.9-11.1-2.6c-0.8-0.2-1.5-0.3-2.1-0.5c-0.7-0.2-1.3-0.3-1.9-0.2c-1.2,0.2-2,0.9-2.4,1.5
						c-0.4,0.7-0.6,1.3-0.6,1.7C329.9,533.3,329.9,533.5,329.9,533.5z"/>
				</g>
			</g>
			<polygon class="st8" points="435.5,661.9 449,661.9 432,639.9 424,639.9 			"/>
			<path class="st8" d="M334.9,539.3L345.1,650l19.1-15.2l-8.2-93.2c-0.1-0.7-0.6-1.4-1.4-1.5l-17.9-2.6
				C335.7,537.3,334.8,538.2,334.9,539.3z"/>
			<polygon class="st8" points="355.4,661.9 369.2,661.9 383.3,639.9 375.3,639.9 			"/>
			<polygon class="st8" points="372.4,661.9 385.8,661.9 393.1,639.9 385.2,639.9 			"/>
			<polygon class="st8" points="388.8,661.9 402.2,661.9 402.9,639.9 395,639.9 			"/>
			<polygon class="st8" points="404,661.9 417.4,661.9 412.5,639.9 404.5,639.9 			"/>
			<polygon class="st8" points="419.9,661.9 433.3,661.9 422.4,639.9 414.4,639.9 			"/>
			<g>
				<path class="st3" d="M448.3,657.6c0,0.1-20.5,0.2-45.7,0.2s-45.7-0.1-45.7-0.2c0-0.1,20.4-0.2,45.7-0.2
					C427.8,657.4,448.3,657.5,448.3,657.6z"/>
			</g>
			<g>
				<path class="st3" d="M445.8,653.6c0,0.1-19.4,0.2-43.4,0.2s-43.4-0.1-43.4-0.2c0-0.1,19.4-0.2,43.4-0.2
					C426.4,653.4,445.8,653.5,445.8,653.6z"/>
			</g>
			<g>
				<path class="st3" d="M445.8,649.9c0,0.2-18.3,0.4-40.8,0.4s-40.8-0.2-40.8-0.4s18.3-0.4,40.8-0.4
					C427.6,649.6,445.8,649.7,445.8,649.9z"/>
			</g>
			<g>
				<path class="st3" d="M446.4,646.6c0,0.2-17.9,0.4-39.9,0.4c-22.1,0-39.9-0.2-39.9-0.4s17.9-0.4,39.9-0.4
					C428.5,646.2,446.4,646.4,446.4,646.6z"/>
			</g>
			<g>
				<path class="st3" d="M448.3,644.2c0,0.2-18,0.4-40.2,0.4s-40.2-0.2-40.2-0.4s18-0.4,40.2-0.4S448.3,643.9,448.3,644.2z"/>
			</g>
			<g>
				<path class="st3" d="M450.3,641.6c0,0.2-18.3,0.4-41,0.4c-22.6,0-41-0.2-41-0.4s18.3-0.4,41-0.4
					C431.9,641.2,450.3,641.4,450.3,641.6z"/>
			</g>
			<g>
				<path class="st3" d="M342.9,660.9c8.3-7.8,16.7-15.6,25-23.4"/>
				<g>
					<path class="st8" d="M367.9,637.5c0.1,0.1-5.4,5.5-12.3,11.9c-6.9,6.5-12.6,11.6-12.7,11.5s5.4-5.5,12.3-11.9
						C362.1,642.5,367.8,637.4,367.9,637.5z"/>
				</g>
			</g>
		</g>
		<g>
			<g>
				<path class="st7" d="M781.5,550.4c0,0-1.2-12.9-33.4-21.2c-15.6-4-52.7-5.9-56.9,18.2C691,548.2,672.7,700,672.7,700h68.7
					L781.5,550.4z"/>
				<path class="st7" d="M770.6,700H739l10.6-148.8c0.8-7.2,8.3-12.5,16.7-11.7l2.8,0.3c8.5,0.8,13.8,9,13.6,18.2L770.6,700z"/>
				<g>
					<path class="st8" d="M741.3,694.6c-0.2,0,2.1-29.3,5-65.4c2.9-36.1,5.5-65.4,5.6-65.4c0.2,0-2.1,29.3-5,65.4
						C744,665.4,741.5,694.7,741.3,694.6z"/>
				</g>
				<g>
					<path class="st8" d="M775.4,543.3c0,0.1-1.6-0.7-4.5-1c-2.8-0.4-6.8-0.1-10.6,2.1c-3.7,2.1-6,5.5-7.1,8.1s-1.2,4.4-1.3,4.4
						c0,0,0-0.4,0.1-1.2s0.4-1.9,0.9-3.3c1-2.7,3.3-6.2,7.2-8.5c3.9-2.2,8.1-2.4,10.9-1.9c1.4,0.2,2.5,0.6,3.3,0.9
						C775.1,543.1,775.5,543.3,775.4,543.3z"/>
				</g>
			</g>
			<g>
				<g>
					<g>
						<g>
							<g>
								<g>
									<g>
										<path class="st8" d="M675.4,357.4c0.3-8.7-5.6-9.9-10.1-8.9c-5.5-4.1-13.9-3.6-18.9,1c-4.1-2.3-9.5-2.2-13.5,0.2
											c-4.1,2.4-6.7,7-6.8,11.7c-4.7-0.6-9.7,2.1-11.7,6.5c-2,4.3-1,9.9,2.4,13.2c-5.1,1.8-8.2,7.8-6.9,13.1
											c1.3,5.2,7,9,12.3,8.2l53.4-35.6C678.8,363.4,675.3,362,675.4,357.4z"/>
									</g>
								</g>
							</g>
						</g>
					</g>
					<g>
						<g>
							<g>
								<g>
									<g>
										<g>
											<g>
												<g>
													<g>
														<path class="st12" d="M620.6,403.9c1.1-24.3,20.7-43.7,45-44.6l2.4-0.1c26.1,0.6,40.2,23.1,38.9,49.2l-0.7,86.9
															l-0.2,16.5L646.3,526l-0.6-34.4c0,0-25.2-3-26.4-28C618.8,451.5,619.6,426.5,620.6,403.9z"/>
													</g>
												</g>
											</g>
										</g>
									</g>
								</g>
							</g>
							<g>
								<g>
									<g>
										<g>
											<g>
												<g>
													<g>
														<g>
															<g>
																<path class="st11" d="M645.5,491.6c0,0,16,0.4,32.5-10.8c0,0-7.1,18.3-32.2,16.9L645.5,491.6z"/>
															</g>
														</g>
													</g>
												</g>
											</g>
										</g>
									</g>
								</g>
							</g>
							<g>
								<g>
									<g>
										<g>
											<g>
												<g>
													<g>
														<g>
															<g>
																<g>
																	<g>
																		<g>
																			<path class="st8" d="M627.9,429.2c0,1.9,1.6,3.5,3.6,3.5s3.6-1.5,3.6-3.4s-1.6-3.5-3.6-3.5
																				C629.5,425.8,627.9,427.3,627.9,429.2z"/>
																		</g>
																	</g>
																</g>
															</g>
														</g>
													</g>
												</g>
											</g>
										</g>
									</g>
								</g>
							</g>
							<g>
								<g>
									<g>
										<g>
											<g>
												<g>
													<g>
														<g>
															<g>
																<g>
																	<g>
																		<g>
																			<g>
																				<path class="st8" d="M626.2,417.3c0.5,0.5,3.1-1.7,6.9-1.8c3.8-0.2,6.7,1.7,7.1,1.2c0.2-0.2-0.3-1-1.5-1.9
																					c-1.2-0.8-3.3-1.6-5.7-1.5s-4.4,1.1-5.5,2S626,417.1,626.2,417.3z"/>
																			</g>
																		</g>
																	</g>
																</g>
															</g>
														</g>
													</g>
												</g>
											</g>
										</g>
									</g>
								</g>
							</g>
							<g>
								<g>
									<g>
										<g>
											<g>
												<g>
													<g>
														<g>
															<g>
																<g>
																	<g>
																		<g>
																			<path class="st8" d="M658.9,428.4c0,1.9,1.6,3.4,3.6,3.5c2,0,3.6-1.5,3.6-3.4s-1.6-3.5-3.6-3.5
																				S658.9,426.5,658.9,428.4z"/>
																		</g>
																	</g>
																</g>
															</g>
														</g>
													</g>
												</g>
											</g>
										</g>
									</g>
								</g>
							</g>
							<g>
								<g>
									<g>
										<g>
											<g>
												<g>
													<g>
														<g>
															<g>
																<g>
																	<g>
																		<g>
																			<g>
																				<path class="st8" d="M663,415.4c0.5,0.5,3.1-1.7,6.9-1.8c3.8-0.2,6.7,1.7,7.1,1.2c0.2-0.2-0.3-1-1.5-1.9
																					c-1.2-0.8-3.3-1.6-5.7-1.5s-4.4,1.1-5.5,2C663.2,414.4,662.8,415.2,663,415.4z"/>
																			</g>
																		</g>
																	</g>
																</g>
															</g>
														</g>
													</g>
												</g>
											</g>
										</g>
									</g>
								</g>
							</g>
							<g>
								<g>
									<g>
										<g>
											<g>
												<g>
													<g>
														<g>
															<g>
																<g>
																	<g>
																		<g>
																			<path class="st8" d="M651.3,444.4c0-0.2-2.4-0.5-6.3-0.9c-1-0.1-1.9-0.2-2.1-0.9c-0.3-0.7,0.1-1.8,0.6-2.9
																				c0.8-2.4,1.7-4.9,2.6-7.6c3.7-10.8,6.3-19.7,5.8-19.8c-0.4-0.1-3.8,8.5-7.4,19.3c-0.9,2.7-1.7,5.2-2.5,7.6
																				c-0.3,1.1-0.9,2.4-0.4,3.9c0.3,0.7,1,1.2,1.7,1.4c0.6,0.2,1.2,0.2,1.7,0.2C648.9,444.7,651.3,444.6,651.3,444.4z
																				"/>
																		</g>
																	</g>
																</g>
															</g>
														</g>
													</g>
												</g>
											</g>
										</g>
									</g>
								</g>
							</g>
							<g>
								<g>
									<g>
										<g>
											<g>
												<g>
													<g>
														<g>
															<g>
																<g>
																	<g>
																		<g>
																			<path class="st8" d="M662.8,446.7c-0.6,0-0.5,4.2-4,7.3c-3.5,3.1-7.9,2.8-7.9,3.4c0,0.3,1,0.8,2.9,0.8
																				c1.8,0,4.5-0.7,6.6-2.6s3-4.4,3.1-6.1C663.6,447.6,663.1,446.6,662.8,446.7z"/>
																		</g>
																	</g>
																</g>
															</g>
														</g>
													</g>
												</g>
											</g>
										</g>
									</g>
								</g>
							</g>
							<g>
								<g>
									<g>
										<g>
											<g>
												<g>
													<g>
														<g>
															<path class="st8" d="M662.6,404.4c0.5,1,3.8,0,7.8-0.1c4-0.2,7.4,0.6,7.8-0.4c0.2-0.5-0.5-1.4-2-2.2
																c-1.4-0.8-3.6-1.4-6-1.4c-2.4,0.1-4.5,0.8-5.9,1.7C663,403,662.3,404,662.6,404.4z"/>
														</g>
													</g>
												</g>
											</g>
										</g>
									</g>
								</g>
							</g>
							<g>
								<g>
									<g>
										<g>
											<g>
												<g>
													<g>
														<g>
															<path class="st8" d="M626.7,406.7c0.6,0.9,3.3,0.1,6.5,0.2c3.2,0,5.9,0.9,6.5,0c0.3-0.4-0.1-1.3-1.2-2.2
																c-1.1-0.9-3-1.6-5.2-1.7c-2.2,0-4.1,0.7-5.3,1.5C626.8,405.4,626.4,406.2,626.7,406.7z"/>
														</g>
													</g>
												</g>
											</g>
										</g>
									</g>
								</g>
							</g>
							<g>
								<g>
									<g>
										<g>
											<g>
												<g>
													<g>
														<path class="st8" d="M622.6,392.3c0,0,6-15.9,13.5-19.8c9-4.8,13.3,5.2,21.9,2.4c8.6-2.7,17.2-7.3,26.4-0.9
															c10,7,5.6,12.4,6.6,23.5c4,45,12.7,57.4,14.3,36.1c0.2-2.3,6.6-4.4,7.2-14.3c0.8-12.8,0.7-28.3-2.4-37.2
															c-2.7-7.5-7.2-12.6-15.2-18.2c-12.6-8.7-29.5-8.3-41-6.8C642.5,358.8,620.9,372.7,622.6,392.3z"/>
													</g>
												</g>
											</g>
										</g>
									</g>
								</g>
							</g>
							<g>
								<g>
									<g>
										<g>
											<g>
												<g>
													<g>
														<path class="st12" d="M703.8,433c0-3.9,3.2-7,7.1-6.8c4.7,0.3,10,2.7,10,12.4c0.1,17.1-17.2,13.7-17.2,13.2
															C703.7,451.4,703.7,440.1,703.8,433z"/>
													</g>
												</g>
											</g>
										</g>
									</g>
								</g>
							</g>
							<g>
								<g>
									<g>
										<g>
											<g>
												<g>
													<g>
														<path class="st11" d="M707.4,445.3c0.1-0.1,0.3,0.2,0.8,0.4c0.5,0.2,1.3,0.4,2.2,0c1.8-0.7,3.3-3.6,3.4-6.6
															c0-1.6-0.3-3-0.9-4.3c-0.5-1.3-1.3-2.1-2.3-2.3c-0.9-0.2-1.6,0.3-1.8,0.8s-0.1,0.8-0.2,0.9c0,0-0.4-0.3-0.2-1
															c0.1-0.3,0.3-0.7,0.7-1.1c0.4-0.3,1-0.5,1.6-0.4c1.3,0.1,2.5,1.3,3.1,2.6c0.7,1.4,1.1,3,1.1,4.8
															c-0.1,3.5-1.9,6.7-4.3,7.4c-1.2,0.3-2.2,0-2.7-0.4C707.4,445.7,707.3,445.3,707.4,445.3z"/>
													</g>
												</g>
											</g>
										</g>
									</g>
								</g>
							</g>
						</g>
						<g>
							<g>
								<g>
									<g>
										<g>
											<g>
												<path class="st8" d="M702.2,399.8c-2.2,1.6-4.5,3.2-7.1,3.6c-2.7,0.4-5.8-1.1-6.3-3.7c-0.2-1.2,0-2.6-0.8-3.5
													c-1-1.1-2.7-0.7-4.1-0.5c-5,0.7-10.2-2.6-11.6-7.4c-1.2,1.9-4.2,2-6.1,0.8c-2-1.2-3.3-3.2-4.8-4.8
													c-1.6-1.7-3.7-3.1-6-2.7c-1.3,0.2-2.4,1-3.7,1c-2.3-0.1-3.4-2.7-3.9-4.9c-0.4-2.2-0.8-4.8-2.7-6c-1.8-1.1-4.1-0.3-6.1,0
													c-2.1,0.4-4.7,0-5.4-2c-0.3-1.1,0.1-2.2,0.7-3.1c2.5-4.3,8.3-6.4,12.9-4.7c1.5-5.7,6.6-10.3,12.5-11.1
													c5.8-0.8,12.1,2.2,15.1,7.2c3.5-3.4,8.7-5,13.5-4.1s9.1,4.3,11.1,8.8c4.1-1.2,8.9,0.2,11.7,3.5s3.3,8.3,1.3,12.1
													c3.1,1.6,5.9,4.6,6.1,8.2c0.2,3.5-3.1,7.2-6.6,6.4c1.5,2.7,0.5,6.5-2.1,8.1s-6.5,0.9-8.2-1.6"/>
											</g>
										</g>
									</g>
								</g>
							</g>
						</g>
					</g>
					<g>
						<g>
							<g>
								<g>
									<g>
										<g>
											<path class="st7" d="M713,392.8c0.1,0,0.4,1.4-0.9,3.3c-0.7,0.9-1.8,1.9-3.4,2.2c-1.5,0.3-3.4,0-4.9-1.2l0.7-0.1
												c-0.8,1.5-1.9,3-3.3,4.4c-0.9,0.9-1.9,1.6-3.1,2.1c-1.1,0.5-2.4,0.6-3.4,0.4c-2.2-0.2-4.1-1.3-5-2.7
												c-1-1.4-1.3-2.7-1.5-3.5c-0.2-0.9-0.2-1.4-0.2-1.4c0.1,0,0.2,0.4,0.5,1.3c0.3,0.8,0.8,2,1.7,3.2c1.7,2.4,7,3.5,10.3-0.1
												c1.3-1.2,2.3-2.7,3.1-4.1l0.3-0.5l0.4,0.4c1.2,1.1,2.8,1.4,4.2,1.2c1.4-0.2,2.4-1,3-1.7
												C712.9,394.1,712.8,392.7,713,392.8z"/>
										</g>
									</g>
								</g>
							</g>
						</g>
					</g>
				</g>
				<g>
					<path class="st12" d="M510.5,617c0,0-32.3-1-34.3-1.6c-1.9-0.6-6.7-0.7-9,0s-11.5,4-11.5,4l-19.5,5.2c0,0-19.6,12.8-19.2,15.4
						c0.4,2.6,2.5,4.3,6.1,3c3.5-1.3,21.2-10.5,21.2-10.5l19.4-2.1c0,0,26.6,9.6,32,9.1s19.1-2.8,19.1-2.8s1.9-13.8,1-16
						C514.8,618.6,510.5,617,510.5,617z"/>
					<g>
						<path class="st12" d="M418.4,651.5c0,0,16.4-17.6,20.9-19.9c4.5-2.4,29.8-6.5,29.8-6.5s8.1-3.4,11-2.2
							c3,1.2,34.3,5.9,35.7,6.1c1.4,0.2-6.7,27.6-6.7,27.6s-10.9,2-23.5-1s-17-6.9-17-6.9l-12.6-3.3l-7.7,2.9c0,0-1.4,11.4-6.9,10.8
							l-2.6-1.8l2-12.6l-8.1,3.4c0,0-6.3,9.5-11,8.1C417.1,654.8,418.4,651.5,418.4,651.5z"/>
						<g>
							<path class="st11" d="M418.4,651.5c0,0-0.2,0.5-0.1,1.4c0,0.4,0.2,1,0.6,1.5s1,1,1.9,1.4c0.8,0.3,1.8,0.6,2.8,0.4
								c1.1-0.2,2.1-0.8,3.1-1.6c2.1-1.5,4.1-3.8,5.9-6.5l0,0l0,0c2.4-1,5.2-2.2,8.1-3.4l0.3-0.1l-0.1,0.4
								c-0.6,3.8-1.2,8.1-1.9,12.6l-0.1-0.2c0.8,0.5,1.7,1.2,2.6,1.8h-0.1c1,0.1,2.1-0.3,2.8-1c0.8-0.7,1.4-1.7,1.9-2.7
								c1-2.1,1.6-4.4,1.9-6.8v-0.2l0.1-0.1c2.4-0.9,5-1.9,7.7-3h0.1h0.1c4,1,8.2,2.2,12.6,3.3h0.1l0.1,0.1c2.5,1.9,5.6,3.3,8.7,4.4
								c3.2,1.1,6.5,2.1,9.9,2.8s7,1.1,10.6,1.2c3.6,0.1,7.3,0,10.9-0.6l-0.2,0.2c0.6-1.9,1.2-4,1.8-6.1c1.7-6.2,3.5-12.3,4.7-18.4
								c0.1-0.8,0.3-1.5,0.3-2.2c0-0.2,0-0.4,0-0.5s-0.1-0.1,0.1,0c0,0,0,0,0.1,0l0,0h-0.1h-0.1l-1.1-0.2c-1.5-0.2-3-0.5-4.5-0.7
								c-3-0.5-5.9-0.9-8.8-1.4c-5.8-0.9-11.4-1.9-16.8-2.9c-1.4-0.3-2.7-0.5-4-0.9c-1.2-0.5-2.5-0.3-3.8-0.1
								c-2.6,0.5-5,1.3-7.3,2.2l0,0l0,0c-8.8,1.5-16.9,2.9-23.9,4.6c-1.8,0.4-3.5,0.9-5,1.5s-2.8,1.7-4,2.7c-2.4,2-4.5,4-6.3,5.8
								c-3.7,3.6-6.6,6.5-8.5,8.5c-1,1-1.7,1.7-2.2,2.3C418.7,651.2,418.4,651.5,418.4,651.5s0.2-0.3,0.7-0.8s1.2-1.3,2.2-2.3
								c1.9-2,4.7-5,8.4-8.6c1.9-1.8,3.9-3.8,6.3-5.9c0.6-0.5,1.2-1,1.9-1.5c0.7-0.5,1.4-1,2.2-1.3c1.6-0.6,3.3-1.1,5.1-1.5
								c7.1-1.7,15.1-3.2,24-4.7h-0.1c2.3-0.9,4.8-1.8,7.4-2.2c1.3-0.2,2.7-0.4,4.1,0.1c1.2,0.4,2.6,0.6,3.9,0.9
								c5.4,1,11,1.9,16.8,2.8c2.9,0.5,5.8,0.9,8.8,1.4c1.5,0.2,3,0.5,4.5,0.7l1.1,0.2h0.1h0.1l0,0c0,0,0.1,0,0.1,0.1
								c0.3,0.2,0.2,0.4,0.3,0.5c0,0.2,0,0.4,0,0.6c-0.1,0.8-0.2,1.6-0.4,2.3c-1.3,6.1-3,12.2-4.7,18.4c-0.6,2.1-1.2,4.2-1.8,6.1
								l-0.1,0.2h-0.2c-3.7,0.6-7.4,0.7-11.1,0.6c-3.6-0.1-7.2-0.5-10.7-1.2s-6.8-1.6-10-2.8c-1.6-0.6-3.2-1.2-4.7-2
								s-2.9-1.5-4.3-2.6l0.1,0.1c-4.4-1.2-8.6-2.3-12.6-3.3h0.2c-2.7,1-5.3,2-7.7,2.9l0.2-0.2c-0.4,2.5-1,4.8-2,7
								c-0.5,1.1-1.1,2.1-2,2.9c-0.9,0.8-2.1,1.3-3.2,1.2h-0.1h-0.1c-0.9-0.6-1.8-1.2-2.6-1.8l-0.1-0.1v-0.1c0.7-4.6,1.4-8.8,2-12.6
								l0.3,0.2c-2.9,1.2-5.7,2.3-8.1,3.3l0.1-0.1c-1.9,2.7-4,5-6.1,6.6c-1.1,0.8-2.1,1.4-3.2,1.6c-1.1,0.2-2.2-0.1-3-0.5
								s-1.5-0.9-1.9-1.4c-0.4-0.6-0.6-1.2-0.6-1.6C418.2,651.9,418.4,651.5,418.4,651.5z"/>
						</g>
					</g>
					<g>
						<path class="st11" d="M468,636.6c0,0-0.4,0-1.2,0c-0.8-0.1-1.9-0.2-3.4-0.3c-1.5-0.2-3.1-0.3-5-0.6c-0.5-0.1-0.9-0.1-1.4-0.2
							c-0.5-0.1-0.9,0-1.4,0c-1,0.1-2,0.4-3.1,0.6c-4.1,1.2-8.2,2-9.8,4.4c-0.8,1.1-1.2,2.2-1.5,2.9c-0.2,0.8-0.3,1.2-0.3,1.2
							s-0.1-0.5,0.1-1.2c0.2-0.8,0.5-1.9,1.3-3.2c0.4-0.6,1-1.2,1.7-1.7s1.6-0.9,2.4-1.2c1.8-0.7,3.8-1.3,5.9-1.8
							c1.1-0.3,2.1-0.5,3.1-0.6c0.5-0.1,1.1-0.1,1.6,0s1,0.1,1.4,0.2c1.8,0.3,3.5,0.5,5,0.7c1.4,0.2,2.6,0.4,3.3,0.5
							C467.6,636.5,468,636.6,468,636.6z"/>
					</g>
					<g>
						<path class="st11" d="M424.1,645.6c0,0,0.4-0.5,1.4-1.4c0.9-0.8,2.2-2,3.9-3.4c1.7-1.4,3.8-3.1,6.1-4.8
							c1.2-0.9,2.5-1.7,3.8-2.6c0.7-0.4,1.4-0.8,2.2-1.1c0.8-0.3,1.6-0.5,2.4-0.8c6.5-1.8,12.7-2.3,17-2.9c2.1-0.3,3.9-0.5,5.2-0.6
							c1.2-0.1,1.9-0.2,1.9-0.2s-0.7,0.2-1.9,0.4c-1.3,0.2-3.1,0.5-5.2,0.8c-4.3,0.8-10.4,1.3-16.9,3.1c-0.8,0.2-1.6,0.4-2.3,0.7
							c-0.7,0.3-1.4,0.7-2.1,1.1c-1.4,0.8-2.6,1.7-3.8,2.5c-2.4,1.7-4.4,3.3-6.2,4.7c-1.7,1.3-3,2.4-4.1,3.3
							C424.6,645.2,424.1,645.7,424.1,645.6z"/>
					</g>
				</g>
				<g>
					<path class="st13" d="M628.2,531.2c0,0-8.6,11.8-15.4,26c-5.9,12.2-24.8,53.7-24.8,53.7l-77.1,4l1.1,29.8
						c0,0,74.5,26.5,91.2,21.4s34.4-24.4,34.4-24.4l8-125.7C645.5,516.1,638.9,514.9,628.2,531.2z"/>
					<path class="st13" d="M644.3,516.4c0,0-19.8,44.9-22.7,63.9c-5.7,37.7-7.7,61.3-7.7,61.3l-6.7,58.4H739
						c0,0,4.4-108.2,1.6-144.5c-2.1-27.2-22.9-44.1-31.4-53.4c-0.5-0.6-2.9-8.2-2.9-8.2l-61.4,15.7L644.3,516.4z"/>
					<g>
						<path class="st8" d="M637.9,523.2c0,0,0,0.1-0.2,0.4c-0.1,0.3-0.3,0.7-0.5,1.2c-0.5,1.1-1.1,2.7-2,4.7
							c-1.7,4.1-4.1,10-6.6,17.5s-4.9,16.6-6.8,26.8c-2,10.2-3.5,21.6-4.9,33.6c-2.4,24-4.6,45.7-6.2,61.4
							c-0.8,7.8-1.5,14.2-1.9,18.6c-0.2,2.2-0.4,3.9-0.6,5.1c-0.1,0.6-0.1,1-0.2,1.3c0,0.3-0.1,0.4-0.1,0.4s0-0.2,0-0.5
							s0.1-0.8,0.1-1.3c0.1-1.2,0.3-2.9,0.4-5.1c0.4-4.4,1-10.8,1.7-18.6c1.5-15.7,3.5-37.4,6-61.4c1.3-12,2.9-23.4,4.9-33.6
							c2-10.3,4.4-19.4,7-26.9c2.5-7.5,5-13.4,6.8-17.4c0.9-2,1.6-3.6,2.1-4.6c0.2-0.5,0.4-0.9,0.6-1.2
							C637.8,523.3,637.9,523.2,637.9,523.2z"/>
					</g>
					<g class="st14">
						<path d="M706.4,593.8c-1.2-12-6.6-23.9-16.4-30.8l-80.3,114.7c14.2,7.6,29.9,15.5,45.7,12.2c8.5-1.8,16-6.8,22.1-13
							c12.7-12.8,19.6-30.2,24.4-47.5C705.1,617.8,707.6,605.8,706.4,593.8z"/>
					</g>
					<g>
						<g>
							<path class="st13" d="M715.5,580c-10,35.4-32.5,78.6-39.5,87.3c-13.5,17-31.4,20.6-42,20.6c-9.1,0-85.7-14.9-108.4-19.4
								c-3.8-0.8-6.8-3.7-7.6-7.5l-0.2-0.9l-10.2-2.8l5.4-27.4l1.1-1.5l109.6,3.4l0,0l31.9-88.8c0.6-1,9.8-30.8,34.8-29.5"/>
							<g>
								<path class="st8" d="M690.3,513.6c0,0-0.3,0-0.8,0s-1.4,0-2.4,0.1c-2.1,0.1-5.4,0.6-9.2,2.2c-3.8,1.7-8.1,4.6-12,9.3
									c-3.9,4.6-7.4,10.7-10.1,18l0,0c-8,22.5-19,53-31.8,88.8l-0.1,0.2h-0.2c-32.6-1-69.9-2.2-109.6-3.4l0.3-0.1
									c-0.3,0.5-0.7,1-1.1,1.5l0.1-0.1c-1.6,7.9-3.2,16.4-4.9,24.9c-0.2,0.9-0.3,1.7-0.5,2.5l-0.2-0.4c3.5,1,7,1.9,10.2,2.8
									l0.2,0.1v0.2c0.3,2.3,1.3,4.4,3,5.9c0.8,0.8,1.8,1.4,2.8,1.8c1,0.4,2.1,0.6,3.3,0.8c4.5,0.9,9,1.8,13.4,2.6
									c8.9,1.7,17.6,3.4,26.2,5c17.2,3.3,33.7,6.3,49.5,9c3.9,0.7,7.8,1.3,11.7,1.8c1.9,0.2,3.8,0.5,5.7,0.6
									c1.9,0,3.8-0.1,5.7-0.3c7.5-0.8,14.6-3.2,20.7-6.6c6.2-3.5,11.3-8.1,15.5-13.2c2-2.5,3.7-5.3,5.3-8s3.1-5.4,4.5-8
									c11.3-21.2,18.8-39.2,23.5-51.8c2.3-6.3,4-11.2,5-14.6c0.5-1.7,0.9-3,1.2-3.8c0.3-0.9,0.4-1.3,0.4-1.3s-0.1,0.4-0.4,1.3
									c-0.3,0.9-0.6,2.2-1.1,3.8c-1,3.4-2.6,8.3-4.9,14.6c-4.7,12.6-12,30.6-23.3,51.9c-1.4,2.7-2.9,5.3-4.5,8.1
									c-1.6,2.7-3.3,5.5-5.3,8.1c-4.2,5.1-9.4,9.8-15.6,13.3c-6.2,3.5-13.3,5.9-20.9,6.7c-1.9,0.2-3.8,0.3-5.7,0.3
									c-2-0.1-3.9-0.4-5.8-0.6c-3.9-0.5-7.8-1.2-11.7-1.8c-15.8-2.7-32.3-5.7-49.5-9c-8.6-1.6-17.3-3.3-26.2-5
									c-4.4-0.9-8.9-1.7-13.4-2.6c-1.1-0.2-2.3-0.4-3.4-0.9c-1.1-0.4-2.1-1.1-3-1.9c-1.8-1.6-2.9-3.9-3.2-6.2l0.2,0.2
									c-3.2-0.9-6.7-1.8-10.2-2.8l-0.3-0.1l0.1-0.3c0.2-0.8,0.3-1.7,0.5-2.5c1.7-8.5,3.4-17,4.9-24.9v-0.1v-0.1
									c0.4-0.5,0.7-1,1.1-1.5l0.1-0.1h0.2c39.7,1.3,77,2.4,109.6,3.5l-0.3,0.2c12.9-35.7,23.9-66.3,32-88.7l0,0
									c2.7-7.2,6.2-13.4,10.2-18c3.9-4.6,8.3-7.6,12.2-9.3c3.9-1.6,7.1-2,9.3-2.1c1.1-0.1,1.9,0,2.4,0
									C690,513.6,690.3,513.6,690.3,513.6z"/>
							</g>
						</g>
					</g>
					<g>
						<path class="st8" d="M599.5,624.8c-0.2,0.1-1.7-4-5.3-7.8c-3.5-3.8-7.5-5.6-7.4-5.8c0-0.1,1,0.3,2.5,1.2s3.5,2.3,5.3,4.2
							s3.1,4,3.8,5.6C599.3,623.7,599.6,624.8,599.5,624.8z"/>
					</g>
					<g>
						<path class="st8" d="M636.9,653.3c-0.1,0-0.3-1.4-1-3.6c-0.6-2.2-1.8-5.2-3.6-8.2s-4-5.4-5.6-6.9c-1.7-1.6-2.8-2.4-2.8-2.5
							c0,0,0.3,0.1,0.9,0.5c0.6,0.3,1.3,0.9,2.2,1.7c1.8,1.5,4,3.9,5.9,6.9c1.9,3.1,3,6.1,3.5,8.4c0.3,1.1,0.4,2.1,0.5,2.7
							C636.9,652.9,636.9,653.3,636.9,653.3z"/>
					</g>
					<g class="st14">
						<path d="M607.7,631.1l6.4,0.2c1-25,6.2-50,10.6-74.6C613.4,579.7,610.4,605.7,607.7,631.1z"/>
					</g>
					<g>
						<path class="st8" d="M707,502.1c0,0-0.2,0.1-0.6,0.2c-0.5,0.1-1,0.3-1.8,0.5c-1.6,0.4-3.8,1-6.5,1.7c-5.5,1.4-13,3.5-21.3,5.6
							c-8.4,2.1-16,3.7-21.6,4.7c-2.8,0.5-5.1,0.8-6.6,0.9c-0.7,0.1-1.3,0.1-1.8,0.2c-0.4,0-0.6,0-0.6,0s0.2-0.1,0.6-0.1
							c0.5-0.1,1.1-0.2,1.8-0.3c1.6-0.2,3.8-0.6,6.6-1.1c5.5-1,13.2-2.7,21.5-4.8c8.3-2.1,15.9-4.1,21.4-5.5c2.7-0.7,5-1.2,6.5-1.5
							c0.7-0.1,1.3-0.3,1.8-0.4C706.7,502.1,706.9,502.1,707,502.1z"/>
					</g>
				</g>
			</g>
		</g>
	</g>
	<g class="st0">
		<path class="st15" d="M314.3,96.1h-6.6V67.6h21.6v5.3h-15V96.1z M313.8,80.4h13.7v5.3h-13.7V80.4z"/>
		<path class="st15" d="M332.9,96.1v-22h6.1v6.2l-0.9-1.8c0.7-1.6,1.7-2.7,3.1-3.5s3.2-1.2,5.3-1.2v5.9c-0.3,0-0.5,0-0.7-0.1
			c-0.2,0-0.4,0-0.7,0c-1.7,0-3.1,0.5-4.2,1.5s-1.6,2.5-1.6,4.6v10.4H332.9z"/>
		<path class="st15" d="M360.6,96.5c-2.3,0-4.4-0.5-6.2-1.5c-1.8-1-3.2-2.3-4.3-4c-1-1.7-1.6-3.6-1.6-5.8c0-2.2,0.5-4.2,1.6-5.9
			c1-1.7,2.5-3,4.3-4s3.9-1.4,6.2-1.4c2.3,0,4.4,0.5,6.2,1.4c1.8,1,3.2,2.3,4.3,4c1,1.7,1.6,3.6,1.6,5.9c0,2.2-0.5,4.1-1.6,5.8
			c-1,1.7-2.5,3-4.3,4C365,96,362.9,96.5,360.6,96.5z M360.6,91.2c1.1,0,2-0.2,2.9-0.7c0.8-0.5,1.5-1.2,2-2.1s0.7-2,0.7-3.2
			c0-1.3-0.2-2.4-0.7-3.3s-1.2-1.6-2-2.1s-1.8-0.7-2.9-0.7s-2,0.2-2.9,0.7c-0.8,0.5-1.5,1.2-2,2.1s-0.8,2-0.8,3.3s0.3,2.3,0.8,3.2
			c0.5,0.9,1.2,1.6,2,2.1C358.6,91,359.5,91.2,360.6,91.2z"/>
		<path class="st15" d="M390.2,73.9c1.7,0,3.3,0.3,4.7,1c1.4,0.7,2.5,1.8,3.2,3.2s1.2,3.3,1.2,5.5v12.6h-6.4V84.5
			c0-1.8-0.4-3.1-1.2-3.9c-0.8-0.8-1.9-1.3-3.3-1.3c-1,0-1.9,0.2-2.7,0.6c-0.8,0.4-1.4,1.1-1.9,1.9c-0.4,0.9-0.7,2-0.7,3.3V96h-6.4
			V74h6.1v6.1l-1.1-1.8c0.8-1.5,1.9-2.6,3.4-3.4S388.3,73.9,390.2,73.9z"/>
		<path class="st15" d="M402.4,79.6v-4.9h15.2v4.9H402.4z M414,96.5c-2.6,0-4.6-0.7-6-2s-2.2-3.3-2.2-5.9V69.3h6.4v19.2
			c0,0.9,0.2,1.6,0.7,2.1s1.2,0.8,2,0.8c1,0,1.9-0.3,2.6-0.8l1.7,4.5c-0.7,0.5-1.4,0.8-2.3,1C416,96.3,415,96.5,414,96.5z"/>
		<path class="st15" d="M421.6,87.2v-5.1h11.5v5.1H421.6z"/>
		<path class="st15" d="M445.2,90.8h15.5v5.3h-22.1V67.6h21.6v5.3h-15V90.8z M444.7,79.1h13.8v5.1h-13.8V79.1z"/>
		<path class="st15" d="M478.9,73.9c1.7,0,3.3,0.3,4.7,1c1.4,0.7,2.5,1.8,3.2,3.2s1.2,3.3,1.2,5.5v12.6h-6.4V84.5
			c0-1.8-0.4-3.1-1.2-3.9c-0.8-0.8-1.9-1.3-3.3-1.3c-1,0-1.9,0.2-2.7,0.6c-0.8,0.4-1.4,1.1-1.9,1.9c-0.4,0.9-0.7,2-0.7,3.3V96h-6.4
			V74h6.1v6.1l-1.1-1.8c0.8-1.5,1.9-2.6,3.4-3.4S477,73.9,478.9,73.9z"/>
		<path class="st15" d="M503.3,96.5c-2.1,0-3.9-0.5-5.6-1.4s-3-2.3-3.9-3.9c-1-1.7-1.4-3.7-1.4-6s0.5-4.3,1.4-6c1-1.7,2.3-3,3.9-3.9
			c1.7-0.9,3.5-1.4,5.6-1.4c1.8,0,3.5,0.4,4.9,1.2c1.4,0.8,2.5,2.1,3.2,3.7c0.7,1.6,1.1,3.8,1.1,6.4s-0.4,4.7-1.1,6.3
			s-1.8,2.9-3.2,3.7C506.9,96.1,505.2,96.5,503.3,96.5z M504.4,91.2c1,0,2-0.2,2.8-0.7s1.5-1.2,2-2.1s0.8-2,0.8-3.2
			c0-1.3-0.3-2.4-0.8-3.3s-1.2-1.6-2-2.1s-1.8-0.7-2.8-0.7c-1.1,0-2,0.2-2.9,0.7c-0.8,0.5-1.5,1.2-2,2.1s-0.8,2-0.8,3.3
			s0.3,2.3,0.8,3.2c0.5,0.9,1.2,1.6,2,2.1C502.4,91,503.3,91.2,504.4,91.2z M510.2,96.1v-4.5l0.1-6.5l-0.4-6.5V65.9h6.4v30.3
			L510.2,96.1L510.2,96.1z"/>
		<path class="st15" d="M534.5,96.1V67.6h2.5l13.1,22.3h-1.3l12.9-22.3h2.5v28.6h-2.9v-24h0.7l-11.9,20.4h-1.4l-12-20.4h0.8v24
			L534.5,96.1L534.5,96.1z"/>
		<path class="st15" d="M578.9,96.3c-1.6,0-3-0.3-4.2-0.8s-2.1-1.3-2.7-2.2s-0.9-2-0.9-3.2c0-1.1,0.3-2.1,0.8-3s1.4-1.6,2.6-2.2
			c1.2-0.6,2.8-0.8,4.9-0.8h7.4v2.2h-7.3c-2.1,0-3.5,0.4-4.3,1.1S574,89,574,90.1c0,1.2,0.5,2.2,1.4,2.9s2.3,1.1,4,1.1
			c1.6,0,3-0.4,4.2-1.1s2-1.8,2.6-3.2l0.7,2c-0.5,1.4-1.5,2.5-2.8,3.4C582.6,95.9,581,96.3,578.9,96.3z M586.3,96.1v-4.7l-0.1-0.8
			v-7.9c0-1.8-0.5-3.2-1.5-4.2s-2.5-1.5-4.5-1.5c-1.4,0-2.7,0.2-4,0.7s-2.3,1.1-3.2,1.8l-1.3-2.2c1.1-0.9,2.4-1.6,3.9-2.1
			s3.1-0.8,4.8-0.8c2.8,0,4.9,0.7,6.4,2.1s2.3,3.5,2.3,6.3v13.3C589.1,96.1,586.3,96.1,586.3,96.1z"/>
		<path class="st15" d="M602.7,96.3c-1.8,0-3.4-0.3-5-0.8s-2.8-1.1-3.7-1.9l1.3-2.3c0.9,0.7,2,1.2,3.3,1.7c1.4,0.5,2.8,0.7,4.3,0.7
			c2,0,3.5-0.3,4.4-1c0.9-0.6,1.3-1.5,1.3-2.6c0-0.8-0.3-1.4-0.8-1.9c-0.5-0.4-1.2-0.8-2-1s-1.7-0.4-2.7-0.6s-2-0.4-3-0.6
			s-1.9-0.5-2.7-1c-0.8-0.4-1.5-1-2-1.7s-0.8-1.7-0.8-2.9c0-1.2,0.3-2.2,1-3.1s1.6-1.7,2.9-2.2c1.3-0.5,2.8-0.8,4.6-0.8
			c1.4,0,2.8,0.2,4.2,0.6s2.5,0.9,3.4,1.4l-1.3,2.3c-1-0.7-2-1.1-3.1-1.4s-2.2-0.4-3.3-0.4c-1.9,0-3.4,0.3-4.3,1
			c-0.9,0.7-1.4,1.5-1.4,2.6c0,0.8,0.3,1.5,0.8,1.9c0.5,0.5,1.2,0.8,2,1.1c0.8,0.3,1.7,0.5,2.7,0.6c1,0.2,2,0.4,3,0.6
			s1.9,0.5,2.7,0.9s1.5,1,2,1.7s0.8,1.7,0.8,2.8c0,1.3-0.3,2.3-1,3.2c-0.7,0.9-1.7,1.6-3,2.1C606.2,96.1,604.6,96.3,602.7,96.3z"/>
		<path class="st15" d="M613.5,77.1v-2.4h13.3v2.4H613.5z M623.6,96.3c-2,0-3.6-0.5-4.7-1.6c-1.1-1.1-1.6-2.6-1.6-4.6V70h2.9v20
			c0,1.3,0.3,2.2,1,2.9c0.6,0.7,1.6,1,2.8,1c1.3,0,2.3-0.4,3.2-1.1l1,2.1c-0.6,0.5-1.3,0.9-2.1,1.1
			C625.3,96.2,624.5,96.3,623.6,96.3z"/>
		<path class="st15" d="M641.8,96.3c-2.2,0-4.2-0.5-5.9-1.4s-3-2.2-4-3.9c-1-1.6-1.4-3.5-1.4-5.7c0-2.1,0.5-4,1.4-5.6
			s2.2-2.9,3.8-3.9c1.6-0.9,3.4-1.4,5.4-1.4s3.8,0.5,5.4,1.4c1.6,0.9,2.8,2.2,3.7,3.8c0.9,1.6,1.3,3.5,1.3,5.7c0,0.1,0,0.3,0,0.4
			s0,0.3,0,0.5h-18.6V84H650l-1.1,0.9c0-1.6-0.3-2.9-1-4.1s-1.6-2.2-2.7-2.8c-1.1-0.7-2.5-1-4-1s-2.8,0.3-4,1s-2.1,1.6-2.7,2.9
			c-0.7,1.2-1,2.6-1,4.2v0.4c0,1.6,0.4,3.1,1.1,4.3c0.7,1.2,1.7,2.2,3,2.9c1.3,0.7,2.8,1,4.4,1c1.3,0,2.5-0.2,3.7-0.7
			c1.1-0.5,2.1-1.2,2.9-2.1l1.6,1.9c-1,1.1-2.1,2-3.6,2.6C645,96,643.5,96.3,641.8,96.3z"/>
		<path class="st15" d="M657.3,96.1V74.7h2.8v5.8l-0.3-1c0.6-1.6,1.6-2.9,3-3.7c1.4-0.9,3.2-1.3,5.3-1.3v2.8c-0.1,0-0.2,0-0.3,0
			s-0.2,0-0.3,0c-2.3,0-4,0.7-5.3,2.1s-1.9,3.3-1.9,5.9v10.9h-3V96.1z"/>
		<path class="st15" d="M674.4,104.3c-1,0-2-0.2-2.9-0.5s-1.7-0.8-2.3-1.5l1.3-2.2c0.5,0.5,1.1,0.9,1.8,1.2c0.6,0.3,1.4,0.4,2.1,0.4
			c1,0,1.8-0.3,2.5-0.8s1.4-1.5,2-2.8l1.4-3.1l0.3-0.4l8.8-19.9h2.9l-10.7,24c-0.6,1.4-1.3,2.5-2,3.3s-1.5,1.4-2.3,1.7
			C676.4,104.1,675.5,104.3,674.4,104.3z M680.1,96.7l-9.9-22h3l8.7,19.7L680.1,96.7z"/>
	</g>
</g>
</svg>
